# MagicaVoxel @ Ephtracy

# group
o 

# material
mtllib env_rocks2.mtl
usemtl palette

# normals
vn -1 0 0
vn 1 0 0
vn 0 0 1
vn 0 0 -1
vn 0 -1 0
vn 0 1 0

# texcoords
vt 0.978516 0.5
vt 0.982422 0.5
vt 0.986328 0.5

# verts
v 0.1 2 -0.1
v 0.1 2 -0.8
v 0.1 2.1 -0.1
v 0.1 2.1 -0.2
v 0.1 2.1 -0.7
v 0.1 2.2 -0.7
v 0.1 2.2 -0.8
v 0.1 2.3 -0.1
v 0.1 2.3 -0.2
v 0.1 2.3 -0.8
v 0.2 2 -0.8
v 0.2 2 -0.9
v 0.2 2 -1
v 0.2 2.1 -0.9
v 0.2 2.1 -1
v 0.2 2.2 -0.8
v 0.2 2.2 -0.9
v 0.2 2.2 -1
v 0.2 2.3 -0.2
v 0.2 2.3 -0.3
v 0.2 2.3 -0.8
v 0.2 2.3 -0.9
v 0.2 2.4 -0.3
v 0.2 2.4 -0.8
v 0.2 2.5 -0.2
v 0.2 2.5 -0.3
v 0.2 2.5 -0.7
v 0.2 2.5 -0.8
v 0.2 2.6 -0.3
v 0.2 2.6 -0.7
v 0.6 2 -0.1
v 0.6 2 -0.2
v 0.6 2.1 -0.1
v 0.6 2.1 -0.2
v 0.6 2.2 -0.1
v 0.6 2.2 -0.2
v 0.6 2.3 -0.1
v 0.6 2.3 -0.2
v 0.7 2.5 -0.3
v 0.7 2.5 -0.7
v 0.7 2.6 -0.3
v 0.7 2.6 -0.7
v 0.8 2 -0.9
v 0.8 2 -1
v 0.8 2.2 -0.9
v 0.8 2.2 -1
v 0.8 2.3 -0.2
v 0.8 2.3 -0.3
v 0.8 2.3 -0.8
v 0.8 2.4 -0.3
v 0.8 2.4 -0.8
v 0.8 2.5 -0.2
v 0.8 2.5 -0.3
v 0.8 2.5 -0.8
v 0.9 2 -0.2
v 0.9 2 -0.8
v 0.9 2 -0.9
v 0.9 2.1 -0.5
v 0.9 2.1 -0.8
v 0.9 2.2 -0.3
v 0.9 2.2 -0.5
v 0.9 2.2 -0.8
v 0.9 2.2 -0.9
v 0.9 2.3 -0.2
v 0.9 2.3 -0.3
v 0.9 2.3 -0.9
v 0.1 2 -0.1
v 0.1 2.1 -0.1
v 0.1 2.3 -0.1
v 0.2 2 -0.1
v 0.2 2.1 -0.1
v 0.2 2.3 -0.1
v 0.5 2.1 -0.1
v 0.5 2.2 -0.1
v 0.6 2 -0.1
v 0.6 2.1 -0.1
v 0.6 2.2 -0.1
v 0.6 2.3 -0.1
v 0.2 2.3 -0.2
v 0.2 2.5 -0.2
v 0.4 2.3 -0.2
v 0.4 2.4 -0.2
v 0.6 2 -0.2
v 0.6 2.1 -0.2
v 0.6 2.2 -0.2
v 0.6 2.3 -0.2
v 0.6 2.4 -0.2
v 0.7 2.3 -0.2
v 0.7 2.5 -0.2
v 0.8 2.1 -0.2
v 0.8 2.3 -0.2
v 0.8 2.5 -0.2
v 0.9 2 -0.2
v 0.9 2.3 -0.2
v 0.2 2.5 -0.3
v 0.2 2.6 -0.3
v 0.3 2.5 -0.3
v 0.3 2.6 -0.3
v 0.7 2.5 -0.3
v 0.7 2.6 -0.3
v 0.2 2.5 -0.7
v 0.2 2.6 -0.7
v 0.3 2.5 -0.7
v 0.3 2.6 -0.7
v 0.7 2.5 -0.7
v 0.7 2.6 -0.7
v 0.1 2 -0.8
v 0.1 2.2 -0.8
v 0.1 2.3 -0.8
v 0.2 2 -0.8
v 0.2 2.2 -0.8
v 0.2 2.3 -0.8
v 0.2 2.4 -0.8
v 0.2 2.5 -0.8
v 0.3 2.3 -0.8
v 0.3 2.4 -0.8
v 0.7 2.3 -0.8
v 0.7 2.4 -0.8
v 0.8 2.3 -0.8
v 0.8 2.4 -0.8
v 0.8 2.5 -0.8
v 0.2 2.2 -0.9
v 0.2 2.3 -0.9
v 0.3 2.2 -0.9
v 0.3 2.3 -0.9
v 0.7 2.2 -0.9
v 0.8 2 -0.9
v 0.8 2.2 -0.9
v 0.9 2 -0.9
v 0.9 2.2 -0.9
v 0.9 2.3 -0.9
v 0.2 2 -1
v 0.2 2.1 -1
v 0.2 2.2 -1
v 0.7 2 -1
v 0.7 2.1 -1
v 0.7 2.2 -1
v 0.8 2 -1
v 0.8 2.2 -1
v 0.1 2 -0.1
v 0.2 2 -0.1
v 0.6 2 -0.1
v 0.6 2 -0.2
v 0.9 2 -0.2
v 0.6 2 -0.3
v 0.8 2 -0.3
v 0.1 2 -0.8
v 0.2 2 -0.8
v 0.8 2 -0.8
v 0.9 2 -0.8
v 0.2 2 -0.9
v 0.7 2 -0.9
v 0.8 2 -0.9
v 0.9 2 -0.9
v 0.2 2 -1
v 0.7 2 -1
v 0.8 2 -1
v 0.2 2.2 -0.9
v 0.3 2.2 -0.9
v 0.7 2.2 -0.9
v 0.8 2.2 -0.9
v 0.2 2.2 -1
v 0.7 2.2 -1
v 0.8 2.2 -1
v 0.1 2.3 -0.1
v 0.2 2.3 -0.1
v 0.6 2.3 -0.1
v 0.1 2.3 -0.2
v 0.2 2.3 -0.2
v 0.4 2.3 -0.2
v 0.6 2.3 -0.2
v 0.8 2.3 -0.2
v 0.9 2.3 -0.2
v 0.2 2.3 -0.3
v 0.8 2.3 -0.3
v 0.9 2.3 -0.3
v 0.1 2.3 -0.8
v 0.2 2.3 -0.8
v 0.3 2.3 -0.8
v 0.7 2.3 -0.8
v 0.8 2.3 -0.8
v 0.2 2.3 -0.9
v 0.3 2.3 -0.9
v 0.9 2.3 -0.9
v 0.2 2.5 -0.2
v 0.7 2.5 -0.2
v 0.8 2.5 -0.2
v 0.2 2.5 -0.3
v 0.3 2.5 -0.3
v 0.7 2.5 -0.3
v 0.8 2.5 -0.3
v 0.2 2.5 -0.7
v 0.3 2.5 -0.7
v 0.7 2.5 -0.7
v 0.2 2.5 -0.8
v 0.8 2.5 -0.8
v 0.2 2.6 -0.3
v 0.3 2.6 -0.3
v 0.7 2.6 -0.3
v 0.2 2.6 -0.7
v 0.3 2.6 -0.7
v 0.7 2.6 -0.7

# faces
f 3/2/1 2/2/1 1/2/1
f 4/2/1 2/2/1 3/2/1
f 5/2/1 2/2/1 4/2/1
f 6/1/1 5/1/1 4/1/1
f 6/2/1 2/2/1 5/2/1
f 7/2/1 2/2/1 6/2/1
f 8/3/1 4/3/1 3/3/1
f 9/1/1 6/1/1 4/1/1
f 9/3/1 4/3/1 8/3/1
f 9/1/1 7/1/1 6/1/1
f 10/1/1 7/1/1 9/1/1
f 14/3/1 12/3/1 11/3/1
f 14/2/1 13/2/1 12/2/1
f 15/2/1 13/2/1 14/2/1
f 16/3/1 14/3/1 11/3/1
f 17/1/1 15/1/1 14/1/1
f 17/3/1 14/3/1 16/3/1
f 18/1/1 15/1/1 17/1/1
f 21/3/1 17/3/1 16/3/1
f 22/3/1 17/3/1 21/3/1
f 23/1/1 20/1/1 19/1/1
f 23/3/1 21/3/1 20/3/1
f 24/3/1 21/3/1 23/3/1
f 25/1/1 23/1/1 19/1/1
f 25/1/1 24/1/1 23/1/1
f 26/1/1 24/1/1 25/1/1
f 27/1/1 24/1/1 26/1/1
f 28/1/1 24/1/1 27/1/1
f 29/2/1 27/2/1 26/2/1
f 30/2/1 27/2/1 29/2/1
f 31/3/2 32/3/2 33/3/2
f 33/3/2 32/3/2 34/3/2
f 33/2/2 34/2/2 35/2/2
f 35/2/2 34/2/2 36/2/2
f 35/1/2 36/1/2 37/1/2
f 37/1/2 36/1/2 38/1/2
f 39/1/2 40/1/2 41/1/2
f 41/1/2 40/1/2 42/1/2
f 43/3/2 44/3/2 45/3/2
f 45/3/2 44/3/2 46/3/2
f 47/2/2 48/2/2 50/2/2
f 48/2/2 49/2/2 50/2/2
f 50/2/2 49/2/2 51/2/2
f 47/2/2 50/2/2 52/2/2
f 50/1/2 51/1/2 53/1/2
f 52/2/2 50/2/2 53/2/2
f 53/1/2 51/1/2 54/1/2
f 55/2/2 56/2/2 58/2/2
f 56/3/2 57/3/2 59/3/2
f 58/2/2 56/2/2 59/2/2
f 55/2/2 58/2/2 60/2/2
f 58/1/2 59/1/2 61/1/2
f 60/2/2 58/2/2 61/2/2
f 59/3/2 57/3/2 62/3/2
f 61/1/2 59/1/2 62/1/2
f 62/3/2 57/3/2 63/3/2
f 55/2/2 60/2/2 64/2/2
f 60/1/2 61/1/2 65/1/2
f 64/2/2 60/2/2 65/2/2
f 61/1/2 62/1/2 65/1/2
f 62/1/2 63/1/2 65/1/2
f 65/1/2 63/1/2 66/1/2
f 70/2/3 68/2/3 67/2/3
f 71/3/3 69/3/3 68/3/3
f 71/2/3 68/2/3 70/2/3
f 72/3/3 69/3/3 71/3/3
f 73/3/3 71/3/3 70/3/3
f 73/1/3 72/1/3 71/1/3
f 74/1/3 72/1/3 73/1/3
f 75/3/3 73/3/3 70/3/3
f 76/2/3 74/2/3 73/2/3
f 76/3/3 73/3/3 75/3/3
f 77/1/3 72/1/3 74/1/3
f 77/2/3 74/2/3 76/2/3
f 78/1/3 72/1/3 77/1/3
f 81/1/3 80/1/3 79/1/3
f 82/1/3 80/1/3 81/1/3
f 86/2/3 82/2/3 81/2/3
f 87/1/3 80/1/3 82/1/3
f 87/2/3 82/2/3 86/2/3
f 88/1/3 85/1/3 84/1/3
f 88/1/3 86/1/3 85/1/3
f 88/1/3 87/1/3 86/1/3
f 89/1/3 80/1/3 87/1/3
f 89/1/3 87/1/3 88/1/3
f 90/1/3 88/1/3 84/1/3
f 90/2/3 84/2/3 83/2/3
f 91/2/3 89/2/3 88/2/3
f 91/1/3 88/1/3 90/1/3
f 92/2/3 89/2/3 91/2/3
f 93/2/3 90/2/3 83/2/3
f 93/2/3 91/2/3 90/2/3
f 94/2/3 91/2/3 93/2/3
f 97/2/3 96/2/3 95/2/3
f 98/2/3 96/2/3 97/2/3
f 99/1/3 98/1/3 97/1/3
f 100/1/3 98/1/3 99/1/3
f 101/2/4 102/2/4 103/2/4
f 103/2/4 102/2/4 104/2/4
f 103/1/4 104/1/4 105/1/4
f 105/1/4 104/1/4 106/1/4
f 107/2/4 108/2/4 110/2/4
f 108/1/4 109/1/4 111/1/4
f 110/2/4 108/2/4 111/2/4
f 111/1/4 109/1/4 112/1/4
f 112/3/4 113/3/4 115/3/4
f 113/1/4 114/1/4 116/1/4
f 115/3/4 113/3/4 116/3/4
f 115/1/4 116/1/4 117/1/4
f 116/1/4 114/1/4 118/1/4
f 117/1/4 116/1/4 118/1/4
f 117/2/4 118/2/4 119/2/4
f 118/1/4 114/1/4 120/1/4
f 119/2/4 118/2/4 120/2/4
f 120/1/4 114/1/4 121/1/4
f 122/3/4 123/3/4 124/3/4
f 124/3/4 123/3/4 125/3/4
f 124/1/4 125/1/4 126/1/4
f 126/1/4 125/1/4 128/1/4
f 127/3/4 128/3/4 129/3/4
f 128/1/4 125/1/4 130/1/4
f 129/3/4 128/3/4 130/3/4
f 130/1/4 125/1/4 131/1/4
f 132/2/4 133/2/4 135/2/4
f 133/1/4 134/1/4 136/1/4
f 135/2/4 133/2/4 136/2/4
f 136/1/4 134/1/4 137/1/4
f 135/3/4 136/3/4 138/3/4
f 136/3/4 137/3/4 138/3/4
f 138/3/4 137/3/4 139/3/4
f 143/3/5 142/3/5 141/3/5
f 145/3/5 143/3/5 141/3/5
f 145/2/5 144/2/5 143/2/5
f 146/2/5 144/2/5 145/2/5
f 147/2/5 141/2/5 140/2/5
f 148/3/5 145/3/5 141/3/5
f 148/2/5 141/2/5 147/2/5
f 148/3/5 146/3/5 145/3/5
f 149/2/5 144/2/5 146/2/5
f 149/3/5 146/3/5 148/3/5
f 150/2/5 144/2/5 149/2/5
f 151/3/5 149/3/5 148/3/5
f 151/3/5 150/3/5 149/3/5
f 152/3/5 150/3/5 151/3/5
f 153/3/5 150/3/5 152/3/5
f 154/3/5 150/3/5 153/3/5
f 155/2/5 152/2/5 151/2/5
f 156/3/5 153/3/5 152/3/5
f 156/2/5 152/2/5 155/2/5
f 157/3/5 153/3/5 156/3/5
f 158/1/6 159/1/6 162/1/6
f 159/1/6 160/1/6 162/1/6
f 160/3/6 161/3/6 163/3/6
f 162/1/6 160/1/6 163/1/6
f 163/3/6 161/3/6 164/3/6
f 165/3/6 166/3/6 168/3/6
f 166/1/6 167/1/6 169/1/6
f 168/3/6 166/3/6 169/3/6
f 169/1/6 167/1/6 170/1/6
f 170/1/6 167/1/6 171/1/6
f 168/1/6 169/1/6 174/1/6
f 172/2/6 173/2/6 175/2/6
f 175/2/6 173/2/6 176/2/6
f 168/1/6 174/1/6 177/1/6
f 177/1/6 174/1/6 178/1/6
f 175/1/6 176/1/6 181/1/6
f 178/3/6 179/3/6 182/3/6
f 179/1/6 180/1/6 183/1/6
f 182/3/6 179/3/6 183/3/6
f 180/1/6 181/1/6 183/1/6
f 181/1/6 176/1/6 184/1/6
f 183/1/6 181/1/6 184/1/6
f 185/1/6 186/1/6 188/1/6
f 188/1/6 186/1/6 189/1/6
f 186/2/6 187/2/6 190/2/6
f 189/1/6 186/1/6 190/1/6
f 190/2/6 187/2/6 191/2/6
f 190/1/6 191/1/6 194/1/6
f 192/1/6 193/1/6 195/1/6
f 193/1/6 194/1/6 195/1/6
f 194/1/6 191/1/6 196/1/6
f 195/1/6 194/1/6 196/1/6
f 197/2/6 198/2/6 200/2/6
f 198/1/6 199/1/6 201/1/6
f 200/2/6 198/2/6 201/2/6
f 201/1/6 199/1/6 202/1/6
