# MagicaVoxel @ Ephtracy

# group
o 

# material
mtllib tree3.mtl
usemtl palette

# normals
vn -1 0 0
vn 1 0 0
vn 0 0 1
vn 0 0 -1
vn 0 -1 0
vn 0 1 0

# texcoords
vt 0.0566406 0.5
vt 0.177734 0.5
vt 0.310547 0.5
vt 0.373047 0.5
vt 0.462891 0.5
vt 0.525391 0.5
vt 0.529297 0.5
vt 0.560547 0.5
vt 0.591797 0.5
vt 0.650391 0.5

# verts
v 0.8 2 -1.6
v 0.8 2 -1.7
v 0.8 2.1 -1.6
v 0.8 2.1 -1.7
v 0.9 2 -1.5
v 0.9 2 -1.6
v 0.9 2.1 -1.5
v 0.9 2.1 -1.6
v 1 3.3 -1.5
v 1 3.3 -1.6
v 1 3.6 -1.5
v 1 3.6 -1.6
v 1 3.7 -1.5
v 1 3.7 -1.6
v 1 3.9 -1
v 1 3.9 -2.1
v 1 4.1 -1
v 1 4.1 -2.1
v 1 4.3 -1
v 1 4.3 -2.1
v 1.1 2 -1.1
v 1.1 2 -1.2
v 1.1 2 -1.7
v 1.1 2 -1.8
v 1.1 2.1 -1.1
v 1.1 2.1 -1.2
v 1.1 2.1 -1.7
v 1.1 2.1 -1.8
v 1.1 4.3 -1.2
v 1.1 4.3 -1.9
v 1.1 4.4 -1.2
v 1.1 4.4 -1.9
v 1.2 2 -0.7
v 1.2 2 -0.9
v 1.2 2 -1
v 1.2 2 -1.1
v 1.2 2 -1.4
v 1.2 2 -1.6
v 1.2 2.1 -0.7
v 1.2 2.1 -0.9
v 1.2 2.1 -1
v 1.2 2.1 -1.1
v 1.2 2.1 -1.4
v 1.2 2.1 -1.6
v 1.2 3.8 -1.2
v 1.2 3.8 -1.8
v 1.2 3.9 -1.2
v 1.2 3.9 -1.8
v 1.2 4.4 -1.3
v 1.2 4.4 -1.8
v 1.2 4.5 -1.3
v 1.2 4.5 -1.8
v 1.3 2 -0.9
v 1.3 2 -1
v 1.3 2.1 -0.9
v 1.3 2.1 -1
v 1.3 2.1 -1.4
v 1.3 2.1 -1.6
v 1.3 3.3 -1.5
v 1.3 3.3 -1.6
v 1.3 3.4 -1.5
v 1.3 3.4 -1.6
v 1.3 3.8 -1.4
v 1.3 3.8 -1.6
v 1.3 4.5 -1.4
v 1.3 4.5 -1.7
v 1.3 4.6 -1.4
v 1.3 4.6 -1.7
v 1.4 3.1 -0.9
v 1.4 3.1 -1.4
v 1.4 3.2 -1
v 1.4 3.2 -1.4
v 1.4 3.2 -1.6
v 1.4 3.2 -2
v 1.4 3.3 -1.6
v 1.4 3.3 -1.9
v 1.4 3.6 -0.9
v 1.4 3.6 -1
v 1.4 3.6 -2
v 1.4 3.6 -2.1
v 1.4 3.7 -0.9
v 1.4 3.7 -1
v 1.4 3.7 -1.9
v 1.4 3.7 -2
v 1.4 3.7 -2.1
v 1.4 3.8 -2
v 1.4 3.8 -2.1
v 1.4 4.5 -1.3
v 1.4 4.5 -1.4
v 1.4 4.5 -1.7
v 1.4 4.5 -1.8
v 1.4 4.6 -1.3
v 1.4 4.6 -1.4
v 1.4 4.6 -1.5
v 1.4 4.6 -1.6
v 1.4 4.6 -1.7
v 1.4 4.6 -1.8
v 1.4 4.7 -1.5
v 1.4 4.7 -1.6
v 1.5 2 -1.8
v 1.5 2 -2.2
v 1.5 2.1 -1.8
v 1.5 2.1 -2.2
v 1.6 2 -1
v 1.6 2 -1.1
v 1.6 2 -1.2
v 1.6 2 -1.4
v 1.6 2 -1.6
v 1.6 2 -1.8
v 1.6 2.1 -1
v 1.6 2.1 -1.1
v 1.6 2.1 -1.2
v 1.6 2.1 -1.4
v 1.6 2.1 -1.6
v 1.6 2.1 -1.8
v 1.8 2 -0.9
v 1.8 2 -1
v 1.8 2.1 -0.9
v 1.8 2.1 -1
v 1.8 3.4 -1.4
v 1.8 3.4 -1.5
v 1.8 3.6 -1.4
v 1.8 3.6 -1.5
v 1.8 3.7 -1.4
v 1.8 3.7 -1.5
v 2.1 2 -1.6
v 2.1 2 -1.8
v 2.1 2.1 -1.6
v 2.1 2.1 -1.8
v 1 2 -1.5
v 1 2 -1.6
v 1 2.1 -1.5
v 1 2.1 -1.6
v 1.1 3.4 -1.5
v 1.1 3.4 -1.6
v 1.1 3.6 -1.5
v 1.1 3.6 -1.6
v 1.1 3.7 -1.5
v 1.1 3.7 -1.6
v 1.2 2 -1.7
v 1.2 2 -1.8
v 1.2 2.1 -1.7
v 1.2 2.1 -1.8
v 1.3 2 -0.7
v 1.3 2 -0.9
v 1.3 2 -1
v 1.3 2 -1.1
v 1.3 2 -1.6
v 1.3 2 -1.7
v 1.3 2.1 -0.7
v 1.3 2.1 -0.9
v 1.3 2.1 -1
v 1.3 2.1 -1.1
v 1.3 2.1 -1.6
v 1.3 2.1 -1.7
v 1.4 2 -0.9
v 1.4 2 -1
v 1.4 2.1 -0.9
v 1.4 2.1 -1
v 1.5 3.1 -0.9
v 1.5 3.1 -1.4
v 1.5 3.2 -1
v 1.5 3.2 -1.4
v 1.5 3.2 -1.6
v 1.5 3.2 -2
v 1.5 3.3 -1.6
v 1.5 3.3 -1.9
v 1.5 3.6 -0.9
v 1.5 3.6 -1
v 1.5 3.6 -2
v 1.5 3.6 -2.1
v 1.5 3.7 -0.9
v 1.5 3.7 -1
v 1.5 3.7 -1.9
v 1.5 3.7 -2
v 1.5 3.7 -2.1
v 1.5 3.8 -2
v 1.5 3.8 -2.1
v 1.5 4.5 -1.3
v 1.5 4.5 -1.4
v 1.5 4.5 -1.7
v 1.5 4.5 -1.8
v 1.5 4.6 -1.3
v 1.5 4.6 -1.4
v 1.5 4.6 -1.5
v 1.5 4.6 -1.6
v 1.5 4.6 -1.7
v 1.5 4.6 -1.8
v 1.5 4.7 -1.5
v 1.5 4.7 -1.6
v 1.6 2 -1.9
v 1.6 2 -2.2
v 1.6 2.1 -1.4
v 1.6 2.1 -1.6
v 1.6 2.1 -1.9
v 1.6 2.1 -2.2
v 1.6 3.3 -1.4
v 1.6 3.3 -1.5
v 1.6 3.4 -1.4
v 1.6 3.4 -1.5
v 1.6 3.8 -1.4
v 1.6 3.8 -1.6
v 1.6 4.5 -1.4
v 1.6 4.5 -1.7
v 1.6 4.6 -1.4
v 1.6 4.6 -1.7
v 1.7 2 -1.1
v 1.7 2 -1.5
v 1.7 2 -1.6
v 1.7 2 -1.7
v 1.7 2 -1.8
v 1.7 2 -1.9
v 1.7 2.1 -1.1
v 1.7 2.1 -1.5
v 1.7 2.1 -1.6
v 1.7 2.1 -1.7
v 1.7 2.1 -1.8
v 1.7 2.1 -1.9
v 1.7 3.8 -1.2
v 1.7 3.8 -1.8
v 1.7 3.9 -1.2
v 1.7 3.9 -1.8
v 1.7 4.4 -1.3
v 1.7 4.4 -1.8
v 1.7 4.5 -1.3
v 1.7 4.5 -1.8
v 1.8 2 -1.7
v 1.8 2 -1.8
v 1.8 2.1 -1.7
v 1.8 2.1 -1.8
v 1.8 4.3 -1.2
v 1.8 4.3 -1.9
v 1.8 4.4 -1.2
v 1.8 4.4 -1.9
v 1.9 2 -0.9
v 1.9 2 -1.1
v 1.9 2.1 -0.9
v 1.9 2.1 -1.1
v 1.9 3.3 -1.4
v 1.9 3.3 -1.5
v 1.9 3.6 -1.4
v 1.9 3.6 -1.5
v 1.9 3.7 -1.4
v 1.9 3.7 -1.5
v 1.9 3.9 -1
v 1.9 3.9 -2.1
v 1.9 4.1 -1
v 1.9 4.1 -2.1
v 1.9 4.3 -1
v 1.9 4.3 -2.1
v 2.2 2 -1.5
v 2.2 2 -1.8
v 2.2 2.1 -1.5
v 2.2 2.1 -1.8
v 1.2 2 -0.7
v 1.2 2.1 -0.7
v 1.3 2 -0.7
v 1.3 2.1 -0.7
v 1.3 2 -0.9
v 1.3 2.1 -0.9
v 1.4 2 -0.9
v 1.4 2.1 -0.9
v 1.4 3.1 -0.9
v 1.4 3.6 -0.9
v 1.4 3.7 -0.9
v 1.5 3.1 -0.9
v 1.5 3.6 -0.9
v 1.5 3.7 -0.9
v 1.8 2 -0.9
v 1.8 2.1 -0.9
v 1.9 2 -0.9
v 1.9 2.1 -0.9
v 1 3.9 -1
v 1 4.1 -1
v 1 4.3 -1
v 1.2 2 -1
v 1.2 2.1 -1
v 1.3 2 -1
v 1.3 2.1 -1
v 1.6 2 -1
v 1.6 2.1 -1
v 1.8 2 -1
v 1.8 2.1 -1
v 1.9 3.9 -1
v 1.9 4.1 -1
v 1.9 4.3 -1
v 1.1 2 -1.1
v 1.1 2.1 -1.1
v 1.2 2 -1.1
v 1.2 2.1 -1.1
v 1.3 2 -1.1
v 1.3 2.1 -1.1
v 1.6 2 -1.1
v 1.6 2.1 -1.1
v 1.1 4.3 -1.2
v 1.1 4.4 -1.2
v 1.2 3.8 -1.2
v 1.2 3.9 -1.2
v 1.7 3.8 -1.2
v 1.7 3.9 -1.2
v 1.8 4.3 -1.2
v 1.8 4.4 -1.2
v 1.2 4.4 -1.3
v 1.2 4.5 -1.3
v 1.3 4.4 -1.3
v 1.3 4.5 -1.3
v 1.4 4.4 -1.3
v 1.4 4.5 -1.3
v 1.4 4.6 -1.3
v 1.5 4.4 -1.3
v 1.5 4.5 -1.3
v 1.5 4.6 -1.3
v 1.6 4.4 -1.3
v 1.6 4.5 -1.3
v 1.7 4.4 -1.3
v 1.7 4.5 -1.3
v 1.2 2 -1.4
v 1.2 2.1 -1.4
v 1.3 2.1 -1.4
v 1.3 3.8 -1.4
v 1.3 4.5 -1.4
v 1.3 4.6 -1.4
v 1.4 3.1 -1.4
v 1.4 3.2 -1.4
v 1.4 4.5 -1.4
v 1.4 4.6 -1.4
v 1.5 3.1 -1.4
v 1.5 3.2 -1.4
v 1.5 4.5 -1.4
v 1.5 4.6 -1.4
v 1.6 2 -1.4
v 1.6 2.1 -1.4
v 1.6 3.3 -1.4
v 1.6 3.4 -1.4
v 1.6 3.8 -1.4
v 1.6 4.5 -1.4
v 1.6 4.6 -1.4
v 1.8 3.4 -1.4
v 1.8 3.6 -1.4
v 1.8 3.7 -1.4
v 1.9 3.3 -1.4
v 1.9 3.6 -1.4
v 1.9 3.7 -1.4
v 0.9 2 -1.5
v 0.9 2.1 -1.5
v 1 2 -1.5
v 1 2.1 -1.5
v 1 3.3 -1.5
v 1 3.6 -1.5
v 1 3.7 -1.5
v 1.1 3.4 -1.5
v 1.1 3.6 -1.5
v 1.1 3.7 -1.5
v 1.3 3.3 -1.5
v 1.3 3.4 -1.5
v 1.4 4.6 -1.5
v 1.4 4.7 -1.5
v 1.5 4.6 -1.5
v 1.5 4.7 -1.5
v 1.7 2 -1.5
v 1.7 2.1 -1.5
v 2.2 2 -1.5
v 2.2 2.1 -1.5
v 0.8 2 -1.6
v 0.8 2.1 -1.6
v 0.9 2 -1.6
v 0.9 2.1 -1.6
v 1 2 -1.6
v 1 2.1 -1.6
v 1.2 2 -1.6
v 1.2 2.1 -1.6
v 1.7 2 -1.7
v 1.7 2.1 -1.7
v 1.8 2 -1.7
v 1.8 2.1 -1.7
v 1.5 2 -1.8
v 1.5 2.1 -1.8
v 1.6 2 -1.8
v 1.6 2.1 -1.8
v 1.4 3.3 -1.9
v 1.4 3.7 -1.9
v 1.5 3.3 -1.9
v 1.5 3.7 -1.9
v 1.4 3.7 -2
v 1.4 3.8 -2
v 1.5 3.7 -2
v 1.5 3.8 -2
v 1.2 2 -0.9
v 1.2 2.1 -0.9
v 1.3 2 -0.9
v 1.3 2.1 -0.9
v 1.3 2 -1
v 1.3 2.1 -1
v 1.4 2 -1
v 1.4 2.1 -1
v 1.4 3.2 -1
v 1.4 3.6 -1
v 1.4 3.7 -1
v 1.5 3.2 -1
v 1.5 3.6 -1
v 1.5 3.7 -1
v 1.7 2 -1.1
v 1.7 2.1 -1.1
v 1.9 2 -1.1
v 1.9 2.1 -1.1
v 1.1 2 -1.2
v 1.1 2.1 -1.2
v 1.6 2 -1.2
v 1.6 2.1 -1.2
v 1.6 3.3 -1.5
v 1.6 3.4 -1.5
v 1.8 3.4 -1.5
v 1.8 3.6 -1.5
v 1.8 3.7 -1.5
v 1.9 3.3 -1.5
v 1.9 3.6 -1.5
v 1.9 3.7 -1.5
v 1 3.3 -1.6
v 1 3.6 -1.6
v 1 3.7 -1.6
v 1.1 3.4 -1.6
v 1.1 3.6 -1.6
v 1.1 3.7 -1.6
v 1.3 2 -1.6
v 1.3 2.1 -1.6
v 1.3 3.3 -1.6
v 1.3 3.4 -1.6
v 1.3 3.8 -1.6
v 1.4 3.2 -1.6
v 1.4 3.3 -1.6
v 1.4 4.6 -1.6
v 1.4 4.7 -1.6
v 1.5 3.2 -1.6
v 1.5 3.3 -1.6
v 1.5 4.6 -1.6
v 1.5 4.7 -1.6
v 1.6 2 -1.6
v 1.6 2.1 -1.6
v 1.6 3.8 -1.6
v 1.7 2 -1.6
v 1.7 2.1 -1.6
v 2.1 2 -1.6
v 2.1 2.1 -1.6
v 0.8 2 -1.7
v 0.8 2.1 -1.7
v 1.1 2 -1.7
v 1.1 2.1 -1.7
v 1.2 2 -1.7
v 1.2 2.1 -1.7
v 1.3 2 -1.7
v 1.3 2.1 -1.7
v 1.3 4.5 -1.7
v 1.3 4.6 -1.7
v 1.4 4.5 -1.7
v 1.4 4.6 -1.7
v 1.5 4.5 -1.7
v 1.5 4.6 -1.7
v 1.6 4.5 -1.7
v 1.6 4.6 -1.7
v 1.1 2 -1.8
v 1.1 2.1 -1.8
v 1.2 2 -1.8
v 1.2 2.1 -1.8
v 1.2 3.8 -1.8
v 1.2 3.9 -1.8
v 1.2 4.4 -1.8
v 1.2 4.5 -1.8
v 1.4 4.5 -1.8
v 1.4 4.6 -1.8
v 1.5 4.5 -1.8
v 1.5 4.6 -1.8
v 1.7 2 -1.8
v 1.7 2.1 -1.8
v 1.7 3.8 -1.8
v 1.7 3.9 -1.8
v 1.7 4.4 -1.8
v 1.7 4.5 -1.8
v 1.8 2 -1.8
v 1.8 2.1 -1.8
v 2.1 2 -1.8
v 2.1 2.1 -1.8
v 2.2 2 -1.8
v 2.2 2.1 -1.8
v 1.1 4.3 -1.9
v 1.1 4.4 -1.9
v 1.6 2 -1.9
v 1.6 2.1 -1.9
v 1.7 2 -1.9
v 1.7 2.1 -1.9
v 1.8 4.3 -1.9
v 1.8 4.4 -1.9
v 1.4 3.2 -2
v 1.4 3.6 -2
v 1.5 3.2 -2
v 1.5 3.6 -2
v 1 3.9 -2.1
v 1 4.1 -2.1
v 1 4.3 -2.1
v 1.4 3.6 -2.1
v 1.4 3.7 -2.1
v 1.4 3.8 -2.1
v 1.5 3.6 -2.1
v 1.5 3.7 -2.1
v 1.5 3.8 -2.1
v 1.9 3.9 -2.1
v 1.9 4.1 -2.1
v 1.9 4.3 -2.1
v 1.5 2 -2.2
v 1.5 2.1 -2.2
v 1.6 2 -2.2
v 1.6 2.1 -2.2
v 1.2 2 -0.7
v 1.3 2 -0.7
v 1.2 2 -0.9
v 1.3 2 -0.9
v 1.4 2 -0.9
v 1.8 2 -0.9
v 1.9 2 -0.9
v 1.2 2 -1
v 1.3 2 -1
v 1.4 2 -1
v 1.6 2 -1
v 1.8 2 -1
v 1.1 2 -1.1
v 1.2 2 -1.1
v 1.3 2 -1.1
v 1.6 2 -1.1
v 1.7 2 -1.1
v 1.9 2 -1.1
v 1.1 2 -1.2
v 1.6 2 -1.2
v 1.2 2 -1.4
v 1.6 2 -1.4
v 0.9 2 -1.5
v 1 2 -1.5
v 1.7 2 -1.5
v 2.2 2 -1.5
v 0.8 2 -1.6
v 0.9 2 -1.6
v 1 2 -1.6
v 1.2 2 -1.6
v 1.3 2 -1.6
v 1.6 2 -1.6
v 1.7 2 -1.6
v 2.1 2 -1.6
v 0.8 2 -1.7
v 1.1 2 -1.7
v 1.2 2 -1.7
v 1.3 2 -1.7
v 1.7 2 -1.7
v 1.8 2 -1.7
v 1.1 2 -1.8
v 1.2 2 -1.8
v 1.5 2 -1.8
v 1.6 2 -1.8
v 1.7 2 -1.8
v 1.8 2 -1.8
v 2.1 2 -1.8
v 2.2 2 -1.8
v 1.6 2 -1.9
v 1.7 2 -1.9
v 1.5 2 -2.2
v 1.6 2 -2.2
v 1.4 3.1 -0.9
v 1.5 3.1 -0.9
v 1.4 3.1 -1.4
v 1.5 3.1 -1.4
v 1.4 3.2 -1.6
v 1.5 3.2 -1.6
v 1.4 3.2 -2
v 1.5 3.2 -2
v 1.6 3.3 -1.4
v 1.9 3.3 -1.4
v 1 3.3 -1.5
v 1.3 3.3 -1.5
v 1.6 3.3 -1.5
v 1.9 3.3 -1.5
v 1 3.3 -1.6
v 1.3 3.3 -1.6
v 1.4 3.6 -2
v 1.5 3.6 -2
v 1.4 3.6 -2.1
v 1.5 3.6 -2.1
v 1.2 3.8 -1.2
v 1.7 3.8 -1.2
v 1.3 3.8 -1.4
v 1.6 3.8 -1.4
v 1.3 3.8 -1.6
v 1.6 3.8 -1.6
v 1.2 3.8 -1.8
v 1.7 3.8 -1.8
v 1 3.9 -1
v 1.9 3.9 -1
v 1.2 3.9 -1.2
v 1.7 3.9 -1.2
v 1.2 3.9 -1.8
v 1.7 3.9 -1.8
v 1 3.9 -2.1
v 1.9 3.9 -2.1
v 1.2 2.1 -0.7
v 1.3 2.1 -0.7
v 1.2 2.1 -0.9
v 1.3 2.1 -0.9
v 1.4 2.1 -0.9
v 1.8 2.1 -0.9
v 1.9 2.1 -0.9
v 1.2 2.1 -1
v 1.3 2.1 -1
v 1.4 2.1 -1
v 1.6 2.1 -1
v 1.8 2.1 -1
v 1.1 2.1 -1.1
v 1.2 2.1 -1.1
v 1.3 2.1 -1.1
v 1.6 2.1 -1.1
v 1.7 2.1 -1.1
v 1.9 2.1 -1.1
v 1.1 2.1 -1.2
v 1.6 2.1 -1.2
v 1.2 2.1 -1.4
v 1.3 2.1 -1.4
v 1.6 2.1 -1.4
v 0.9 2.1 -1.5
v 1 2.1 -1.5
v 1.7 2.1 -1.5
v 2.2 2.1 -1.5
v 0.8 2.1 -1.6
v 0.9 2.1 -1.6
v 1 2.1 -1.6
v 1.2 2.1 -1.6
v 1.3 2.1 -1.6
v 1.6 2.1 -1.6
v 1.7 2.1 -1.6
v 2.1 2.1 -1.6
v 0.8 2.1 -1.7
v 1.1 2.1 -1.7
v 1.2 2.1 -1.7
v 1.3 2.1 -1.7
v 1.7 2.1 -1.7
v 1.8 2.1 -1.7
v 1.1 2.1 -1.8
v 1.2 2.1 -1.8
v 1.5 2.1 -1.8
v 1.6 2.1 -1.8
v 1.7 2.1 -1.8
v 1.8 2.1 -1.8
v 2.1 2.1 -1.8
v 2.2 2.1 -1.8
v 1.6 2.1 -1.9
v 1.7 2.1 -1.9
v 1.5 2.1 -2.2
v 1.6 2.1 -2.2
v 1.4 3.2 -1
v 1.5 3.2 -1
v 1.4 3.2 -1.4
v 1.5 3.2 -1.4
v 1.4 3.3 -1.6
v 1.5 3.3 -1.6
v 1.4 3.3 -1.9
v 1.5 3.3 -1.9
v 1.6 3.4 -1.4
v 1.8 3.4 -1.4
v 1.1 3.4 -1.5
v 1.3 3.4 -1.5
v 1.6 3.4 -1.5
v 1.8 3.4 -1.5
v 1.1 3.4 -1.6
v 1.3 3.4 -1.6
v 1.4 3.7 -0.9
v 1.5 3.7 -0.9
v 1.4 3.7 -1
v 1.5 3.7 -1
v 1.8 3.7 -1.4
v 1.9 3.7 -1.4
v 1 3.7 -1.5
v 1.1 3.7 -1.5
v 1.8 3.7 -1.5
v 1.9 3.7 -1.5
v 1 3.7 -1.6
v 1.1 3.7 -1.6
v 1.4 3.7 -1.9
v 1.5 3.7 -1.9
v 1.4 3.7 -2
v 1.5 3.7 -2
v 1.4 3.8 -2
v 1.5 3.8 -2
v 1.4 3.8 -2.1
v 1.5 3.8 -2.1
v 1 4.3 -1
v 1.9 4.3 -1
v 1.1 4.3 -1.2
v 1.8 4.3 -1.2
v 1.1 4.3 -1.9
v 1.8 4.3 -1.9
v 1 4.3 -2.1
v 1.9 4.3 -2.1
v 1.1 4.4 -1.2
v 1.8 4.4 -1.2
v 1.2 4.4 -1.3
v 1.3 4.4 -1.3
v 1.4 4.4 -1.3
v 1.5 4.4 -1.3
v 1.6 4.4 -1.3
v 1.7 4.4 -1.3
v 1.2 4.4 -1.8
v 1.7 4.4 -1.8
v 1.1 4.4 -1.9
v 1.8 4.4 -1.9
v 1.2 4.5 -1.3
v 1.3 4.5 -1.3
v 1.4 4.5 -1.3
v 1.5 4.5 -1.3
v 1.6 4.5 -1.3
v 1.7 4.5 -1.3
v 1.3 4.5 -1.4
v 1.4 4.5 -1.4
v 1.5 4.5 -1.4
v 1.6 4.5 -1.4
v 1.3 4.5 -1.7
v 1.4 4.5 -1.7
v 1.5 4.5 -1.7
v 1.6 4.5 -1.7
v 1.2 4.5 -1.8
v 1.4 4.5 -1.8
v 1.5 4.5 -1.8
v 1.7 4.5 -1.8
v 1.4 4.6 -1.3
v 1.5 4.6 -1.3
v 1.3 4.6 -1.4
v 1.4 4.6 -1.4
v 1.5 4.6 -1.4
v 1.6 4.6 -1.4
v 1.4 4.6 -1.5
v 1.5 4.6 -1.5
v 1.4 4.6 -1.6
v 1.5 4.6 -1.6
v 1.3 4.6 -1.7
v 1.4 4.6 -1.7
v 1.5 4.6 -1.7
v 1.6 4.6 -1.7
v 1.4 4.6 -1.8
v 1.5 4.6 -1.8
v 1.4 4.7 -1.5
v 1.5 4.7 -1.5
v 1.4 4.7 -1.6
v 1.5 4.7 -1.6

# faces
f 3/2/1 2/2/1 1/2/1
f 4/2/1 2/2/1 3/2/1
f 7/2/1 6/2/1 5/2/1
f 8/2/1 6/2/1 7/2/1
f 11/3/1 10/3/1 9/3/1
f 12/3/1 10/3/1 11/3/1
f 13/4/1 12/4/1 11/4/1
f 14/4/1 12/4/1 13/4/1
f 17/8/1 16/8/1 15/8/1
f 18/8/1 16/8/1 17/8/1
f 19/10/1 18/10/1 17/10/1
f 20/10/1 18/10/1 19/10/1
f 25/2/1 22/2/1 21/2/1
f 26/2/1 22/2/1 25/2/1
f 27/2/1 24/2/1 23/2/1
f 28/2/1 24/2/1 27/2/1
f 31/3/1 30/3/1 29/3/1
f 32/3/1 30/3/1 31/3/1
f 39/2/1 34/2/1 33/2/1
f 40/2/1 34/2/1 39/2/1
f 41/2/1 36/2/1 35/2/1
f 42/2/1 36/2/1 41/2/1
f 43/2/1 38/2/1 37/2/1
f 44/2/1 38/2/1 43/2/1
f 47/9/1 46/9/1 45/9/1
f 48/9/1 46/9/1 47/9/1
f 51/7/1 50/7/1 49/7/1
f 52/7/1 50/7/1 51/7/1
f 55/2/1 54/2/1 53/2/1
f 56/2/1 54/2/1 55/2/1
f 59/2/1 58/2/1 57/2/1
f 60/2/1 58/2/1 59/2/1
f 61/2/1 59/2/1 57/2/1
f 63/2/1 61/2/1 57/2/1
f 63/2/1 62/2/1 61/2/1
f 64/2/1 62/2/1 63/2/1
f 67/1/1 66/1/1 65/1/1
f 68/1/1 66/1/1 67/1/1
f 71/7/1 70/7/1 69/7/1
f 72/7/1 70/7/1 71/7/1
f 75/6/1 74/6/1 73/6/1
f 76/6/1 74/6/1 75/6/1
f 77/7/1 71/7/1 69/7/1
f 78/7/1 71/7/1 77/7/1
f 79/6/1 74/6/1 76/6/1
f 81/1/1 78/1/1 77/1/1
f 82/1/1 78/1/1 81/1/1
f 83/6/1 80/6/1 79/6/1
f 83/6/1 79/6/1 76/6/1
f 84/6/1 80/6/1 83/6/1
f 85/6/1 80/6/1 84/6/1
f 86/1/1 85/1/1 84/1/1
f 87/1/1 85/1/1 86/1/1
f 92/1/1 89/1/1 88/1/1
f 93/1/1 89/1/1 92/1/1
f 96/1/1 91/1/1 90/1/1
f 97/1/1 91/1/1 96/1/1
f 98/4/1 95/4/1 94/4/1
f 99/4/1 95/4/1 98/4/1
f 102/2/1 101/2/1 100/2/1
f 103/2/1 101/2/1 102/2/1
f 110/2/1 105/2/1 104/2/1
f 111/2/1 105/2/1 110/2/1
f 112/2/1 107/2/1 106/2/1
f 113/2/1 107/2/1 112/2/1
f 114/2/1 109/2/1 108/2/1
f 115/2/1 109/2/1 114/2/1
f 118/2/1 117/2/1 116/2/1
f 119/2/1 117/2/1 118/2/1
f 122/3/1 121/3/1 120/3/1
f 123/3/1 121/3/1 122/3/1
f 124/4/1 123/4/1 122/4/1
f 125/4/1 123/4/1 124/4/1
f 128/2/1 127/2/1 126/2/1
f 129/2/1 127/2/1 128/2/1
f 130/2/2 131/2/2 132/2/2
f 132/2/2 131/2/2 133/2/2
f 134/3/2 135/3/2 136/3/2
f 136/3/2 135/3/2 137/3/2
f 136/4/2 137/4/2 138/4/2
f 138/4/2 137/4/2 139/4/2
f 140/2/2 141/2/2 142/2/2
f 142/2/2 141/2/2 143/2/2
f 144/2/2 145/2/2 150/2/2
f 150/2/2 145/2/2 151/2/2
f 146/2/2 147/2/2 152/2/2
f 152/2/2 147/2/2 153/2/2
f 148/2/2 149/2/2 154/2/2
f 154/2/2 149/2/2 155/2/2
f 156/2/2 157/2/2 158/2/2
f 158/2/2 157/2/2 159/2/2
f 160/7/2 161/7/2 162/7/2
f 162/7/2 161/7/2 163/7/2
f 164/6/2 165/6/2 166/6/2
f 166/6/2 165/6/2 167/6/2
f 160/7/2 162/7/2 168/7/2
f 168/7/2 162/7/2 169/7/2
f 167/6/2 165/6/2 170/6/2
f 168/1/2 169/1/2 172/1/2
f 172/1/2 169/1/2 173/1/2
f 170/6/2 171/6/2 174/6/2
f 167/6/2 170/6/2 174/6/2
f 174/6/2 171/6/2 175/6/2
f 175/6/2 171/6/2 176/6/2
f 175/1/2 176/1/2 177/1/2
f 177/1/2 176/1/2 178/1/2
f 179/1/2 180/1/2 183/1/2
f 183/1/2 180/1/2 184/1/2
f 181/1/2 182/1/2 187/1/2
f 187/1/2 182/1/2 188/1/2
f 185/4/2 186/4/2 189/4/2
f 189/4/2 186/4/2 190/4/2
f 191/2/2 192/2/2 195/2/2
f 195/2/2 192/2/2 196/2/2
f 193/2/2 194/2/2 197/2/2
f 197/2/2 194/2/2 198/2/2
f 198/2/2 194/2/2 200/2/2
f 199/2/2 200/2/2 201/2/2
f 200/2/2 194/2/2 202/2/2
f 201/2/2 200/2/2 202/2/2
f 203/1/2 204/1/2 205/1/2
f 205/1/2 204/1/2 206/1/2
f 207/2/2 208/2/2 213/2/2
f 213/2/2 208/2/2 214/2/2
f 209/2/2 210/2/2 215/2/2
f 215/2/2 210/2/2 216/2/2
f 211/2/2 212/2/2 217/2/2
f 217/2/2 212/2/2 218/2/2
f 219/9/2 220/9/2 221/9/2
f 221/9/2 220/9/2 222/9/2
f 223/7/2 224/7/2 225/7/2
f 225/7/2 224/7/2 226/7/2
f 227/2/2 228/2/2 229/2/2
f 229/2/2 228/2/2 230/2/2
f 231/3/2 232/3/2 233/3/2
f 233/3/2 232/3/2 234/3/2
f 235/2/2 236/2/2 237/2/2
f 237/2/2 236/2/2 238/2/2
f 239/3/2 240/3/2 241/3/2
f 241/3/2 240/3/2 242/3/2
f 241/4/2 242/4/2 243/4/2
f 243/4/2 242/4/2 244/4/2
f 245/8/2 246/8/2 247/8/2
f 247/8/2 246/8/2 248/8/2
f 247/10/2 248/10/2 249/10/2
f 249/10/2 248/10/2 250/10/2
f 251/2/2 252/2/2 253/2/2
f 253/2/2 252/2/2 254/2/2
f 257/2/3 256/2/3 255/2/3
f 258/2/3 256/2/3 257/2/3
f 261/2/3 260/2/3 259/2/3
f 262/2/3 260/2/3 261/2/3
f 266/7/3 264/7/3 263/7/3
f 267/1/3 265/1/3 264/1/3
f 267/7/3 264/7/3 266/7/3
f 268/1/3 265/1/3 267/1/3
f 271/2/3 270/2/3 269/2/3
f 272/2/3 270/2/3 271/2/3
f 278/2/3 277/2/3 276/2/3
f 279/2/3 277/2/3 278/2/3
f 282/2/3 281/2/3 280/2/3
f 283/2/3 281/2/3 282/2/3
f 284/8/3 274/8/3 273/8/3
f 285/10/3 275/10/3 274/10/3
f 285/8/3 274/8/3 284/8/3
f 286/10/3 275/10/3 285/10/3
f 289/2/3 288/2/3 287/2/3
f 290/2/3 288/2/3 289/2/3
f 293/2/3 292/2/3 291/2/3
f 294/2/3 292/2/3 293/2/3
f 299/9/3 298/9/3 297/9/3
f 300/9/3 298/9/3 299/9/3
f 301/3/3 296/3/3 295/3/3
f 302/3/3 296/3/3 301/3/3
f 305/7/3 304/7/3 303/7/3
f 306/7/3 304/7/3 305/7/3
f 307/5/3 306/5/3 305/5/3
f 308/5/3 306/5/3 307/5/3
f 310/7/3 308/7/3 307/7/3
f 311/1/3 309/1/3 308/1/3
f 311/7/3 308/7/3 310/7/3
f 312/1/3 309/1/3 311/1/3
f 313/5/3 311/5/3 310/5/3
f 314/5/3 311/5/3 313/5/3
f 315/7/3 314/7/3 313/7/3
f 316/7/3 314/7/3 315/7/3
f 319/2/3 318/2/3 317/2/3
f 323/2/3 320/2/3 319/2/3
f 324/2/3 320/2/3 323/2/3
f 325/1/3 322/1/3 321/1/3
f 326/1/3 322/1/3 325/1/3
f 327/2/3 323/2/3 319/2/3
f 328/2/3 320/2/3 324/2/3
f 331/2/3 319/2/3 317/2/3
f 331/2/3 327/2/3 319/2/3
f 331/2/3 328/2/3 327/2/3
f 332/2/3 328/2/3 331/2/3
f 333/2/3 320/2/3 328/2/3
f 333/2/3 328/2/3 332/2/3
f 334/2/3 320/2/3 333/2/3
f 335/2/3 320/2/3 334/2/3
f 336/1/3 330/1/3 329/1/3
f 337/1/3 330/1/3 336/1/3
f 338/3/3 334/3/3 333/3/3
f 341/3/3 338/3/3 333/3/3
f 341/3/3 339/3/3 338/3/3
f 342/4/3 340/4/3 339/4/3
f 342/3/3 339/3/3 341/3/3
f 343/4/3 340/4/3 342/4/3
f 346/2/3 345/2/3 344/2/3
f 347/2/3 345/2/3 346/2/3
f 351/3/3 349/3/3 348/3/3
f 352/4/3 350/4/3 349/4/3
f 352/3/3 349/3/3 351/3/3
f 353/4/3 350/4/3 352/4/3
f 354/3/3 351/3/3 348/3/3
f 355/3/3 351/3/3 354/3/3
f 358/4/3 357/4/3 356/4/3
f 359/4/3 357/4/3 358/4/3
f 362/2/3 361/2/3 360/2/3
f 363/2/3 361/2/3 362/2/3
f 366/2/3 365/2/3 364/2/3
f 367/2/3 365/2/3 366/2/3
f 370/2/3 369/2/3 368/2/3
f 371/2/3 369/2/3 370/2/3
f 374/2/3 373/2/3 372/2/3
f 375/2/3 373/2/3 374/2/3
f 378/2/3 377/2/3 376/2/3
f 379/2/3 377/2/3 378/2/3
f 382/6/3 381/6/3 380/6/3
f 383/6/3 381/6/3 382/6/3
f 386/1/3 385/1/3 384/1/3
f 387/1/3 385/1/3 386/1/3
f 388/2/4 389/2/4 390/2/4
f 390/2/4 389/2/4 391/2/4
f 392/2/4 393/2/4 394/2/4
f 394/2/4 393/2/4 395/2/4
f 396/7/4 397/7/4 399/7/4
f 397/1/4 398/1/4 400/1/4
f 399/7/4 397/7/4 400/7/4
f 400/1/4 398/1/4 401/1/4
f 402/2/4 403/2/4 404/2/4
f 404/2/4 403/2/4 405/2/4
f 406/2/4 407/2/4 408/2/4
f 408/2/4 407/2/4 409/2/4
f 410/3/4 411/3/4 412/3/4
f 410/3/4 412/3/4 415/3/4
f 412/3/4 413/3/4 415/3/4
f 413/4/4 414/4/4 416/4/4
f 415/3/4 413/3/4 416/3/4
f 416/4/4 414/4/4 417/4/4
f 418/3/4 419/3/4 421/3/4
f 419/4/4 420/4/4 422/4/4
f 421/3/4 419/3/4 422/3/4
f 422/4/4 420/4/4 423/4/4
f 418/3/4 421/3/4 426/3/4
f 426/3/4 421/3/4 427/3/4
f 424/2/4 425/2/4 429/2/4
f 427/2/4 428/2/4 429/2/4
f 425/2/4 426/2/4 429/2/4
f 426/2/4 427/2/4 429/2/4
f 429/2/4 428/2/4 430/2/4
f 424/2/4 429/2/4 433/2/4
f 430/2/4 428/2/4 434/2/4
f 431/4/4 432/4/4 435/4/4
f 435/4/4 432/4/4 436/4/4
f 433/2/4 434/2/4 437/2/4
f 424/2/4 433/2/4 437/2/4
f 437/2/4 434/2/4 438/2/4
f 434/2/4 428/2/4 439/2/4
f 438/2/4 434/2/4 439/2/4
f 440/2/4 441/2/4 442/2/4
f 442/2/4 441/2/4 443/2/4
f 444/2/4 445/2/4 446/2/4
f 446/2/4 445/2/4 447/2/4
f 448/2/4 449/2/4 450/2/4
f 450/2/4 449/2/4 451/2/4
f 452/1/4 453/1/4 454/1/4
f 454/1/4 453/1/4 455/1/4
f 456/1/4 457/1/4 458/1/4
f 458/1/4 457/1/4 459/1/4
f 460/2/4 461/2/4 462/2/4
f 462/2/4 461/2/4 463/2/4
f 466/7/4 467/7/4 468/7/4
f 466/7/4 468/7/4 470/7/4
f 468/1/4 469/1/4 470/1/4
f 470/1/4 469/1/4 471/1/4
f 464/9/4 465/9/4 474/9/4
f 474/9/4 465/9/4 475/9/4
f 466/7/4 470/7/4 476/7/4
f 476/7/4 470/7/4 477/7/4
f 472/2/4 473/2/4 478/2/4
f 478/2/4 473/2/4 479/2/4
f 480/2/4 481/2/4 482/2/4
f 482/2/4 481/2/4 483/2/4
f 486/2/4 487/2/4 488/2/4
f 488/2/4 487/2/4 489/2/4
f 484/3/4 485/3/4 490/3/4
f 490/3/4 485/3/4 491/3/4
f 492/6/4 493/6/4 494/6/4
f 494/6/4 493/6/4 495/6/4
f 499/6/4 500/6/4 502/6/4
f 500/1/4 501/1/4 503/1/4
f 502/6/4 500/6/4 503/6/4
f 503/1/4 501/1/4 504/1/4
f 496/8/4 497/8/4 505/8/4
f 497/10/4 498/10/4 506/10/4
f 505/8/4 497/8/4 506/8/4
f 506/10/4 498/10/4 507/10/4
f 508/2/4 509/2/4 510/2/4
f 510/2/4 509/2/4 511/2/4
f 514/2/5 513/2/5 512/2/5
f 515/2/5 513/2/5 514/2/5
f 520/2/5 516/2/5 515/2/5
f 521/2/5 516/2/5 520/2/5
f 523/2/5 518/2/5 517/2/5
f 525/2/5 520/2/5 519/2/5
f 526/2/5 520/2/5 525/2/5
f 527/2/5 523/2/5 522/2/5
f 528/2/5 523/2/5 527/2/5
f 529/2/5 518/2/5 523/2/5
f 529/2/5 523/2/5 528/2/5
f 530/2/5 526/2/5 525/2/5
f 530/2/5 528/2/5 527/2/5
f 530/2/5 527/2/5 526/2/5
f 530/2/5 525/2/5 524/2/5
f 531/2/5 528/2/5 530/2/5
f 533/2/5 528/2/5 531/2/5
f 536/2/5 528/2/5 533/2/5
f 536/2/5 533/2/5 532/2/5
f 539/2/5 535/2/5 534/2/5
f 540/2/5 535/2/5 539/2/5
f 541/2/5 536/2/5 532/2/5
f 541/2/5 537/2/5 536/2/5
f 542/2/5 537/2/5 541/2/5
f 543/2/5 537/2/5 542/2/5
f 544/2/5 537/2/5 543/2/5
f 545/2/5 537/2/5 544/2/5
f 546/2/5 540/2/5 539/2/5
f 546/2/5 539/2/5 538/2/5
f 546/2/5 541/2/5 540/2/5
f 546/2/5 542/2/5 541/2/5
f 547/2/5 542/2/5 546/2/5
f 548/2/5 542/2/5 547/2/5
f 549/2/5 542/2/5 548/2/5
f 550/2/5 544/2/5 543/2/5
f 552/2/5 548/2/5 547/2/5
f 553/2/5 548/2/5 552/2/5
f 555/2/5 551/2/5 550/2/5
f 555/2/5 550/2/5 543/2/5
f 556/2/5 551/2/5 555/2/5
f 557/2/5 551/2/5 556/2/5
f 558/2/5 537/2/5 545/2/5
f 559/2/5 537/2/5 558/2/5
f 560/2/5 555/2/5 554/2/5
f 560/2/5 556/2/5 555/2/5
f 561/2/5 556/2/5 560/2/5
f 562/2/5 560/2/5 554/2/5
f 563/2/5 560/2/5 562/2/5
f 566/7/5 565/7/5 564/7/5
f 567/7/5 565/7/5 566/7/5
f 570/6/5 569/6/5 568/6/5
f 571/6/5 569/6/5 570/6/5
f 576/3/5 573/3/5 572/3/5
f 577/3/5 573/3/5 576/3/5
f 578/3/5 575/3/5 574/3/5
f 579/3/5 575/3/5 578/3/5
f 582/6/5 581/6/5 580/6/5
f 583/6/5 581/6/5 582/6/5
f 586/9/5 585/9/5 584/9/5
f 587/9/5 585/9/5 586/9/5
f 588/9/5 586/9/5 584/9/5
f 589/9/5 585/9/5 587/9/5
f 590/9/5 588/9/5 584/9/5
f 590/9/5 589/9/5 588/9/5
f 591/9/5 585/9/5 589/9/5
f 591/9/5 589/9/5 590/9/5
f 594/8/5 593/8/5 592/8/5
f 595/8/5 593/8/5 594/8/5
f 596/8/5 594/8/5 592/8/5
f 597/8/5 593/8/5 595/8/5
f 598/8/5 596/8/5 592/8/5
f 598/8/5 597/8/5 596/8/5
f 599/8/5 593/8/5 597/8/5
f 599/8/5 597/8/5 598/8/5
f 600/2/6 601/2/6 602/2/6
f 602/2/6 601/2/6 603/2/6
f 603/2/6 604/2/6 608/2/6
f 608/2/6 604/2/6 609/2/6
f 605/2/6 606/2/6 611/2/6
f 607/2/6 608/2/6 613/2/6
f 613/2/6 608/2/6 614/2/6
f 610/2/6 611/2/6 615/2/6
f 615/2/6 611/2/6 616/2/6
f 611/2/6 606/2/6 617/2/6
f 616/2/6 611/2/6 617/2/6
f 613/2/6 614/2/6 618/2/6
f 615/2/6 616/2/6 618/2/6
f 614/2/6 615/2/6 618/2/6
f 612/2/6 613/2/6 618/2/6
f 618/2/6 616/2/6 619/2/6
f 619/2/6 616/2/6 622/2/6
f 622/2/6 616/2/6 625/2/6
f 623/2/6 624/2/6 628/2/6
f 628/2/6 624/2/6 629/2/6
f 620/2/6 621/2/6 630/2/6
f 630/2/6 621/2/6 631/2/6
f 622/2/6 625/2/6 632/2/6
f 625/2/6 626/2/6 632/2/6
f 632/2/6 626/2/6 633/2/6
f 633/2/6 626/2/6 634/2/6
f 630/2/6 631/2/6 635/2/6
f 628/2/6 629/2/6 635/2/6
f 629/2/6 630/2/6 635/2/6
f 627/2/6 628/2/6 635/2/6
f 635/2/6 631/2/6 636/2/6
f 636/2/6 631/2/6 637/2/6
f 637/2/6 631/2/6 638/2/6
f 632/2/6 633/2/6 639/2/6
f 636/2/6 637/2/6 641/2/6
f 641/2/6 637/2/6 642/2/6
f 639/2/6 640/2/6 644/2/6
f 632/2/6 639/2/6 644/2/6
f 644/2/6 640/2/6 645/2/6
f 645/2/6 640/2/6 646/2/6
f 634/2/6 626/2/6 647/2/6
f 647/2/6 626/2/6 648/2/6
f 643/2/6 644/2/6 649/2/6
f 644/2/6 645/2/6 649/2/6
f 649/2/6 645/2/6 650/2/6
f 643/2/6 649/2/6 651/2/6
f 651/2/6 649/2/6 652/2/6
f 653/7/6 654/7/6 655/7/6
f 655/7/6 654/7/6 656/7/6
f 657/6/6 658/6/6 659/6/6
f 659/6/6 658/6/6 660/6/6
f 661/3/6 662/3/6 665/3/6
f 665/3/6 662/3/6 666/3/6
f 663/3/6 664/3/6 667/3/6
f 667/3/6 664/3/6 668/3/6
f 669/1/6 670/1/6 671/1/6
f 671/1/6 670/1/6 672/1/6
f 673/4/6 674/4/6 677/4/6
f 677/4/6 674/4/6 678/4/6
f 675/4/6 676/4/6 679/4/6
f 679/4/6 676/4/6 680/4/6
f 681/6/6 682/6/6 683/6/6
f 683/6/6 682/6/6 684/6/6
f 685/1/6 686/1/6 687/1/6
f 687/1/6 686/1/6 688/1/6
f 689/10/6 690/10/6 691/10/6
f 691/10/6 690/10/6 692/10/6
f 689/10/6 691/10/6 693/10/6
f 692/10/6 690/10/6 694/10/6
f 689/10/6 693/10/6 695/10/6
f 693/10/6 694/10/6 695/10/6
f 694/10/6 690/10/6 696/10/6
f 695/10/6 694/10/6 696/10/6
f 697/3/6 698/3/6 699/3/6
f 699/3/6 698/3/6 700/3/6
f 700/3/6 698/3/6 701/3/6
f 701/3/6 698/3/6 702/3/6
f 702/3/6 698/3/6 703/3/6
f 703/3/6 698/3/6 704/3/6
f 697/3/6 699/3/6 705/3/6
f 704/3/6 698/3/6 706/3/6
f 697/3/6 705/3/6 707/3/6
f 705/3/6 706/3/6 707/3/6
f 706/3/6 698/3/6 708/3/6
f 707/3/6 706/3/6 708/3/6
f 709/7/6 710/7/6 715/7/6
f 710/5/6 711/5/6 715/5/6
f 715/5/6 711/5/6 716/5/6
f 712/5/6 713/5/6 717/5/6
f 713/7/6 714/7/6 718/7/6
f 717/5/6 713/5/6 718/5/6
f 709/7/6 715/7/6 719/7/6
f 718/7/6 714/7/6 722/7/6
f 719/7/6 720/7/6 723/7/6
f 709/7/6 719/7/6 723/7/6
f 723/7/6 720/7/6 724/7/6
f 721/7/6 722/7/6 725/7/6
f 722/7/6 714/7/6 726/7/6
f 725/7/6 722/7/6 726/7/6
f 727/1/6 728/1/6 730/1/6
f 730/1/6 728/1/6 731/1/6
f 729/1/6 730/1/6 733/1/6
f 731/1/6 732/1/6 733/1/6
f 730/1/6 731/1/6 733/1/6
f 733/1/6 732/1/6 734/1/6
f 729/1/6 733/1/6 735/1/6
f 734/1/6 732/1/6 736/1/6
f 729/1/6 735/1/6 737/1/6
f 735/1/6 736/1/6 737/1/6
f 737/1/6 736/1/6 738/1/6
f 736/1/6 732/1/6 739/1/6
f 738/1/6 736/1/6 739/1/6
f 739/1/6 732/1/6 740/1/6
f 738/1/6 739/1/6 741/1/6
f 741/1/6 739/1/6 742/1/6
f 743/4/6 744/4/6 745/4/6
f 745/4/6 744/4/6 746/4/6
