# MagicaVoxel @ Ephtracy

# group
o 

# material
mtllib honeycrystalingredient.mtl
usemtl palette

# normals
vn -1 0 0
vn 1 0 0
vn 0 0 1
vn 0 0 -1
vn 0 -1 0
vn 0 1 0

# texcoords
vt 0.412109 0.5
vt 0.416016 0.5
vt 0.427734 0.5

# verts
v 0 2.4 -0.2
v 0 2.4 -0.3
v 0 2.4 -0.5
v 0 2.4 -0.6
v 0 2.5 -0.1
v 0 2.5 -0.2
v 0 2.5 -0.3
v 0 2.5 -0.5
v 0 2.5 -0.6
v 0 2.5 -0.7
v 0 2.6 -0.1
v 0 2.6 -0.2
v 0 2.6 -0.6
v 0 2.6 -0.7
v 0.1 2.2 -0.3
v 0.1 2.2 -0.4
v 0.1 2.2 -0.5
v 0.1 2.3 -0.2
v 0.1 2.3 -0.3
v 0.1 2.3 -0.4
v 0.1 2.3 -0.5
v 0.1 2.3 -0.6
v 0.1 2.4 -0.1
v 0.1 2.4 -0.2
v 0.1 2.4 -0.3
v 0.1 2.4 -0.5
v 0.1 2.4 -0.6
v 0.1 2.4 -0.7
v 0.1 2.5 0
v 0.1 2.5 -0.1
v 0.1 2.5 -0.2
v 0.1 2.5 -0.6
v 0.1 2.5 -0.7
v 0.1 2.5 -0.8
v 0.1 2.6 0
v 0.1 2.6 -0.1
v 0.1 2.6 -0.2
v 0.1 2.6 -0.3
v 0.1 2.6 -0.5
v 0.1 2.6 -0.6
v 0.1 2.6 -0.7
v 0.1 2.6 -0.8
v 0.1 2.7 -0.2
v 0.1 2.7 -0.3
v 0.1 2.7 -0.5
v 0.1 2.7 -0.6
v 0.2 2.1 -0.3
v 0.2 2.1 -0.4
v 0.2 2.1 -0.5
v 0.2 2.2 -0.2
v 0.2 2.2 -0.3
v 0.2 2.2 -0.4
v 0.2 2.2 -0.5
v 0.2 2.2 -0.6
v 0.2 2.3 -0.1
v 0.2 2.3 -0.2
v 0.2 2.3 -0.3
v 0.2 2.3 -0.5
v 0.2 2.3 -0.6
v 0.2 2.3 -0.7
v 0.2 2.4 0
v 0.2 2.4 -0.1
v 0.2 2.4 -0.2
v 0.2 2.4 -0.6
v 0.2 2.4 -0.7
v 0.2 2.4 -0.8
v 0.2 2.5 0
v 0.2 2.5 -0.1
v 0.2 2.5 -0.7
v 0.2 2.5 -0.8
v 0.2 2.6 -0.1
v 0.2 2.6 -0.2
v 0.2 2.6 -0.6
v 0.2 2.6 -0.7
v 0.2 2.7 -0.1
v 0.2 2.7 -0.2
v 0.2 2.7 -0.3
v 0.2 2.7 -0.4
v 0.2 2.7 -0.5
v 0.2 2.7 -0.6
v 0.2 2.7 -0.7
v 0.2 2.8 -0.3
v 0.2 2.8 -0.4
v 0.2 2.8 -0.5
v 0.3 2 -0.3
v 0.3 2 -0.5
v 0.3 2.1 -0.2
v 0.3 2.1 -0.3
v 0.3 2.1 -0.4
v 0.3 2.1 -0.5
v 0.3 2.1 -0.6
v 0.3 2.2 -0.1
v 0.3 2.2 -0.2
v 0.3 2.2 -0.3
v 0.3 2.2 -0.5
v 0.3 2.2 -0.6
v 0.3 2.2 -0.7
v 0.3 2.3 -0.1
v 0.3 2.3 -0.2
v 0.3 2.3 -0.6
v 0.3 2.3 -0.7
v 0.3 2.7 -0.2
v 0.3 2.7 -0.3
v 0.3 2.7 -0.5
v 0.3 2.7 -0.6
v 0.3 2.8 -0.2
v 0.3 2.8 -0.3
v 0.3 2.8 -0.5
v 0.3 2.8 -0.6
v 0.5 2 -0.3
v 0.5 2 -0.5
v 0.5 2.1 -0.2
v 0.5 2.1 -0.3
v 0.5 2.1 -0.4
v 0.5 2.1 -0.5
v 0.5 2.1 -0.6
v 0.5 2.2 -0.1
v 0.5 2.2 -0.2
v 0.5 2.2 -0.3
v 0.5 2.2 -0.5
v 0.5 2.2 -0.6
v 0.5 2.2 -0.7
v 0.5 2.3 -0.1
v 0.5 2.3 -0.2
v 0.5 2.3 -0.6
v 0.5 2.3 -0.7
v 0.5 2.7 -0.2
v 0.5 2.7 -0.3
v 0.5 2.7 -0.5
v 0.5 2.7 -0.6
v 0.5 2.8 -0.2
v 0.5 2.8 -0.3
v 0.5 2.8 -0.5
v 0.5 2.8 -0.6
v 0.6 2.1 -0.3
v 0.6 2.1 -0.4
v 0.6 2.1 -0.5
v 0.6 2.2 -0.2
v 0.6 2.2 -0.3
v 0.6 2.2 -0.4
v 0.6 2.2 -0.5
v 0.6 2.2 -0.6
v 0.6 2.3 -0.1
v 0.6 2.3 -0.2
v 0.6 2.3 -0.3
v 0.6 2.3 -0.5
v 0.6 2.3 -0.6
v 0.6 2.3 -0.7
v 0.6 2.4 0
v 0.6 2.4 -0.1
v 0.6 2.4 -0.2
v 0.6 2.4 -0.6
v 0.6 2.4 -0.7
v 0.6 2.4 -0.8
v 0.6 2.5 0
v 0.6 2.5 -0.1
v 0.6 2.5 -0.7
v 0.6 2.5 -0.8
v 0.6 2.6 -0.1
v 0.6 2.6 -0.2
v 0.6 2.6 -0.6
v 0.6 2.6 -0.7
v 0.6 2.7 -0.1
v 0.6 2.7 -0.2
v 0.6 2.7 -0.3
v 0.6 2.7 -0.4
v 0.6 2.7 -0.5
v 0.6 2.7 -0.6
v 0.6 2.7 -0.7
v 0.6 2.8 -0.3
v 0.6 2.8 -0.4
v 0.6 2.8 -0.5
v 0.7 2.2 -0.3
v 0.7 2.2 -0.4
v 0.7 2.2 -0.5
v 0.7 2.3 -0.2
v 0.7 2.3 -0.3
v 0.7 2.3 -0.4
v 0.7 2.3 -0.5
v 0.7 2.3 -0.6
v 0.7 2.4 -0.1
v 0.7 2.4 -0.2
v 0.7 2.4 -0.3
v 0.7 2.4 -0.5
v 0.7 2.4 -0.6
v 0.7 2.4 -0.7
v 0.7 2.5 0
v 0.7 2.5 -0.1
v 0.7 2.5 -0.2
v 0.7 2.5 -0.6
v 0.7 2.5 -0.7
v 0.7 2.5 -0.8
v 0.7 2.6 0
v 0.7 2.6 -0.1
v 0.7 2.6 -0.2
v 0.7 2.6 -0.3
v 0.7 2.6 -0.5
v 0.7 2.6 -0.6
v 0.7 2.6 -0.7
v 0.7 2.6 -0.8
v 0.7 2.7 -0.2
v 0.7 2.7 -0.3
v 0.7 2.7 -0.5
v 0.7 2.7 -0.6
v 0.8 2.4 -0.2
v 0.8 2.4 -0.3
v 0.8 2.4 -0.5
v 0.8 2.4 -0.6
v 0.8 2.5 -0.1
v 0.8 2.5 -0.2
v 0.8 2.5 -0.3
v 0.8 2.5 -0.5
v 0.8 2.5 -0.6
v 0.8 2.5 -0.7
v 0.8 2.6 -0.1
v 0.8 2.6 -0.2
v 0.8 2.6 -0.6
v 0.8 2.6 -0.7
v 0.1 2.5 0
v 0.1 2.6 0
v 0.2 2.4 0
v 0.2 2.5 0
v 0.2 2.6 0
v 0.3 2.4 0
v 0.3 2.5 0
v 0.5 2.4 0
v 0.5 2.5 0
v 0.6 2.4 0
v 0.6 2.5 0
v 0.6 2.6 0
v 0.7 2.5 0
v 0.7 2.6 0
v 0 2.5 -0.1
v 0 2.6 -0.1
v 0.1 2.4 -0.1
v 0.1 2.5 -0.1
v 0.1 2.6 -0.1
v 0.2 2.3 -0.1
v 0.2 2.4 -0.1
v 0.2 2.5 -0.1
v 0.2 2.6 -0.1
v 0.2 2.7 -0.1
v 0.3 2.2 -0.1
v 0.3 2.3 -0.1
v 0.3 2.4 -0.1
v 0.3 2.6 -0.1
v 0.3 2.7 -0.1
v 0.4 2.2 -0.1
v 0.4 2.3 -0.1
v 0.5 2.2 -0.1
v 0.5 2.3 -0.1
v 0.5 2.4 -0.1
v 0.5 2.6 -0.1
v 0.5 2.7 -0.1
v 0.6 2.3 -0.1
v 0.6 2.4 -0.1
v 0.6 2.5 -0.1
v 0.6 2.6 -0.1
v 0.6 2.7 -0.1
v 0.7 2.4 -0.1
v 0.7 2.5 -0.1
v 0.7 2.6 -0.1
v 0.8 2.5 -0.1
v 0.8 2.6 -0.1
v 0 2.4 -0.2
v 0 2.5 -0.2
v 0.1 2.3 -0.2
v 0.1 2.4 -0.2
v 0.1 2.5 -0.2
v 0.1 2.6 -0.2
v 0.1 2.7 -0.2
v 0.2 2.2 -0.2
v 0.2 2.3 -0.2
v 0.2 2.4 -0.2
v 0.2 2.6 -0.2
v 0.2 2.7 -0.2
v 0.3 2.1 -0.2
v 0.3 2.2 -0.2
v 0.3 2.3 -0.2
v 0.3 2.7 -0.2
v 0.3 2.8 -0.2
v 0.4 2.1 -0.2
v 0.4 2.2 -0.2
v 0.4 2.7 -0.2
v 0.4 2.8 -0.2
v 0.5 2.1 -0.2
v 0.5 2.2 -0.2
v 0.5 2.3 -0.2
v 0.5 2.7 -0.2
v 0.5 2.8 -0.2
v 0.6 2.2 -0.2
v 0.6 2.3 -0.2
v 0.6 2.4 -0.2
v 0.6 2.6 -0.2
v 0.6 2.7 -0.2
v 0.7 2.3 -0.2
v 0.7 2.4 -0.2
v 0.7 2.5 -0.2
v 0.7 2.6 -0.2
v 0.7 2.7 -0.2
v 0.8 2.4 -0.2
v 0.8 2.5 -0.2
v 0.1 2.2 -0.3
v 0.1 2.3 -0.3
v 0.2 2.1 -0.3
v 0.2 2.2 -0.3
v 0.2 2.3 -0.3
v 0.2 2.7 -0.3
v 0.2 2.8 -0.3
v 0.3 2 -0.3
v 0.3 2.1 -0.3
v 0.3 2.2 -0.3
v 0.3 2.7 -0.3
v 0.3 2.8 -0.3
v 0.4 2.1 -0.3
v 0.5 2 -0.3
v 0.5 2.1 -0.3
v 0.5 2.2 -0.3
v 0.5 2.7 -0.3
v 0.5 2.8 -0.3
v 0.6 2.1 -0.3
v 0.6 2.2 -0.3
v 0.6 2.3 -0.3
v 0.6 2.7 -0.3
v 0.6 2.8 -0.3
v 0.7 2.2 -0.3
v 0.7 2.3 -0.3
v 0.1 2.2 -0.5
v 0.1 2.3 -0.5
v 0.2 2.1 -0.5
v 0.2 2.2 -0.5
v 0.2 2.3 -0.5
v 0.2 2.7 -0.5
v 0.2 2.8 -0.5
v 0.3 2 -0.5
v 0.3 2.1 -0.5
v 0.3 2.2 -0.5
v 0.3 2.7 -0.5
v 0.3 2.8 -0.5
v 0.4 2.1 -0.5
v 0.5 2 -0.5
v 0.5 2.1 -0.5
v 0.5 2.2 -0.5
v 0.5 2.7 -0.5
v 0.5 2.8 -0.5
v 0.6 2.1 -0.5
v 0.6 2.2 -0.5
v 0.6 2.3 -0.5
v 0.6 2.7 -0.5
v 0.6 2.8 -0.5
v 0.7 2.2 -0.5
v 0.7 2.3 -0.5
v 0 2.4 -0.6
v 0 2.5 -0.6
v 0.1 2.3 -0.6
v 0.1 2.4 -0.6
v 0.1 2.5 -0.6
v 0.1 2.6 -0.6
v 0.1 2.7 -0.6
v 0.2 2.2 -0.6
v 0.2 2.3 -0.6
v 0.2 2.4 -0.6
v 0.2 2.6 -0.6
v 0.2 2.7 -0.6
v 0.3 2.1 -0.6
v 0.3 2.2 -0.6
v 0.3 2.3 -0.6
v 0.3 2.7 -0.6
v 0.3 2.8 -0.6
v 0.4 2.1 -0.6
v 0.4 2.2 -0.6
v 0.4 2.7 -0.6
v 0.4 2.8 -0.6
v 0.5 2.1 -0.6
v 0.5 2.2 -0.6
v 0.5 2.3 -0.6
v 0.5 2.7 -0.6
v 0.5 2.8 -0.6
v 0.6 2.2 -0.6
v 0.6 2.3 -0.6
v 0.6 2.4 -0.6
v 0.6 2.6 -0.6
v 0.6 2.7 -0.6
v 0.7 2.3 -0.6
v 0.7 2.4 -0.6
v 0.7 2.5 -0.6
v 0.7 2.6 -0.6
v 0.7 2.7 -0.6
v 0.8 2.4 -0.6
v 0.8 2.5 -0.6
v 0 2.5 -0.7
v 0 2.6 -0.7
v 0.1 2.4 -0.7
v 0.1 2.5 -0.7
v 0.1 2.6 -0.7
v 0.2 2.3 -0.7
v 0.2 2.4 -0.7
v 0.2 2.5 -0.7
v 0.2 2.6 -0.7
v 0.2 2.7 -0.7
v 0.3 2.2 -0.7
v 0.3 2.3 -0.7
v 0.3 2.4 -0.7
v 0.3 2.6 -0.7
v 0.3 2.7 -0.7
v 0.4 2.2 -0.7
v 0.4 2.3 -0.7
v 0.5 2.2 -0.7
v 0.5 2.3 -0.7
v 0.5 2.4 -0.7
v 0.5 2.6 -0.7
v 0.5 2.7 -0.7
v 0.6 2.3 -0.7
v 0.6 2.4 -0.7
v 0.6 2.5 -0.7
v 0.6 2.6 -0.7
v 0.6 2.7 -0.7
v 0.7 2.4 -0.7
v 0.7 2.5 -0.7
v 0.7 2.6 -0.7
v 0.8 2.5 -0.7
v 0.8 2.6 -0.7
v 0.1 2.5 -0.8
v 0.1 2.6 -0.8
v 0.2 2.4 -0.8
v 0.2 2.5 -0.8
v 0.2 2.6 -0.8
v 0.3 2.4 -0.8
v 0.3 2.5 -0.8
v 0.5 2.4 -0.8
v 0.5 2.5 -0.8
v 0.6 2.4 -0.8
v 0.6 2.5 -0.8
v 0.6 2.6 -0.8
v 0.7 2.5 -0.8
v 0.7 2.6 -0.8
v 0.3 2 -0.3
v 0.5 2 -0.3
v 0.3 2 -0.5
v 0.5 2 -0.5
v 0.3 2.1 -0.2
v 0.4 2.1 -0.2
v 0.5 2.1 -0.2
v 0.2 2.1 -0.3
v 0.3 2.1 -0.3
v 0.4 2.1 -0.3
v 0.5 2.1 -0.3
v 0.6 2.1 -0.3
v 0.2 2.1 -0.4
v 0.3 2.1 -0.4
v 0.5 2.1 -0.4
v 0.6 2.1 -0.4
v 0.2 2.1 -0.5
v 0.3 2.1 -0.5
v 0.4 2.1 -0.5
v 0.5 2.1 -0.5
v 0.6 2.1 -0.5
v 0.3 2.1 -0.6
v 0.4 2.1 -0.6
v 0.5 2.1 -0.6
v 0.3 2.2 -0.1
v 0.4 2.2 -0.1
v 0.5 2.2 -0.1
v 0.2 2.2 -0.2
v 0.3 2.2 -0.2
v 0.4 2.2 -0.2
v 0.5 2.2 -0.2
v 0.6 2.2 -0.2
v 0.1 2.2 -0.3
v 0.2 2.2 -0.3
v 0.3 2.2 -0.3
v 0.5 2.2 -0.3
v 0.6 2.2 -0.3
v 0.7 2.2 -0.3
v 0.1 2.2 -0.4
v 0.2 2.2 -0.4
v 0.6 2.2 -0.4
v 0.7 2.2 -0.4
v 0.1 2.2 -0.5
v 0.2 2.2 -0.5
v 0.3 2.2 -0.5
v 0.5 2.2 -0.5
v 0.6 2.2 -0.5
v 0.7 2.2 -0.5
v 0.2 2.2 -0.6
v 0.3 2.2 -0.6
v 0.4 2.2 -0.6
v 0.5 2.2 -0.6
v 0.6 2.2 -0.6
v 0.3 2.2 -0.7
v 0.4 2.2 -0.7
v 0.5 2.2 -0.7
v 0.2 2.3 -0.1
v 0.3 2.3 -0.1
v 0.5 2.3 -0.1
v 0.6 2.3 -0.1
v 0.1 2.3 -0.2
v 0.2 2.3 -0.2
v 0.3 2.3 -0.2
v 0.5 2.3 -0.2
v 0.6 2.3 -0.2
v 0.7 2.3 -0.2
v 0.1 2.3 -0.3
v 0.2 2.3 -0.3
v 0.6 2.3 -0.3
v 0.7 2.3 -0.3
v 0.1 2.3 -0.5
v 0.2 2.3 -0.5
v 0.6 2.3 -0.5
v 0.7 2.3 -0.5
v 0.1 2.3 -0.6
v 0.2 2.3 -0.6
v 0.3 2.3 -0.6
v 0.5 2.3 -0.6
v 0.6 2.3 -0.6
v 0.7 2.3 -0.6
v 0.2 2.3 -0.7
v 0.3 2.3 -0.7
v 0.5 2.3 -0.7
v 0.6 2.3 -0.7
v 0.2 2.4 0
v 0.3 2.4 0
v 0.5 2.4 0
v 0.6 2.4 0
v 0.1 2.4 -0.1
v 0.2 2.4 -0.1
v 0.3 2.4 -0.1
v 0.5 2.4 -0.1
v 0.6 2.4 -0.1
v 0.7 2.4 -0.1
v 0 2.4 -0.2
v 0.1 2.4 -0.2
v 0.2 2.4 -0.2
v 0.6 2.4 -0.2
v 0.7 2.4 -0.2
v 0.8 2.4 -0.2
v 0 2.4 -0.3
v 0.1 2.4 -0.3
v 0.7 2.4 -0.3
v 0.8 2.4 -0.3
v 0 2.4 -0.5
v 0.1 2.4 -0.5
v 0.7 2.4 -0.5
v 0.8 2.4 -0.5
v 0 2.4 -0.6
v 0.1 2.4 -0.6
v 0.2 2.4 -0.6
v 0.6 2.4 -0.6
v 0.7 2.4 -0.6
v 0.8 2.4 -0.6
v 0.1 2.4 -0.7
v 0.2 2.4 -0.7
v 0.3 2.4 -0.7
v 0.5 2.4 -0.7
v 0.6 2.4 -0.7
v 0.7 2.4 -0.7
v 0.2 2.4 -0.8
v 0.3 2.4 -0.8
v 0.5 2.4 -0.8
v 0.6 2.4 -0.8
v 0.1 2.5 0
v 0.2 2.5 0
v 0.6 2.5 0
v 0.7 2.5 0
v 0 2.5 -0.1
v 0.1 2.5 -0.1
v 0.2 2.5 -0.1
v 0.6 2.5 -0.1
v 0.7 2.5 -0.1
v 0.8 2.5 -0.1
v 0 2.5 -0.2
v 0.1 2.5 -0.2
v 0.7 2.5 -0.2
v 0.8 2.5 -0.2
v 0 2.5 -0.6
v 0.1 2.5 -0.6
v 0.7 2.5 -0.6
v 0.8 2.5 -0.6
v 0 2.5 -0.7
v 0.1 2.5 -0.7
v 0.2 2.5 -0.7
v 0.6 2.5 -0.7
v 0.7 2.5 -0.7
v 0.8 2.5 -0.7
v 0.1 2.5 -0.8
v 0.2 2.5 -0.8
v 0.6 2.5 -0.8
v 0.7 2.5 -0.8
v 0.1 2.6 0
v 0.2 2.6 0
v 0.6 2.6 0
v 0.7 2.6 0
v 0 2.6 -0.1
v 0.1 2.6 -0.1
v 0.2 2.6 -0.1
v 0.3 2.6 -0.1
v 0.5 2.6 -0.1
v 0.6 2.6 -0.1
v 0.7 2.6 -0.1
v 0.8 2.6 -0.1
v 0 2.6 -0.2
v 0.1 2.6 -0.2
v 0.2 2.6 -0.2
v 0.6 2.6 -0.2
v 0.7 2.6 -0.2
v 0.8 2.6 -0.2
v 0.1 2.6 -0.3
v 0.7 2.6 -0.3
v 0.1 2.6 -0.5
v 0.7 2.6 -0.5
v 0 2.6 -0.6
v 0.1 2.6 -0.6
v 0.2 2.6 -0.6
v 0.6 2.6 -0.6
v 0.7 2.6 -0.6
v 0.8 2.6 -0.6
v 0 2.6 -0.7
v 0.1 2.6 -0.7
v 0.2 2.6 -0.7
v 0.3 2.6 -0.7
v 0.5 2.6 -0.7
v 0.6 2.6 -0.7
v 0.7 2.6 -0.7
v 0.8 2.6 -0.7
v 0.1 2.6 -0.8
v 0.2 2.6 -0.8
v 0.6 2.6 -0.8
v 0.7 2.6 -0.8
v 0.2 2.7 -0.1
v 0.3 2.7 -0.1
v 0.5 2.7 -0.1
v 0.6 2.7 -0.1
v 0.1 2.7 -0.2
v 0.2 2.7 -0.2
v 0.3 2.7 -0.2
v 0.4 2.7 -0.2
v 0.5 2.7 -0.2
v 0.6 2.7 -0.2
v 0.7 2.7 -0.2
v 0.1 2.7 -0.3
v 0.2 2.7 -0.3
v 0.3 2.7 -0.3
v 0.5 2.7 -0.3
v 0.6 2.7 -0.3
v 0.7 2.7 -0.3
v 0.2 2.7 -0.4
v 0.6 2.7 -0.4
v 0.1 2.7 -0.5
v 0.2 2.7 -0.5
v 0.3 2.7 -0.5
v 0.5 2.7 -0.5
v 0.6 2.7 -0.5
v 0.7 2.7 -0.5
v 0.1 2.7 -0.6
v 0.2 2.7 -0.6
v 0.3 2.7 -0.6
v 0.4 2.7 -0.6
v 0.5 2.7 -0.6
v 0.6 2.7 -0.6
v 0.7 2.7 -0.6
v 0.2 2.7 -0.7
v 0.3 2.7 -0.7
v 0.5 2.7 -0.7
v 0.6 2.7 -0.7
v 0.3 2.8 -0.2
v 0.4 2.8 -0.2
v 0.5 2.8 -0.2
v 0.2 2.8 -0.3
v 0.3 2.8 -0.3
v 0.4 2.8 -0.3
v 0.5 2.8 -0.3
v 0.6 2.8 -0.3
v 0.2 2.8 -0.4
v 0.3 2.8 -0.4
v 0.5 2.8 -0.4
v 0.6 2.8 -0.4
v 0.2 2.8 -0.5
v 0.3 2.8 -0.5
v 0.4 2.8 -0.5
v 0.5 2.8 -0.5
v 0.6 2.8 -0.5
v 0.3 2.8 -0.6
v 0.4 2.8 -0.6
v 0.5 2.8 -0.6

# faces
f 6/2/1 2/2/1 1/2/1
f 7/3/1 3/3/1 2/3/1
f 7/2/1 2/2/1 6/2/1
f 8/2/1 4/2/1 3/2/1
f 8/3/1 3/3/1 7/3/1
f 9/2/1 4/2/1 8/2/1
f 11/1/1 6/1/1 5/1/1
f 12/3/1 7/3/1 6/3/1
f 12/1/1 6/1/1 11/1/1
f 12/3/1 8/3/1 7/3/1
f 12/3/1 9/3/1 8/3/1
f 13/2/1 10/2/1 9/2/1
f 13/3/1 9/3/1 12/3/1
f 14/2/1 10/2/1 13/2/1
f 19/2/1 16/2/1 15/2/1
f 20/3/1 17/3/1 16/3/1
f 20/2/1 16/2/1 19/2/1
f 21/3/1 17/3/1 20/3/1
f 24/2/1 19/2/1 18/2/1
f 25/3/1 20/3/1 19/3/1
f 25/3/1 21/3/1 20/3/1
f 25/2/1 19/2/1 24/2/1
f 26/2/1 22/2/1 21/2/1
f 26/3/1 21/3/1 25/3/1
f 27/2/1 22/2/1 26/2/1
f 30/2/1 24/2/1 23/2/1
f 31/2/1 24/2/1 30/2/1
f 32/2/1 28/2/1 27/2/1
f 33/2/1 28/2/1 32/2/1
f 35/1/1 30/1/1 29/1/1
f 36/1/1 30/1/1 35/1/1
f 41/2/1 34/2/1 33/2/1
f 42/2/1 34/2/1 41/2/1
f 43/1/1 38/1/1 37/1/1
f 44/3/1 39/3/1 38/3/1
f 44/1/1 38/1/1 43/1/1
f 45/2/1 40/2/1 39/2/1
f 45/3/1 39/3/1 44/3/1
f 46/2/1 40/2/1 45/2/1
f 51/2/1 48/2/1 47/2/1
f 52/3/1 49/3/1 48/3/1
f 52/2/1 48/2/1 51/2/1
f 53/3/1 49/3/1 52/3/1
f 56/2/1 51/2/1 50/2/1
f 57/2/1 51/2/1 56/2/1
f 58/2/1 54/2/1 53/2/1
f 59/2/1 54/2/1 58/2/1
f 62/2/1 56/2/1 55/2/1
f 63/2/1 56/2/1 62/2/1
f 64/2/1 60/2/1 59/2/1
f 65/2/1 60/2/1 64/2/1
f 67/2/1 62/2/1 61/2/1
f 68/2/1 62/2/1 67/2/1
f 69/2/1 66/2/1 65/2/1
f 70/2/1 66/2/1 69/2/1
f 75/1/1 72/1/1 71/1/1
f 76/1/1 72/1/1 75/1/1
f 80/2/1 74/2/1 73/2/1
f 81/2/1 74/2/1 80/2/1
f 82/3/1 78/3/1 77/3/1
f 83/2/1 79/2/1 78/2/1
f 83/3/1 78/3/1 82/3/1
f 84/2/1 79/2/1 83/2/1
f 88/3/1 86/3/1 85/3/1
f 89/3/1 86/3/1 88/3/1
f 90/3/1 86/3/1 89/3/1
f 93/3/1 88/3/1 87/3/1
f 94/3/1 88/3/1 93/3/1
f 95/2/1 91/2/1 90/2/1
f 96/2/1 91/2/1 95/2/1
f 98/3/1 93/3/1 92/3/1
f 99/3/1 93/3/1 98/3/1
f 100/2/1 97/2/1 96/2/1
f 101/2/1 97/2/1 100/2/1
f 106/1/1 103/1/1 102/1/1
f 107/1/1 103/1/1 106/1/1
f 108/3/1 105/3/1 104/3/1
f 109/3/1 105/3/1 108/3/1
f 110/3/2 111/3/2 113/3/2
f 113/3/2 111/3/2 114/3/2
f 114/3/2 111/3/2 115/3/2
f 112/2/2 113/2/2 118/2/2
f 118/2/2 113/2/2 119/2/2
f 115/3/2 116/3/2 120/3/2
f 120/3/2 116/3/2 121/3/2
f 117/2/2 118/2/2 123/2/2
f 123/2/2 118/2/2 124/2/2
f 121/3/2 122/3/2 125/3/2
f 125/3/2 122/3/2 126/3/2
f 127/3/2 128/3/2 131/3/2
f 131/3/2 128/3/2 132/3/2
f 129/1/2 130/1/2 133/1/2
f 133/1/2 130/1/2 134/1/2
f 135/3/2 136/3/2 139/3/2
f 136/2/2 137/2/2 140/2/2
f 139/3/2 136/3/2 140/3/2
f 140/2/2 137/2/2 141/2/2
f 138/2/2 139/2/2 144/2/2
f 144/2/2 139/2/2 145/2/2
f 141/2/2 142/2/2 146/2/2
f 146/2/2 142/2/2 147/2/2
f 143/2/2 144/2/2 150/2/2
f 150/2/2 144/2/2 151/2/2
f 147/2/2 148/2/2 152/2/2
f 152/2/2 148/2/2 153/2/2
f 149/2/2 150/2/2 155/2/2
f 155/2/2 150/2/2 156/2/2
f 153/2/2 154/2/2 157/2/2
f 157/2/2 154/2/2 158/2/2
f 159/2/2 160/2/2 163/2/2
f 163/2/2 160/2/2 164/2/2
f 161/1/2 162/1/2 168/1/2
f 168/1/2 162/1/2 169/1/2
f 165/2/2 166/2/2 170/2/2
f 166/3/2 167/3/2 171/3/2
f 170/2/2 166/2/2 171/2/2
f 171/3/2 167/3/2 172/3/2
f 173/3/2 174/3/2 177/3/2
f 174/2/2 175/2/2 178/2/2
f 177/3/2 174/3/2 178/3/2
f 178/2/2 175/2/2 179/2/2
f 176/2/2 177/2/2 182/2/2
f 177/3/2 178/3/2 183/3/2
f 178/3/2 179/3/2 183/3/2
f 182/2/2 177/2/2 183/2/2
f 179/2/2 180/2/2 184/2/2
f 183/3/2 179/3/2 184/3/2
f 184/2/2 180/2/2 185/2/2
f 181/2/2 182/2/2 188/2/2
f 188/2/2 182/2/2 189/2/2
f 185/2/2 186/2/2 190/2/2
f 190/2/2 186/2/2 191/2/2
f 187/2/2 188/2/2 193/2/2
f 193/2/2 188/2/2 194/2/2
f 191/1/2 192/1/2 199/1/2
f 199/1/2 192/1/2 200/1/2
f 195/2/2 196/2/2 201/2/2
f 196/3/2 197/3/2 202/3/2
f 201/2/2 196/2/2 202/2/2
f 197/1/2 198/1/2 203/1/2
f 202/3/2 197/3/2 203/3/2
f 203/1/2 198/1/2 204/1/2
f 205/2/2 206/2/2 210/2/2
f 206/3/2 207/3/2 211/3/2
f 210/2/2 206/2/2 211/2/2
f 207/2/2 208/2/2 212/2/2
f 211/3/2 207/3/2 212/3/2
f 212/2/2 208/2/2 213/2/2
f 209/2/2 210/2/2 215/2/2
f 210/3/2 211/3/2 216/3/2
f 215/2/2 210/2/2 216/2/2
f 211/3/2 212/3/2 216/3/2
f 212/3/2 213/3/2 216/3/2
f 213/1/2 214/1/2 217/1/2
f 216/3/2 213/3/2 217/3/2
f 217/1/2 214/1/2 218/1/2
f 222/1/3 220/1/3 219/1/3
f 223/1/3 220/1/3 222/1/3
f 224/2/3 222/2/3 221/2/3
f 225/3/3 223/3/3 222/3/3
f 225/2/3 222/2/3 224/2/3
f 226/3/3 225/3/3 224/3/3
f 227/3/3 223/3/3 225/3/3
f 227/3/3 225/3/3 226/3/3
f 228/2/3 227/2/3 226/2/3
f 229/3/3 223/3/3 227/3/3
f 229/2/3 227/2/3 228/2/3
f 230/3/3 223/3/3 229/3/3
f 231/2/3 230/2/3 229/2/3
f 232/2/3 230/2/3 231/2/3
f 236/1/3 234/1/3 233/1/3
f 237/1/3 234/1/3 236/1/3
f 239/2/3 236/2/3 235/2/3
f 240/2/3 236/2/3 239/2/3
f 244/2/3 239/2/3 238/2/3
f 245/2/3 239/2/3 244/2/3
f 246/1/3 242/1/3 241/1/3
f 247/1/3 242/1/3 246/1/3
f 248/3/3 245/3/3 244/3/3
f 248/3/3 244/3/3 243/3/3
f 249/3/3 245/3/3 248/3/3
f 250/2/3 249/2/3 248/2/3
f 251/3/3 245/3/3 249/3/3
f 251/2/3 249/2/3 250/2/3
f 252/3/3 245/3/3 251/3/3
f 253/3/3 247/3/3 246/3/3
f 254/3/3 247/3/3 253/3/3
f 255/2/3 252/2/3 251/2/3
f 256/2/3 252/2/3 255/2/3
f 258/2/3 254/2/3 253/2/3
f 259/2/3 254/2/3 258/2/3
f 260/2/3 257/2/3 256/2/3
f 261/2/3 257/2/3 260/2/3
f 263/2/3 262/2/3 261/2/3
f 264/2/3 262/2/3 263/2/3
f 268/2/3 266/2/3 265/2/3
f 269/2/3 266/2/3 268/2/3
f 273/2/3 268/2/3 267/2/3
f 274/2/3 268/2/3 273/2/3
f 275/1/3 271/1/3 270/1/3
f 276/1/3 271/1/3 275/1/3
f 278/2/3 273/2/3 272/2/3
f 279/2/3 273/2/3 278/2/3
f 282/3/3 278/3/3 277/3/3
f 283/3/3 278/3/3 282/3/3
f 284/1/3 281/1/3 280/1/3
f 285/1/3 281/1/3 284/1/3
f 286/2/3 283/2/3 282/2/3
f 287/2/3 283/2/3 286/2/3
f 289/3/3 285/3/3 284/3/3
f 290/3/3 285/3/3 289/3/3
f 291/2/3 288/2/3 287/2/3
f 292/2/3 288/2/3 291/2/3
f 296/2/3 293/2/3 292/2/3
f 297/2/3 293/2/3 296/2/3
f 299/2/3 295/2/3 294/2/3
f 300/2/3 295/2/3 299/2/3
f 301/2/3 298/2/3 297/2/3
f 302/2/3 298/2/3 301/2/3
f 306/2/3 304/2/3 303/2/3
f 307/2/3 304/2/3 306/2/3
f 311/2/3 306/2/3 305/2/3
f 312/2/3 306/2/3 311/2/3
f 313/3/3 309/3/3 308/3/3
f 314/3/3 309/3/3 313/3/3
f 315/3/3 311/3/3 310/3/3
f 316/3/3 315/3/3 310/3/3
f 317/3/3 315/3/3 316/3/3
f 321/3/3 318/3/3 317/3/3
f 322/3/3 318/3/3 321/3/3
f 324/2/3 320/2/3 319/2/3
f 325/2/3 320/2/3 324/2/3
f 326/3/3 323/3/3 322/3/3
f 327/3/3 323/3/3 326/3/3
f 328/3/4 329/3/4 331/3/4
f 331/3/4 329/3/4 332/3/4
f 330/3/4 331/3/4 336/3/4
f 336/3/4 331/3/4 337/3/4
f 333/2/4 334/2/4 338/2/4
f 338/2/4 334/2/4 339/2/4
f 335/3/4 336/3/4 340/3/4
f 335/3/4 340/3/4 341/3/4
f 341/3/4 340/3/4 342/3/4
f 342/2/4 343/2/4 346/2/4
f 346/2/4 343/2/4 347/2/4
f 344/3/4 345/3/4 349/3/4
f 349/3/4 345/3/4 350/3/4
f 347/2/4 348/2/4 351/2/4
f 351/2/4 348/2/4 352/2/4
f 353/2/4 354/2/4 356/2/4
f 356/2/4 354/2/4 357/2/4
f 355/2/4 356/2/4 361/2/4
f 361/2/4 356/2/4 362/2/4
f 358/2/4 359/2/4 363/2/4
f 363/2/4 359/2/4 364/2/4
f 360/2/4 361/2/4 366/2/4
f 366/2/4 361/2/4 367/2/4
f 365/2/4 366/2/4 370/2/4
f 370/2/4 366/2/4 371/2/4
f 368/3/4 369/3/4 372/3/4
f 372/3/4 369/3/4 373/3/4
f 370/3/4 371/3/4 374/3/4
f 374/3/4 371/3/4 375/3/4
f 372/1/4 373/1/4 377/1/4
f 377/1/4 373/1/4 378/1/4
f 375/2/4 376/2/4 379/2/4
f 379/2/4 376/2/4 380/2/4
f 380/2/4 381/2/4 384/2/4
f 384/2/4 381/2/4 385/2/4
f 382/1/4 383/1/4 387/1/4
f 387/1/4 383/1/4 388/1/4
f 385/2/4 386/2/4 389/2/4
f 389/2/4 386/2/4 390/2/4
f 391/2/4 392/2/4 394/2/4
f 394/2/4 392/2/4 395/2/4
f 393/2/4 394/2/4 397/2/4
f 397/2/4 394/2/4 398/2/4
f 396/2/4 397/2/4 402/2/4
f 402/2/4 397/2/4 403/2/4
f 399/2/4 400/2/4 404/2/4
f 404/2/4 400/2/4 405/2/4
f 401/2/4 402/2/4 406/2/4
f 402/3/4 403/3/4 407/3/4
f 406/2/4 402/2/4 407/2/4
f 406/3/4 407/3/4 408/3/4
f 407/3/4 403/3/4 409/3/4
f 408/3/4 407/3/4 409/3/4
f 409/3/4 403/3/4 410/3/4
f 404/3/4 405/3/4 411/3/4
f 411/3/4 405/3/4 412/3/4
f 409/2/4 410/2/4 413/2/4
f 413/2/4 410/2/4 414/2/4
f 411/1/4 412/1/4 416/1/4
f 416/1/4 412/1/4 417/1/4
f 414/2/4 415/2/4 418/2/4
f 418/2/4 415/2/4 419/2/4
f 419/1/4 420/1/4 421/1/4
f 421/1/4 420/1/4 422/1/4
f 423/2/4 424/2/4 426/2/4
f 426/2/4 424/2/4 427/2/4
f 425/2/4 426/2/4 428/2/4
f 426/3/4 427/3/4 429/3/4
f 428/2/4 426/2/4 429/2/4
f 428/3/4 429/3/4 430/3/4
f 429/3/4 427/3/4 431/3/4
f 430/3/4 429/3/4 431/3/4
f 430/2/4 431/2/4 432/2/4
f 431/3/4 427/3/4 433/3/4
f 432/2/4 431/2/4 433/2/4
f 433/3/4 427/3/4 434/3/4
f 433/1/4 434/1/4 435/1/4
f 435/1/4 434/1/4 436/1/4
f 439/3/5 438/3/5 437/3/5
f 440/3/5 438/3/5 439/3/5
f 445/3/5 442/3/5 441/3/5
f 446/2/5 443/2/5 442/2/5
f 446/3/5 442/3/5 445/3/5
f 447/2/5 443/2/5 446/2/5
f 449/2/5 445/2/5 444/2/5
f 450/2/5 445/2/5 449/2/5
f 451/3/5 448/3/5 447/3/5
f 452/3/5 448/3/5 451/3/5
f 453/3/5 450/3/5 449/3/5
f 454/3/5 450/3/5 453/3/5
f 456/2/5 452/2/5 451/2/5
f 457/2/5 452/2/5 456/2/5
f 458/2/5 455/2/5 454/2/5
f 459/3/5 456/3/5 455/3/5
f 459/2/5 455/2/5 458/2/5
f 460/3/5 456/3/5 459/3/5
f 465/3/5 462/3/5 461/3/5
f 466/2/5 463/2/5 462/2/5
f 466/3/5 462/3/5 465/3/5
f 467/2/5 463/2/5 466/2/5
f 470/2/5 465/2/5 464/2/5
f 471/2/5 465/2/5 470/2/5
f 472/2/5 468/2/5 467/2/5
f 473/2/5 468/2/5 472/2/5
f 475/2/5 470/2/5 469/2/5
f 476/2/5 470/2/5 475/2/5
f 477/3/5 474/3/5 473/3/5
f 478/3/5 474/3/5 477/3/5
f 479/3/5 476/3/5 475/3/5
f 480/3/5 476/3/5 479/3/5
f 483/2/5 478/2/5 477/2/5
f 484/2/5 478/2/5 483/2/5
f 485/2/5 481/2/5 480/2/5
f 486/2/5 481/2/5 485/2/5
f 488/2/5 483/2/5 482/2/5
f 489/2/5 483/2/5 488/2/5
f 490/2/5 487/2/5 486/2/5
f 491/3/5 488/3/5 487/3/5
f 491/2/5 487/2/5 490/2/5
f 492/3/5 488/3/5 491/3/5
f 498/2/5 494/2/5 493/2/5
f 499/2/5 494/2/5 498/2/5
f 500/2/5 496/2/5 495/2/5
f 501/2/5 496/2/5 500/2/5
f 503/2/5 498/2/5 497/2/5
f 504/2/5 498/2/5 503/2/5
f 505/2/5 502/2/5 501/2/5
f 506/2/5 502/2/5 505/2/5
f 511/2/5 508/2/5 507/2/5
f 512/2/5 508/2/5 511/2/5
f 515/2/5 510/2/5 509/2/5
f 516/2/5 510/2/5 515/2/5
f 517/2/5 513/2/5 512/2/5
f 518/2/5 513/2/5 517/2/5
f 519/2/5 515/2/5 514/2/5
f 520/2/5 515/2/5 519/2/5
f 526/2/5 522/2/5 521/2/5
f 527/3/5 523/3/5 522/3/5
f 527/2/5 522/2/5 526/2/5
f 528/2/5 524/2/5 523/2/5
f 528/3/5 523/3/5 527/3/5
f 529/2/5 524/2/5 528/2/5
f 532/2/5 526/2/5 525/2/5
f 533/2/5 526/2/5 532/2/5
f 534/2/5 530/2/5 529/2/5
f 535/2/5 530/2/5 534/2/5
f 537/2/5 532/2/5 531/2/5
f 538/2/5 532/2/5 537/2/5
f 539/2/5 536/2/5 535/2/5
f 540/2/5 536/2/5 539/2/5
f 541/3/5 538/3/5 537/3/5
f 542/3/5 538/3/5 541/3/5
f 543/3/5 540/3/5 539/3/5
f 544/3/5 540/3/5 543/3/5
f 545/2/5 542/2/5 541/2/5
f 546/2/5 542/2/5 545/2/5
f 549/2/5 544/2/5 543/2/5
f 550/2/5 544/2/5 549/2/5
f 551/2/5 547/2/5 546/2/5
f 552/2/5 547/2/5 551/2/5
f 555/2/5 549/2/5 548/2/5
f 556/2/5 549/2/5 555/2/5
f 557/2/5 553/2/5 552/2/5
f 558/3/5 554/3/5 553/3/5
f 558/2/5 553/2/5 557/2/5
f 559/2/5 555/2/5 554/2/5
f 559/3/5 554/3/5 558/3/5
f 560/2/5 555/2/5 559/2/5
f 566/1/5 562/1/5 561/1/5
f 567/1/5 562/1/5 566/1/5
f 568/2/5 564/2/5 563/2/5
f 569/2/5 564/2/5 568/2/5
f 571/1/5 566/1/5 565/1/5
f 572/1/5 566/1/5 571/1/5
f 573/2/5 570/2/5 569/2/5
f 574/2/5 570/2/5 573/2/5
f 579/2/5 576/2/5 575/2/5
f 580/2/5 576/2/5 579/2/5
f 583/1/5 578/1/5 577/1/5
f 584/1/5 578/1/5 583/1/5
f 585/2/5 581/2/5 580/2/5
f 586/2/5 581/2/5 585/2/5
f 587/1/5 583/1/5 582/1/5
f 588/1/5 583/1/5 587/1/5
f 589/1/6 590/1/6 594/1/6
f 590/3/6 591/3/6 595/3/6
f 594/1/6 590/1/6 595/1/6
f 595/3/6 591/3/6 596/3/6
f 596/3/6 591/3/6 597/3/6
f 591/2/6 592/2/6 598/2/6
f 597/3/6 591/3/6 598/3/6
f 598/2/6 592/2/6 599/2/6
f 593/1/6 594/1/6 601/1/6
f 594/1/6 595/1/6 601/1/6
f 601/1/6 595/1/6 602/1/6
f 602/1/6 595/1/6 603/1/6
f 599/2/6 600/2/6 604/2/6
f 598/2/6 599/2/6 604/2/6
f 604/2/6 600/2/6 605/2/6
f 605/2/6 600/2/6 606/2/6
f 601/3/6 602/3/6 607/3/6
f 605/3/6 606/3/6 608/3/6
f 601/3/6 607/3/6 609/3/6
f 608/3/6 606/3/6 610/3/6
f 601/3/6 609/3/6 611/3/6
f 611/3/6 609/3/6 612/3/6
f 610/3/6 606/3/6 615/3/6
f 615/3/6 606/3/6 616/3/6
f 612/2/6 613/2/6 617/2/6
f 611/2/6 612/2/6 617/2/6
f 617/2/6 613/2/6 618/2/6
f 618/2/6 613/2/6 619/2/6
f 615/1/6 616/1/6 622/1/6
f 614/1/6 615/1/6 622/1/6
f 622/1/6 616/1/6 623/1/6
f 623/1/6 616/1/6 624/1/6
f 618/2/6 619/2/6 625/2/6
f 620/3/6 621/3/6 626/3/6
f 625/2/6 619/2/6 626/2/6
f 619/3/6 620/3/6 626/3/6
f 621/3/6 622/3/6 626/3/6
f 622/1/6 623/1/6 627/1/6
f 626/3/6 622/3/6 627/3/6
f 627/1/6 623/1/6 628/1/6
f 629/1/6 630/1/6 634/1/6
f 630/3/6 631/3/6 635/3/6
f 634/1/6 630/1/6 635/1/6
f 635/3/6 631/3/6 636/3/6
f 631/2/6 632/2/6 637/2/6
f 636/3/6 631/3/6 637/3/6
f 637/2/6 632/2/6 638/2/6
f 633/1/6 634/1/6 640/1/6
f 634/1/6 635/1/6 640/1/6
f 640/1/6 635/1/6 641/1/6
f 641/1/6 635/1/6 642/1/6
f 638/2/6 639/2/6 643/2/6
f 637/2/6 638/2/6 643/2/6
f 643/2/6 639/2/6 644/2/6
f 644/2/6 639/2/6 645/2/6
f 640/3/6 641/3/6 646/3/6
f 644/3/6 645/3/6 647/3/6
f 640/3/6 646/3/6 648/3/6
f 648/3/6 646/3/6 649/3/6
f 647/3/6 645/3/6 652/3/6
f 652/3/6 645/3/6 653/3/6
f 649/2/6 650/2/6 654/2/6
f 648/2/6 649/2/6 654/2/6
f 654/2/6 650/2/6 655/2/6
f 655/2/6 650/2/6 656/2/6
f 652/1/6 653/1/6 658/1/6
f 651/1/6 652/1/6 658/1/6
f 658/1/6 653/1/6 659/1/6
f 659/1/6 653/1/6 660/1/6
f 655/2/6 656/2/6 661/2/6
f 656/3/6 657/3/6 662/3/6
f 661/2/6 656/2/6 662/2/6
f 657/3/6 658/3/6 662/3/6
f 658/1/6 659/1/6 663/1/6
f 662/3/6 658/3/6 663/3/6
f 663/1/6 659/1/6 664/1/6
f 665/1/6 666/1/6 669/1/6
f 666/3/6 667/3/6 670/3/6
f 669/1/6 666/1/6 670/1/6
f 670/3/6 667/3/6 671/3/6
f 668/3/6 669/3/6 673/3/6
f 671/2/6 672/2/6 674/2/6
f 673/3/6 669/3/6 674/3/6
f 669/2/6 670/2/6 674/2/6
f 670/2/6 671/2/6 674/2/6
f 674/2/6 672/2/6 675/2/6
f 675/2/6 672/2/6 676/2/6
f 673/2/6 674/2/6 677/2/6
f 674/2/6 675/2/6 677/2/6
f 677/2/6 675/2/6 678/2/6
f 678/2/6 675/2/6 679/2/6
f 675/3/6 676/3/6 680/3/6
f 679/2/6 675/2/6 680/2/6
f 680/3/6 676/3/6 681/3/6
f 678/3/6 679/3/6 682/3/6
f 679/1/6 680/1/6 683/1/6
f 682/3/6 679/3/6 683/3/6
f 683/1/6 680/1/6 684/1/6
