# MagicaVoxel @ Ephtracy

# group
o 

# material
mtllib potioningredient.mtl
usemtl palette

# normals
vn -1 0 0
vn 1 0 0
vn 0 0 1
vn 0 0 -1
vn 0 -1 0
vn 0 1 0

# texcoords
vt 0.634766 0.5
vt 0.697266 0.5
vt 0.767578 0.5
vt 0.916016 0.5

# verts
v 0 2 0
v 0 2 -0.8
v 0 2.1 0
v 0 2.1 -0.8
v 0.1 2.1 -0.1
v 0.1 2.1 -0.7
v 0.1 2.3 -0.1
v 0.1 2.3 -0.7
v 0.2 2.3 -0.2
v 0.2 2.3 -0.6
v 0.2 2.5 -0.2
v 0.2 2.5 -0.6
v 0.2 2.7 -0.2
v 0.2 2.7 -0.6
v 0.2 2.8 -0.2
v 0.2 2.8 -0.6
v 0.3 2.5 -0.3
v 0.3 2.5 -0.5
v 0.3 2.7 -0.3
v 0.3 2.7 -0.5
v 0.5 2.5 -0.3
v 0.5 2.5 -0.5
v 0.5 2.7 -0.3
v 0.5 2.7 -0.5
v 0.6 2.3 -0.2
v 0.6 2.3 -0.6
v 0.6 2.5 -0.2
v 0.6 2.5 -0.6
v 0.6 2.7 -0.2
v 0.6 2.7 -0.6
v 0.6 2.8 -0.2
v 0.6 2.8 -0.6
v 0.7 2.1 -0.1
v 0.7 2.1 -0.7
v 0.7 2.3 -0.1
v 0.7 2.3 -0.7
v 0.8 2 0
v 0.8 2 -0.8
v 0.8 2.1 0
v 0.8 2.1 -0.8
v 0 2 0
v 0 2.1 0
v 0.8 2 0
v 0.8 2.1 0
v 0.1 2.1 -0.1
v 0.1 2.3 -0.1
v 0.7 2.1 -0.1
v 0.7 2.3 -0.1
v 0.2 2.3 -0.2
v 0.2 2.5 -0.2
v 0.2 2.7 -0.2
v 0.2 2.8 -0.2
v 0.3 2.3 -0.2
v 0.3 2.4 -0.2
v 0.5 2.3 -0.2
v 0.5 2.4 -0.2
v 0.6 2.3 -0.2
v 0.6 2.5 -0.2
v 0.6 2.7 -0.2
v 0.6 2.8 -0.2
v 0.3 2.5 -0.3
v 0.3 2.7 -0.3
v 0.5 2.5 -0.3
v 0.5 2.7 -0.3
v 0.3 2.5 -0.5
v 0.3 2.7 -0.5
v 0.5 2.5 -0.5
v 0.5 2.7 -0.5
v 0.2 2.3 -0.6
v 0.2 2.5 -0.6
v 0.2 2.7 -0.6
v 0.2 2.8 -0.6
v 0.6 2.3 -0.6
v 0.6 2.5 -0.6
v 0.6 2.7 -0.6
v 0.6 2.8 -0.6
v 0.1 2.1 -0.7
v 0.1 2.3 -0.7
v 0.7 2.1 -0.7
v 0.7 2.3 -0.7
v 0 2 -0.8
v 0 2.1 -0.8
v 0.8 2 -0.8
v 0.8 2.1 -0.8
v 0 2 0
v 0.8 2 0
v 0 2 -0.8
v 0.8 2 -0.8
v 0.2 2.7 -0.2
v 0.6 2.7 -0.2
v 0.3 2.7 -0.3
v 0.5 2.7 -0.3
v 0.3 2.7 -0.5
v 0.5 2.7 -0.5
v 0.2 2.7 -0.6
v 0.6 2.7 -0.6
v 0 2.1 0
v 0.8 2.1 0
v 0.1 2.1 -0.1
v 0.7 2.1 -0.1
v 0.1 2.1 -0.7
v 0.7 2.1 -0.7
v 0 2.1 -0.8
v 0.8 2.1 -0.8
v 0.1 2.3 -0.1
v 0.7 2.3 -0.1
v 0.2 2.3 -0.2
v 0.3 2.3 -0.2
v 0.5 2.3 -0.2
v 0.6 2.3 -0.2
v 0.2 2.3 -0.6
v 0.6 2.3 -0.6
v 0.1 2.3 -0.7
v 0.7 2.3 -0.7
v 0.2 2.5 -0.2
v 0.6 2.5 -0.2
v 0.3 2.5 -0.3
v 0.5 2.5 -0.3
v 0.3 2.5 -0.5
v 0.5 2.5 -0.5
v 0.2 2.5 -0.6
v 0.6 2.5 -0.6
v 0.2 2.8 -0.2
v 0.6 2.8 -0.2
v 0.2 2.8 -0.6
v 0.6 2.8 -0.6

# faces
f 3/2/1 2/2/1 1/2/1
f 4/2/1 2/2/1 3/2/1
f 7/1/1 6/1/1 5/1/1
f 8/1/1 6/1/1 7/1/1
f 11/1/1 10/1/1 9/1/1
f 12/1/1 10/1/1 11/1/1
f 15/3/1 14/3/1 13/3/1
f 16/3/1 14/3/1 15/3/1
f 19/1/1 18/1/1 17/1/1
f 20/1/1 18/1/1 19/1/1
f 21/1/2 22/1/2 23/1/2
f 23/1/2 22/1/2 24/1/2
f 25/1/2 26/1/2 27/1/2
f 27/1/2 26/1/2 28/1/2
f 29/3/2 30/3/2 31/3/2
f 31/3/2 30/3/2 32/3/2
f 33/1/2 34/1/2 35/1/2
f 35/1/2 34/1/2 36/1/2
f 37/2/2 38/2/2 39/2/2
f 39/2/2 38/2/2 40/2/2
f 43/2/3 42/2/3 41/2/3
f 44/2/3 42/2/3 43/2/3
f 47/1/3 46/1/3 45/1/3
f 48/1/3 46/1/3 47/1/3
f 53/1/3 50/1/3 49/1/3
f 54/1/3 50/1/3 53/1/3
f 55/4/3 54/4/3 53/4/3
f 56/1/3 50/1/3 54/1/3
f 56/4/3 54/4/3 55/4/3
f 57/1/3 56/1/3 55/1/3
f 58/1/3 50/1/3 56/1/3
f 58/1/3 56/1/3 57/1/3
f 59/3/3 52/3/3 51/3/3
f 60/3/3 52/3/3 59/3/3
f 63/1/3 62/1/3 61/1/3
f 64/1/3 62/1/3 63/1/3
f 65/1/4 66/1/4 67/1/4
f 67/1/4 66/1/4 68/1/4
f 69/1/4 70/1/4 73/1/4
f 73/1/4 70/1/4 74/1/4
f 71/3/4 72/3/4 75/3/4
f 75/3/4 72/3/4 76/3/4
f 77/1/4 78/1/4 79/1/4
f 79/1/4 78/1/4 80/1/4
f 81/2/4 82/2/4 83/2/4
f 83/2/4 82/2/4 84/2/4
f 87/2/5 86/2/5 85/2/5
f 88/2/5 86/2/5 87/2/5
f 91/3/5 90/3/5 89/3/5
f 92/3/5 90/3/5 91/3/5
f 93/3/5 91/3/5 89/3/5
f 94/3/5 90/3/5 92/3/5
f 95/3/5 93/3/5 89/3/5
f 95/3/5 94/3/5 93/3/5
f 96/3/5 90/3/5 94/3/5
f 96/3/5 94/3/5 95/3/5
f 97/2/6 98/2/6 99/2/6
f 99/2/6 98/2/6 100/2/6
f 97/2/6 99/2/6 101/2/6
f 100/2/6 98/2/6 102/2/6
f 97/2/6 101/2/6 103/2/6
f 101/2/6 102/2/6 103/2/6
f 102/2/6 98/2/6 104/2/6
f 103/2/6 102/2/6 104/2/6
f 105/1/6 106/1/6 107/1/6
f 107/1/6 106/1/6 108/1/6
f 108/1/6 106/1/6 109/1/6
f 109/1/6 106/1/6 110/1/6
f 105/1/6 107/1/6 111/1/6
f 110/1/6 106/1/6 112/1/6
f 105/1/6 111/1/6 113/1/6
f 111/1/6 112/1/6 113/1/6
f 112/1/6 106/1/6 114/1/6
f 113/1/6 112/1/6 114/1/6
f 115/1/6 116/1/6 117/1/6
f 117/1/6 116/1/6 118/1/6
f 115/1/6 117/1/6 119/1/6
f 118/1/6 116/1/6 120/1/6
f 115/1/6 119/1/6 121/1/6
f 119/1/6 120/1/6 121/1/6
f 120/1/6 116/1/6 122/1/6
f 121/1/6 120/1/6 122/1/6
f 123/3/6 124/3/6 125/3/6
f 125/3/6 124/3/6 126/3/6
