# MagicaVoxel @ Ephtracy

# group
o 

# material
mtllib meadingredient.mtl
usemtl palette

# normals
vn -1 0 0
vn 1 0 0
vn 0 0 1
vn 0 0 -1
vn 0 -1 0
vn 0 1 0

# texcoords
vt 0.697266 0.5
vt 0.884766 0.5

# verts
v 0 2.2 -0.3
v 0 2.2 -0.5
v 0 2.3 -0.2
v 0 2.3 -0.3
v 0 2.3 -0.5
v 0 2.3 -0.6
v 0 2.5 -0.2
v 0 2.5 -0.6
v 0.1 2.1 -0.2
v 0.1 2.1 -0.6
v 0.1 2.2 -0.1
v 0.1 2.2 -0.2
v 0.1 2.2 -0.3
v 0.1 2.2 -0.5
v 0.1 2.2 -0.6
v 0.1 2.2 -0.7
v 0.1 2.3 -0.2
v 0.1 2.3 -0.3
v 0.1 2.3 -0.5
v 0.1 2.3 -0.6
v 0.1 2.5 -0.1
v 0.1 2.5 -0.2
v 0.1 2.5 -0.6
v 0.1 2.5 -0.7
v 0.2 2 -0.3
v 0.2 2 -0.5
v 0.2 2.1 -0.1
v 0.2 2.1 -0.2
v 0.2 2.1 -0.3
v 0.2 2.1 -0.5
v 0.2 2.1 -0.6
v 0.2 2.1 -0.7
v 0.2 2.2 -0.1
v 0.2 2.2 -0.2
v 0.2 2.2 -0.6
v 0.2 2.2 -0.7
v 0.2 2.3 0
v 0.2 2.3 -0.1
v 0.2 2.3 -0.7
v 0.2 2.3 -0.8
v 0.2 2.5 0
v 0.2 2.5 -0.1
v 0.2 2.5 -0.7
v 0.2 2.5 -0.8
v 0.2 2.7 -0.3
v 0.2 2.7 -0.5
v 0.2 2.8 -0.3
v 0.2 2.8 -0.5
v 0.3 2 -0.2
v 0.3 2 -0.3
v 0.3 2 -0.5
v 0.3 2 -0.6
v 0.3 2.1 -0.2
v 0.3 2.1 -0.3
v 0.3 2.1 -0.5
v 0.3 2.1 -0.6
v 0.3 2.2 0
v 0.3 2.2 -0.1
v 0.3 2.2 -0.7
v 0.3 2.2 -0.8
v 0.3 2.3 0
v 0.3 2.3 -0.1
v 0.3 2.3 -0.7
v 0.3 2.3 -0.8
v 0.3 2.5 -0.3
v 0.3 2.5 -0.5
v 0.3 2.7 -0.2
v 0.3 2.7 -0.3
v 0.3 2.7 -0.5
v 0.3 2.7 -0.6
v 0.3 2.8 -0.2
v 0.3 2.8 -0.3
v 0.3 2.8 -0.5
v 0.3 2.8 -0.6
v 0.5 2 -0.2
v 0.5 2 -0.3
v 0.5 2 -0.5
v 0.5 2 -0.6
v 0.5 2.1 -0.2
v 0.5 2.1 -0.3
v 0.5 2.1 -0.5
v 0.5 2.1 -0.6
v 0.5 2.2 0
v 0.5 2.2 -0.1
v 0.5 2.2 -0.7
v 0.5 2.2 -0.8
v 0.5 2.3 0
v 0.5 2.3 -0.1
v 0.5 2.3 -0.7
v 0.5 2.3 -0.8
v 0.5 2.5 -0.3
v 0.5 2.5 -0.5
v 0.5 2.7 -0.2
v 0.5 2.7 -0.3
v 0.5 2.7 -0.5
v 0.5 2.7 -0.6
v 0.5 2.8 -0.2
v 0.5 2.8 -0.3
v 0.5 2.8 -0.5
v 0.5 2.8 -0.6
v 0.6 2 -0.3
v 0.6 2 -0.5
v 0.6 2.1 -0.1
v 0.6 2.1 -0.2
v 0.6 2.1 -0.3
v 0.6 2.1 -0.5
v 0.6 2.1 -0.6
v 0.6 2.1 -0.7
v 0.6 2.2 -0.1
v 0.6 2.2 -0.2
v 0.6 2.2 -0.6
v 0.6 2.2 -0.7
v 0.6 2.3 0
v 0.6 2.3 -0.1
v 0.6 2.3 -0.7
v 0.6 2.3 -0.8
v 0.6 2.5 0
v 0.6 2.5 -0.1
v 0.6 2.5 -0.7
v 0.6 2.5 -0.8
v 0.6 2.7 -0.3
v 0.6 2.7 -0.5
v 0.6 2.8 -0.3
v 0.6 2.8 -0.5
v 0.7 2.1 -0.2
v 0.7 2.1 -0.6
v 0.7 2.2 -0.1
v 0.7 2.2 -0.2
v 0.7 2.2 -0.3
v 0.7 2.2 -0.5
v 0.7 2.2 -0.6
v 0.7 2.2 -0.7
v 0.7 2.3 -0.2
v 0.7 2.3 -0.3
v 0.7 2.3 -0.5
v 0.7 2.3 -0.6
v 0.7 2.5 -0.1
v 0.7 2.5 -0.2
v 0.7 2.5 -0.6
v 0.7 2.5 -0.7
v 0.8 2.2 -0.3
v 0.8 2.2 -0.5
v 0.8 2.3 -0.2
v 0.8 2.3 -0.3
v 0.8 2.3 -0.5
v 0.8 2.3 -0.6
v 0.8 2.5 -0.2
v 0.8 2.5 -0.6
v 0.2 2.3 0
v 0.2 2.5 0
v 0.3 2.2 0
v 0.3 2.3 0
v 0.5 2.2 0
v 0.5 2.3 0
v 0.6 2.3 0
v 0.6 2.5 0
v 0.1 2.2 -0.1
v 0.1 2.5 -0.1
v 0.2 2.1 -0.1
v 0.2 2.2 -0.1
v 0.2 2.3 -0.1
v 0.2 2.5 -0.1
v 0.3 2.2 -0.1
v 0.3 2.3 -0.1
v 0.5 2.2 -0.1
v 0.5 2.3 -0.1
v 0.6 2.1 -0.1
v 0.6 2.2 -0.1
v 0.6 2.3 -0.1
v 0.6 2.5 -0.1
v 0.7 2.2 -0.1
v 0.7 2.5 -0.1
v 0 2.3 -0.2
v 0 2.5 -0.2
v 0.1 2.1 -0.2
v 0.1 2.2 -0.2
v 0.1 2.3 -0.2
v 0.1 2.5 -0.2
v 0.2 2.1 -0.2
v 0.2 2.2 -0.2
v 0.3 2 -0.2
v 0.3 2.1 -0.2
v 0.3 2.7 -0.2
v 0.3 2.8 -0.2
v 0.5 2 -0.2
v 0.5 2.1 -0.2
v 0.5 2.7 -0.2
v 0.5 2.8 -0.2
v 0.6 2.1 -0.2
v 0.6 2.2 -0.2
v 0.7 2.1 -0.2
v 0.7 2.2 -0.2
v 0.7 2.3 -0.2
v 0.7 2.5 -0.2
v 0.8 2.3 -0.2
v 0.8 2.5 -0.2
v 0 2.2 -0.3
v 0 2.3 -0.3
v 0.1 2.2 -0.3
v 0.1 2.3 -0.3
v 0.2 2 -0.3
v 0.2 2.1 -0.3
v 0.2 2.7 -0.3
v 0.2 2.8 -0.3
v 0.3 2 -0.3
v 0.3 2.1 -0.3
v 0.3 2.5 -0.3
v 0.3 2.7 -0.3
v 0.3 2.8 -0.3
v 0.5 2 -0.3
v 0.5 2.1 -0.3
v 0.5 2.5 -0.3
v 0.5 2.7 -0.3
v 0.5 2.8 -0.3
v 0.6 2 -0.3
v 0.6 2.1 -0.3
v 0.6 2.7 -0.3
v 0.6 2.8 -0.3
v 0.7 2.2 -0.3
v 0.7 2.3 -0.3
v 0.8 2.2 -0.3
v 0.8 2.3 -0.3
v 0 2.2 -0.5
v 0 2.3 -0.5
v 0.1 2.2 -0.5
v 0.1 2.3 -0.5
v 0.2 2 -0.5
v 0.2 2.1 -0.5
v 0.2 2.7 -0.5
v 0.2 2.8 -0.5
v 0.3 2 -0.5
v 0.3 2.1 -0.5
v 0.3 2.5 -0.5
v 0.3 2.7 -0.5
v 0.3 2.8 -0.5
v 0.5 2 -0.5
v 0.5 2.1 -0.5
v 0.5 2.5 -0.5
v 0.5 2.7 -0.5
v 0.5 2.8 -0.5
v 0.6 2 -0.5
v 0.6 2.1 -0.5
v 0.6 2.7 -0.5
v 0.6 2.8 -0.5
v 0.7 2.2 -0.5
v 0.7 2.3 -0.5
v 0.8 2.2 -0.5
v 0.8 2.3 -0.5
v 0 2.3 -0.6
v 0 2.5 -0.6
v 0.1 2.1 -0.6
v 0.1 2.2 -0.6
v 0.1 2.3 -0.6
v 0.1 2.5 -0.6
v 0.2 2.1 -0.6
v 0.2 2.2 -0.6
v 0.3 2 -0.6
v 0.3 2.1 -0.6
v 0.3 2.7 -0.6
v 0.3 2.8 -0.6
v 0.5 2 -0.6
v 0.5 2.1 -0.6
v 0.5 2.7 -0.6
v 0.5 2.8 -0.6
v 0.6 2.1 -0.6
v 0.6 2.2 -0.6
v 0.7 2.1 -0.6
v 0.7 2.2 -0.6
v 0.7 2.3 -0.6
v 0.7 2.5 -0.6
v 0.8 2.3 -0.6
v 0.8 2.5 -0.6
v 0.1 2.2 -0.7
v 0.1 2.5 -0.7
v 0.2 2.1 -0.7
v 0.2 2.2 -0.7
v 0.2 2.3 -0.7
v 0.2 2.5 -0.7
v 0.3 2.2 -0.7
v 0.3 2.3 -0.7
v 0.5 2.2 -0.7
v 0.5 2.3 -0.7
v 0.6 2.1 -0.7
v 0.6 2.2 -0.7
v 0.6 2.3 -0.7
v 0.6 2.5 -0.7
v 0.7 2.2 -0.7
v 0.7 2.5 -0.7
v 0.2 2.3 -0.8
v 0.2 2.5 -0.8
v 0.3 2.2 -0.8
v 0.3 2.3 -0.8
v 0.5 2.2 -0.8
v 0.5 2.3 -0.8
v 0.6 2.3 -0.8
v 0.6 2.5 -0.8
v 0.3 2 -0.2
v 0.5 2 -0.2
v 0.2 2 -0.3
v 0.3 2 -0.3
v 0.5 2 -0.3
v 0.6 2 -0.3
v 0.2 2 -0.5
v 0.3 2 -0.5
v 0.5 2 -0.5
v 0.6 2 -0.5
v 0.3 2 -0.6
v 0.5 2 -0.6
v 0.2 2.1 -0.1
v 0.6 2.1 -0.1
v 0.1 2.1 -0.2
v 0.2 2.1 -0.2
v 0.3 2.1 -0.2
v 0.5 2.1 -0.2
v 0.6 2.1 -0.2
v 0.7 2.1 -0.2
v 0.2 2.1 -0.3
v 0.3 2.1 -0.3
v 0.5 2.1 -0.3
v 0.6 2.1 -0.3
v 0.2 2.1 -0.5
v 0.3 2.1 -0.5
v 0.5 2.1 -0.5
v 0.6 2.1 -0.5
v 0.1 2.1 -0.6
v 0.2 2.1 -0.6
v 0.3 2.1 -0.6
v 0.5 2.1 -0.6
v 0.6 2.1 -0.6
v 0.7 2.1 -0.6
v 0.2 2.1 -0.7
v 0.6 2.1 -0.7
v 0.3 2.2 0
v 0.5 2.2 0
v 0.1 2.2 -0.1
v 0.2 2.2 -0.1
v 0.3 2.2 -0.1
v 0.5 2.2 -0.1
v 0.6 2.2 -0.1
v 0.7 2.2 -0.1
v 0.1 2.2 -0.2
v 0.2 2.2 -0.2
v 0.6 2.2 -0.2
v 0.7 2.2 -0.2
v 0 2.2 -0.3
v 0.1 2.2 -0.3
v 0.7 2.2 -0.3
v 0.8 2.2 -0.3
v 0 2.2 -0.5
v 0.1 2.2 -0.5
v 0.7 2.2 -0.5
v 0.8 2.2 -0.5
v 0.1 2.2 -0.6
v 0.2 2.2 -0.6
v 0.6 2.2 -0.6
v 0.7 2.2 -0.6
v 0.1 2.2 -0.7
v 0.2 2.2 -0.7
v 0.3 2.2 -0.7
v 0.5 2.2 -0.7
v 0.6 2.2 -0.7
v 0.7 2.2 -0.7
v 0.3 2.2 -0.8
v 0.5 2.2 -0.8
v 0.2 2.3 0
v 0.3 2.3 0
v 0.5 2.3 0
v 0.6 2.3 0
v 0.2 2.3 -0.1
v 0.3 2.3 -0.1
v 0.5 2.3 -0.1
v 0.6 2.3 -0.1
v 0 2.3 -0.2
v 0.1 2.3 -0.2
v 0.7 2.3 -0.2
v 0.8 2.3 -0.2
v 0 2.3 -0.3
v 0.1 2.3 -0.3
v 0.7 2.3 -0.3
v 0.8 2.3 -0.3
v 0 2.3 -0.5
v 0.1 2.3 -0.5
v 0.7 2.3 -0.5
v 0.8 2.3 -0.5
v 0 2.3 -0.6
v 0.1 2.3 -0.6
v 0.7 2.3 -0.6
v 0.8 2.3 -0.6
v 0.2 2.3 -0.7
v 0.3 2.3 -0.7
v 0.5 2.3 -0.7
v 0.6 2.3 -0.7
v 0.2 2.3 -0.8
v 0.3 2.3 -0.8
v 0.5 2.3 -0.8
v 0.6 2.3 -0.8
v 0.3 2.7 -0.2
v 0.5 2.7 -0.2
v 0.2 2.7 -0.3
v 0.3 2.7 -0.3
v 0.5 2.7 -0.3
v 0.6 2.7 -0.3
v 0.2 2.7 -0.5
v 0.3 2.7 -0.5
v 0.5 2.7 -0.5
v 0.6 2.7 -0.5
v 0.3 2.7 -0.6
v 0.5 2.7 -0.6
v 0.2 2.5 0
v 0.6 2.5 0
v 0.1 2.5 -0.1
v 0.2 2.5 -0.1
v 0.6 2.5 -0.1
v 0.7 2.5 -0.1
v 0 2.5 -0.2
v 0.1 2.5 -0.2
v 0.7 2.5 -0.2
v 0.8 2.5 -0.2
v 0.3 2.5 -0.3
v 0.5 2.5 -0.3
v 0.3 2.5 -0.5
v 0.5 2.5 -0.5
v 0 2.5 -0.6
v 0.1 2.5 -0.6
v 0.7 2.5 -0.6
v 0.8 2.5 -0.6
v 0.1 2.5 -0.7
v 0.2 2.5 -0.7
v 0.6 2.5 -0.7
v 0.7 2.5 -0.7
v 0.2 2.5 -0.8
v 0.6 2.5 -0.8
v 0.3 2.8 -0.2
v 0.5 2.8 -0.2
v 0.2 2.8 -0.3
v 0.3 2.8 -0.3
v 0.5 2.8 -0.3
v 0.6 2.8 -0.3
v 0.2 2.8 -0.5
v 0.3 2.8 -0.5
v 0.5 2.8 -0.5
v 0.6 2.8 -0.5
v 0.3 2.8 -0.6
v 0.5 2.8 -0.6

# faces
f 4/2/1 2/2/1 1/2/1
f 5/2/1 2/2/1 4/2/1
f 7/2/1 4/2/1 3/2/1
f 7/2/1 6/2/1 5/2/1
f 7/2/1 5/2/1 4/2/1
f 8/2/1 6/2/1 7/2/1
f 12/2/1 10/2/1 9/2/1
f 13/2/1 10/2/1 12/2/1
f 14/2/1 10/2/1 13/2/1
f 15/2/1 10/2/1 14/2/1
f 17/2/1 12/2/1 11/2/1
f 17/2/1 13/2/1 12/2/1
f 18/2/1 13/2/1 17/2/1
f 19/2/1 16/2/1 15/2/1
f 19/2/1 15/2/1 14/2/1
f 20/2/1 16/2/1 19/2/1
f 21/2/1 17/2/1 11/2/1
f 22/2/1 17/2/1 21/2/1
f 23/2/1 16/2/1 20/2/1
f 24/2/1 16/2/1 23/2/1
f 29/2/1 26/2/1 25/2/1
f 30/2/1 26/2/1 29/2/1
f 33/2/1 28/2/1 27/2/1
f 34/2/1 28/2/1 33/2/1
f 35/2/1 32/2/1 31/2/1
f 36/2/1 32/2/1 35/2/1
f 41/2/1 38/2/1 37/2/1
f 42/2/1 38/2/1 41/2/1
f 43/2/1 40/2/1 39/2/1
f 44/2/1 40/2/1 43/2/1
f 47/1/1 46/1/1 45/1/1
f 48/1/1 46/1/1 47/1/1
f 53/2/1 50/2/1 49/2/1
f 54/2/1 50/2/1 53/2/1
f 55/2/1 52/2/1 51/2/1
f 56/2/1 52/2/1 55/2/1
f 61/2/1 58/2/1 57/2/1
f 62/2/1 58/2/1 61/2/1
f 63/2/1 60/2/1 59/2/1
f 64/2/1 60/2/1 63/2/1
f 68/2/1 66/2/1 65/2/1
f 69/2/1 66/2/1 68/2/1
f 71/1/1 68/1/1 67/1/1
f 72/1/1 68/1/1 71/1/1
f 73/1/1 70/1/1 69/1/1
f 74/1/1 70/1/1 73/1/1
f 75/2/2 76/2/2 79/2/2
f 79/2/2 76/2/2 80/2/2
f 77/2/2 78/2/2 81/2/2
f 81/2/2 78/2/2 82/2/2
f 83/2/2 84/2/2 87/2/2
f 87/2/2 84/2/2 88/2/2
f 85/2/2 86/2/2 89/2/2
f 89/2/2 86/2/2 90/2/2
f 91/2/2 92/2/2 94/2/2
f 94/2/2 92/2/2 95/2/2
f 93/1/2 94/1/2 97/1/2
f 97/1/2 94/1/2 98/1/2
f 95/1/2 96/1/2 99/1/2
f 99/1/2 96/1/2 100/1/2
f 101/2/2 102/2/2 105/2/2
f 105/2/2 102/2/2 106/2/2
f 103/2/2 104/2/2 109/2/2
f 109/2/2 104/2/2 110/2/2
f 107/2/2 108/2/2 111/2/2
f 111/2/2 108/2/2 112/2/2
f 113/2/2 114/2/2 117/2/2
f 117/2/2 114/2/2 118/2/2
f 115/2/2 116/2/2 119/2/2
f 119/2/2 116/2/2 120/2/2
f 121/1/2 122/1/2 123/1/2
f 123/1/2 122/1/2 124/1/2
f 125/2/2 126/2/2 128/2/2
f 128/2/2 126/2/2 129/2/2
f 129/2/2 126/2/2 130/2/2
f 130/2/2 126/2/2 131/2/2
f 127/2/2 128/2/2 133/2/2
f 128/2/2 129/2/2 133/2/2
f 133/2/2 129/2/2 134/2/2
f 131/2/2 132/2/2 135/2/2
f 130/2/2 131/2/2 135/2/2
f 135/2/2 132/2/2 136/2/2
f 127/2/2 133/2/2 137/2/2
f 137/2/2 133/2/2 138/2/2
f 136/2/2 132/2/2 139/2/2
f 139/2/2 132/2/2 140/2/2
f 141/2/2 142/2/2 144/2/2
f 144/2/2 142/2/2 145/2/2
f 143/2/2 144/2/2 147/2/2
f 145/2/2 146/2/2 147/2/2
f 144/2/2 145/2/2 147/2/2
f 147/2/2 146/2/2 148/2/2
f 152/2/3 150/2/3 149/2/3
f 153/2/3 152/2/3 151/2/3
f 154/2/3 150/2/3 152/2/3
f 154/2/3 152/2/3 153/2/3
f 155/2/3 150/2/3 154/2/3
f 156/2/3 150/2/3 155/2/3
f 160/2/3 158/2/3 157/2/3
f 161/2/3 158/2/3 160/2/3
f 162/2/3 158/2/3 161/2/3
f 163/2/3 160/2/3 159/2/3
f 163/2/3 161/2/3 160/2/3
f 164/2/3 161/2/3 163/2/3
f 165/2/3 163/2/3 159/2/3
f 167/2/3 165/2/3 159/2/3
f 167/2/3 166/2/3 165/2/3
f 168/2/3 166/2/3 167/2/3
f 169/2/3 166/2/3 168/2/3
f 171/2/3 169/2/3 168/2/3
f 171/2/3 170/2/3 169/2/3
f 172/2/3 170/2/3 171/2/3
f 177/2/3 174/2/3 173/2/3
f 178/2/3 174/2/3 177/2/3
f 179/2/3 176/2/3 175/2/3
f 180/2/3 176/2/3 179/2/3
f 185/2/3 182/2/3 181/2/3
f 186/2/3 182/2/3 185/2/3
f 187/1/3 184/1/3 183/1/3
f 188/1/3 184/1/3 187/1/3
f 191/2/3 190/2/3 189/2/3
f 192/2/3 190/2/3 191/2/3
f 195/2/3 194/2/3 193/2/3
f 196/2/3 194/2/3 195/2/3
f 199/2/3 198/2/3 197/2/3
f 200/2/3 198/2/3 199/2/3
f 205/2/3 202/2/3 201/2/3
f 206/2/3 202/2/3 205/2/3
f 208/1/3 204/1/3 203/1/3
f 209/1/3 204/1/3 208/1/3
f 212/2/3 208/2/3 207/2/3
f 213/2/3 208/2/3 212/2/3
f 215/2/3 211/2/3 210/2/3
f 216/2/3 211/2/3 215/2/3
f 217/1/3 214/1/3 213/1/3
f 218/1/3 214/1/3 217/1/3
f 221/2/3 220/2/3 219/2/3
f 222/2/3 220/2/3 221/2/3
f 223/2/4 224/2/4 225/2/4
f 225/2/4 224/2/4 226/2/4
f 227/2/4 228/2/4 231/2/4
f 231/2/4 228/2/4 232/2/4
f 229/1/4 230/1/4 234/1/4
f 234/1/4 230/1/4 235/1/4
f 233/2/4 234/2/4 238/2/4
f 238/2/4 234/2/4 239/2/4
f 236/2/4 237/2/4 241/2/4
f 241/2/4 237/2/4 242/2/4
f 239/1/4 240/1/4 243/1/4
f 243/1/4 240/1/4 244/1/4
f 245/2/4 246/2/4 247/2/4
f 247/2/4 246/2/4 248/2/4
f 249/2/4 250/2/4 253/2/4
f 253/2/4 250/2/4 254/2/4
f 251/2/4 252/2/4 255/2/4
f 255/2/4 252/2/4 256/2/4
f 257/2/4 258/2/4 261/2/4
f 261/2/4 258/2/4 262/2/4
f 259/1/4 260/1/4 263/1/4
f 263/1/4 260/1/4 264/1/4
f 265/2/4 266/2/4 267/2/4
f 267/2/4 266/2/4 268/2/4
f 269/2/4 270/2/4 271/2/4
f 271/2/4 270/2/4 272/2/4
f 273/2/4 274/2/4 276/2/4
f 276/2/4 274/2/4 277/2/4
f 277/2/4 274/2/4 278/2/4
f 275/2/4 276/2/4 279/2/4
f 276/2/4 277/2/4 279/2/4
f 279/2/4 277/2/4 280/2/4
f 275/2/4 279/2/4 281/2/4
f 275/2/4 281/2/4 283/2/4
f 281/2/4 282/2/4 283/2/4
f 283/2/4 282/2/4 284/2/4
f 284/2/4 282/2/4 285/2/4
f 284/2/4 285/2/4 287/2/4
f 285/2/4 286/2/4 287/2/4
f 287/2/4 286/2/4 288/2/4
f 289/2/4 290/2/4 292/2/4
f 291/2/4 292/2/4 293/2/4
f 292/2/4 290/2/4 294/2/4
f 293/2/4 292/2/4 294/2/4
f 294/2/4 290/2/4 295/2/4
f 295/2/4 290/2/4 296/2/4
f 300/2/5 298/2/5 297/2/5
f 301/2/5 298/2/5 300/2/5
f 303/2/5 300/2/5 299/2/5
f 303/2/5 302/2/5 301/2/5
f 303/2/5 301/2/5 300/2/5
f 304/2/5 302/2/5 303/2/5
f 305/2/5 302/2/5 304/2/5
f 306/2/5 302/2/5 305/2/5
f 307/2/5 305/2/5 304/2/5
f 308/2/5 305/2/5 307/2/5
f 312/2/5 310/2/5 309/2/5
f 313/2/5 310/2/5 312/2/5
f 314/2/5 310/2/5 313/2/5
f 315/2/5 310/2/5 314/2/5
f 317/2/5 312/2/5 311/2/5
f 317/2/5 313/2/5 312/2/5
f 318/2/5 313/2/5 317/2/5
f 319/2/5 316/2/5 315/2/5
f 319/2/5 315/2/5 314/2/5
f 320/2/5 316/2/5 319/2/5
f 321/2/5 317/2/5 311/2/5
f 324/2/5 316/2/5 320/2/5
f 325/2/5 322/2/5 321/2/5
f 325/2/5 321/2/5 311/2/5
f 326/2/5 322/2/5 325/2/5
f 327/2/5 322/2/5 326/2/5
f 328/2/5 324/2/5 323/2/5
f 329/2/5 316/2/5 324/2/5
f 329/2/5 324/2/5 328/2/5
f 330/2/5 316/2/5 329/2/5
f 331/2/5 327/2/5 326/2/5
f 331/2/5 328/2/5 327/2/5
f 331/2/5 329/2/5 328/2/5
f 332/2/5 329/2/5 331/2/5
f 337/2/5 334/2/5 333/2/5
f 338/2/5 334/2/5 337/2/5
f 341/2/5 336/2/5 335/2/5
f 342/2/5 336/2/5 341/2/5
f 343/2/5 340/2/5 339/2/5
f 344/2/5 340/2/5 343/2/5
f 349/2/5 346/2/5 345/2/5
f 350/2/5 346/2/5 349/2/5
f 351/2/5 348/2/5 347/2/5
f 352/2/5 348/2/5 351/2/5
f 357/2/5 354/2/5 353/2/5
f 358/2/5 354/2/5 357/2/5
f 361/2/5 356/2/5 355/2/5
f 362/2/5 356/2/5 361/2/5
f 363/2/5 360/2/5 359/2/5
f 364/2/5 360/2/5 363/2/5
f 369/2/5 366/2/5 365/2/5
f 370/2/5 366/2/5 369/2/5
f 371/2/5 368/2/5 367/2/5
f 372/2/5 368/2/5 371/2/5
f 377/2/5 374/2/5 373/2/5
f 378/2/5 374/2/5 377/2/5
f 379/2/5 376/2/5 375/2/5
f 380/2/5 376/2/5 379/2/5
f 385/2/5 382/2/5 381/2/5
f 386/2/5 382/2/5 385/2/5
f 387/2/5 384/2/5 383/2/5
f 388/2/5 384/2/5 387/2/5
f 393/2/5 390/2/5 389/2/5
f 394/2/5 390/2/5 393/2/5
f 395/2/5 392/2/5 391/2/5
f 396/2/5 392/2/5 395/2/5
f 400/1/5 398/1/5 397/1/5
f 401/1/5 398/1/5 400/1/5
f 403/1/5 400/1/5 399/1/5
f 404/1/5 400/1/5 403/1/5
f 405/1/5 402/1/5 401/1/5
f 406/1/5 402/1/5 405/1/5
f 407/1/5 405/1/5 404/1/5
f 408/1/5 405/1/5 407/1/5
f 409/2/6 410/2/6 412/2/6
f 412/2/6 410/2/6 413/2/6
f 411/2/6 412/2/6 416/2/6
f 413/2/6 414/2/6 416/2/6
f 412/2/6 413/2/6 416/2/6
f 416/2/6 414/2/6 417/2/6
f 415/2/6 416/2/6 419/2/6
f 417/2/6 418/2/6 419/2/6
f 416/2/6 417/2/6 419/2/6
f 419/2/6 418/2/6 420/2/6
f 415/2/6 419/2/6 421/2/6
f 420/2/6 418/2/6 422/2/6
f 415/2/6 421/2/6 423/2/6
f 421/2/6 422/2/6 423/2/6
f 423/2/6 422/2/6 424/2/6
f 422/2/6 418/2/6 425/2/6
f 424/2/6 422/2/6 425/2/6
f 425/2/6 418/2/6 426/2/6
f 424/2/6 425/2/6 427/2/6
f 427/2/6 425/2/6 428/2/6
f 428/2/6 425/2/6 429/2/6
f 429/2/6 425/2/6 430/2/6
f 428/2/6 429/2/6 431/2/6
f 431/2/6 429/2/6 432/2/6
f 433/1/6 434/1/6 436/1/6
f 436/1/6 434/1/6 437/1/6
f 435/1/6 436/1/6 439/1/6
f 437/1/6 438/1/6 439/1/6
f 436/1/6 437/1/6 439/1/6
f 439/1/6 438/1/6 440/1/6
f 440/1/6 438/1/6 441/1/6
f 441/1/6 438/1/6 442/1/6
f 440/1/6 441/1/6 443/1/6
f 443/1/6 441/1/6 444/1/6
