# MagicaVoxel @ Ephtracy

# group
o 

# material
mtllib npc_parent_two.mtl
usemtl palette

# normals
vn -1 0 0
vn 1 0 0
vn 0 0 1
vn 0 0 -1
vn 0 -1 0
vn 0 1 0

# texcoords
vt 0.0605469 0.5
vt 0.232422 0.5
vt 0.416016 0.5
vt 0.419922 0.5
vt 0.556641 0.5
vt 0.650391 0.5
vt 0.814453 0.5
vt 0.869141 0.5
vt 0.873047 0.5
vt 0.958984 0.5
vt 0.978516 0.5
vt 0.990234 0.5
vt 0.994141 0.5

# verts
v 0 2.3 -0.3
v 0 2.3 -0.5
v 0 2.6 -0.3
v 0 2.6 -0.5
v 0 2.7 -0.1
v 0 2.7 -0.3
v 0 2.7 -0.5
v 0 2.8 -0.5
v 0 2.8 -0.6
v 0 2.9 -0.3
v 0 2.9 -0.5
v 0 2.9 -0.6
v 0 2.9 -0.7
v 0 3.2 0
v 0 3.2 -0.1
v 0 3.4 0
v 0 3.4 -0.1
v 0 3.5 -0.1
v 0 3.5 -0.7
v 0.1 2 -0.2
v 0.1 2 -0.6
v 0.1 2.1 -0.2
v 0.1 2.1 -0.6
v 0.1 2.2 -0.2
v 0.1 2.2 -0.6
v 0.1 2.3 -0.3
v 0.1 2.3 -0.5
v 0.1 2.4 -0.2
v 0.1 2.4 -0.3
v 0.1 2.4 -0.5
v 0.1 2.4 -0.6
v 0.1 2.5 -0.2
v 0.1 2.5 -0.3
v 0.1 2.5 -0.5
v 0.1 2.5 -0.6
v 0.1 2.6 -0.1
v 0.1 2.6 -0.2
v 0.1 2.6 -0.3
v 0.1 2.6 -0.5
v 0.1 2.7 -0.1
v 0.1 2.7 -0.2
v 0.1 2.7 -0.3
v 0.1 2.7 -0.5
v 0.1 2.8 -0.5
v 0.1 2.8 -0.6
v 0.1 2.8 -0.7
v 0.1 2.9 -0.6
v 0.1 2.9 -0.7
v 0.1 2.9 -0.8
v 0.1 3 -0.8
v 0.1 3 -0.9
v 0.1 3.1 0
v 0.1 3.1 -0.1
v 0.1 3.2 0
v 0.1 3.2 -0.1
v 0.1 3.4 0
v 0.1 3.4 -0.1
v 0.1 3.4 -0.8
v 0.1 3.4 -0.9
v 0.1 3.5 0
v 0.1 3.5 -0.1
v 0.1 3.5 -0.7
v 0.1 3.5 -0.8
v 0.1 3.6 -0.1
v 0.1 3.6 -0.7
v 0.5 2 -0.2
v 0.5 2 -0.6
v 0.5 2.1 -0.2
v 0.5 2.1 -0.6
v 0.5 3.3 0
v 0.5 3.3 -0.1
v 0.5 3.4 0
v 0.5 3.4 -0.1
v 0.6 2.6 -0.1
v 0.6 2.6 -0.2
v 0.6 2.8 -0.2
v 0.6 2.9 -0.2
v 0.6 3 -0.1
v 0.6 3 -0.2
v 0.6 3.1 0
v 0.6 3.1 -0.1
v 0.6 3.2 -0.1
v 0.6 3.3 0
v 0.6 3.3 -0.1
v 0.2 2.6 -0.1
v 0.2 2.6 -0.2
v 0.2 2.8 -0.2
v 0.2 2.9 -0.2
v 0.2 3 -0.1
v 0.2 3 -0.2
v 0.2 3.1 0
v 0.2 3.1 -0.1
v 0.2 3.2 -0.1
v 0.2 3.3 0
v 0.2 3.3 -0.1
v 0.3 2 -0.2
v 0.3 2 -0.6
v 0.3 2.1 -0.2
v 0.3 2.1 -0.6
v 0.3 3.3 0
v 0.3 3.3 -0.1
v 0.3 3.4 0
v 0.3 3.4 -0.1
v 0.7 2 -0.2
v 0.7 2 -0.6
v 0.7 2.1 -0.2
v 0.7 2.1 -0.6
v 0.7 2.2 -0.2
v 0.7 2.2 -0.6
v 0.7 2.3 -0.3
v 0.7 2.3 -0.5
v 0.7 2.4 -0.2
v 0.7 2.4 -0.3
v 0.7 2.4 -0.5
v 0.7 2.4 -0.6
v 0.7 2.5 -0.2
v 0.7 2.5 -0.3
v 0.7 2.5 -0.5
v 0.7 2.5 -0.6
v 0.7 2.6 -0.1
v 0.7 2.6 -0.2
v 0.7 2.6 -0.3
v 0.7 2.6 -0.5
v 0.7 2.7 -0.1
v 0.7 2.7 -0.2
v 0.7 2.7 -0.3
v 0.7 2.7 -0.5
v 0.7 2.8 -0.5
v 0.7 2.8 -0.6
v 0.7 2.8 -0.7
v 0.7 2.9 -0.6
v 0.7 2.9 -0.7
v 0.7 2.9 -0.8
v 0.7 3 -0.8
v 0.7 3 -0.9
v 0.7 3.1 0
v 0.7 3.1 -0.1
v 0.7 3.2 0
v 0.7 3.2 -0.1
v 0.7 3.4 0
v 0.7 3.4 -0.1
v 0.7 3.4 -0.8
v 0.7 3.4 -0.9
v 0.7 3.5 0
v 0.7 3.5 -0.1
v 0.7 3.5 -0.7
v 0.7 3.5 -0.8
v 0.7 3.6 -0.1
v 0.7 3.6 -0.7
v 0.8 2.3 -0.3
v 0.8 2.3 -0.5
v 0.8 2.6 -0.3
v 0.8 2.6 -0.5
v 0.8 2.7 -0.1
v 0.8 2.7 -0.3
v 0.8 2.7 -0.5
v 0.8 2.8 -0.5
v 0.8 2.8 -0.6
v 0.8 2.9 -0.3
v 0.8 2.9 -0.5
v 0.8 2.9 -0.6
v 0.8 2.9 -0.7
v 0.8 3.2 0
v 0.8 3.2 -0.1
v 0.8 3.4 0
v 0.8 3.4 -0.1
v 0.8 3.5 -0.1
v 0.8 3.5 -0.7
v 0 3.2 0
v 0 3.4 0
v 0.1 3.1 0
v 0.1 3.2 0
v 0.1 3.4 0
v 0.1 3.5 0
v 0.2 3.1 0
v 0.2 3.3 0
v 0.2 3.4 0
v 0.3 3.3 0
v 0.3 3.4 0
v 0.5 3.3 0
v 0.5 3.4 0
v 0.6 3.1 0
v 0.6 3.3 0
v 0.6 3.4 0
v 0.7 3.1 0
v 0.7 3.2 0
v 0.7 3.4 0
v 0.7 3.5 0
v 0.8 3.2 0
v 0.8 3.4 0
v 0 2.7 -0.1
v 0 3.2 -0.1
v 0 3.4 -0.1
v 0 3.5 -0.1
v 0.1 2.6 -0.1
v 0.1 2.7 -0.1
v 0.1 3 -0.1
v 0.1 3.1 -0.1
v 0.1 3.2 -0.1
v 0.1 3.4 -0.1
v 0.1 3.5 -0.1
v 0.1 3.6 -0.1
v 0.2 2.6 -0.1
v 0.2 3 -0.1
v 0.2 3.1 -0.1
v 0.2 3.2 -0.1
v 0.2 3.3 -0.1
v 0.3 3.1 -0.1
v 0.3 3.2 -0.1
v 0.3 3.3 -0.1
v 0.3 3.4 -0.1
v 0.5 3.1 -0.1
v 0.5 3.2 -0.1
v 0.5 3.3 -0.1
v 0.5 3.4 -0.1
v 0.6 2.6 -0.1
v 0.6 3 -0.1
v 0.6 3.1 -0.1
v 0.6 3.2 -0.1
v 0.6 3.3 -0.1
v 0.7 2.6 -0.1
v 0.7 2.7 -0.1
v 0.7 3 -0.1
v 0.7 3.1 -0.1
v 0.7 3.2 -0.1
v 0.7 3.4 -0.1
v 0.7 3.5 -0.1
v 0.7 3.6 -0.1
v 0.8 2.7 -0.1
v 0.8 3.2 -0.1
v 0.8 3.4 -0.1
v 0.8 3.5 -0.1
v 0.1 2 -0.2
v 0.1 2.1 -0.2
v 0.1 2.2 -0.2
v 0.1 2.4 -0.2
v 0.1 2.5 -0.2
v 0.1 2.6 -0.2
v 0.2 2.6 -0.2
v 0.2 2.8 -0.2
v 0.2 2.9 -0.2
v 0.2 3 -0.2
v 0.3 2 -0.2
v 0.3 2.1 -0.2
v 0.3 2.4 -0.2
v 0.3 2.5 -0.2
v 0.3 2.7 -0.2
v 0.3 2.8 -0.2
v 0.5 2 -0.2
v 0.5 2.1 -0.2
v 0.5 2.4 -0.2
v 0.5 2.5 -0.2
v 0.5 2.7 -0.2
v 0.5 2.8 -0.2
v 0.6 2.6 -0.2
v 0.6 2.8 -0.2
v 0.6 2.9 -0.2
v 0.6 3 -0.2
v 0.7 2 -0.2
v 0.7 2.1 -0.2
v 0.7 2.2 -0.2
v 0.7 2.4 -0.2
v 0.7 2.5 -0.2
v 0.7 2.6 -0.2
v 0 2.3 -0.3
v 0 2.6 -0.3
v 0 2.7 -0.3
v 0.1 2.3 -0.3
v 0.1 2.4 -0.3
v 0.1 2.5 -0.3
v 0.1 2.6 -0.3
v 0.1 2.7 -0.3
v 0.7 2.3 -0.3
v 0.7 2.4 -0.3
v 0.7 2.5 -0.3
v 0.7 2.6 -0.3
v 0.7 2.7 -0.3
v 0.8 2.3 -0.3
v 0.8 2.6 -0.3
v 0.8 2.7 -0.3
v 0 2.3 -0.5
v 0 2.6 -0.5
v 0 2.7 -0.5
v 0 2.8 -0.5
v 0.1 2.3 -0.5
v 0.1 2.4 -0.5
v 0.1 2.5 -0.5
v 0.1 2.6 -0.5
v 0.1 2.7 -0.5
v 0.1 2.8 -0.5
v 0.7 2.3 -0.5
v 0.7 2.4 -0.5
v 0.7 2.5 -0.5
v 0.7 2.6 -0.5
v 0.7 2.7 -0.5
v 0.7 2.8 -0.5
v 0.8 2.3 -0.5
v 0.8 2.6 -0.5
v 0.8 2.7 -0.5
v 0.8 2.8 -0.5
v 0 2.8 -0.6
v 0 2.9 -0.6
v 0.1 2 -0.6
v 0.1 2.1 -0.6
v 0.1 2.2 -0.6
v 0.1 2.4 -0.6
v 0.1 2.5 -0.6
v 0.1 2.8 -0.6
v 0.1 2.9 -0.6
v 0.2 2.7 -0.6
v 0.2 2.8 -0.6
v 0.3 2 -0.6
v 0.3 2.1 -0.6
v 0.5 2 -0.6
v 0.5 2.1 -0.6
v 0.6 2.7 -0.6
v 0.6 2.8 -0.6
v 0.7 2 -0.6
v 0.7 2.1 -0.6
v 0.7 2.2 -0.6
v 0.7 2.4 -0.6
v 0.7 2.5 -0.6
v 0.7 2.8 -0.6
v 0.7 2.9 -0.6
v 0.8 2.8 -0.6
v 0.8 2.9 -0.6
v 0 2.9 -0.7
v 0 3.5 -0.7
v 0.1 2.8 -0.7
v 0.1 2.9 -0.7
v 0.1 3.5 -0.7
v 0.1 3.6 -0.7
v 0.7 2.8 -0.7
v 0.7 2.9 -0.7
v 0.7 3.5 -0.7
v 0.7 3.6 -0.7
v 0.8 2.9 -0.7
v 0.8 3.5 -0.7
v 0.1 2.9 -0.8
v 0.1 3 -0.8
v 0.1 3.4 -0.8
v 0.1 3.5 -0.8
v 0.7 2.9 -0.8
v 0.7 3 -0.8
v 0.7 3.4 -0.8
v 0.7 3.5 -0.8
v 0.1 3 -0.9
v 0.1 3.4 -0.9
v 0.7 3 -0.9
v 0.7 3.4 -0.9
v 0.1 2 -0.2
v 0.3 2 -0.2
v 0.5 2 -0.2
v 0.7 2 -0.2
v 0.1 2 -0.6
v 0.3 2 -0.6
v 0.5 2 -0.6
v 0.7 2 -0.6
v 0.3 2.1 -0.2
v 0.5 2.1 -0.2
v 0.3 2.1 -0.6
v 0.5 2.1 -0.6
v 0 2.3 -0.3
v 0.1 2.3 -0.3
v 0.7 2.3 -0.3
v 0.8 2.3 -0.3
v 0 2.3 -0.5
v 0.1 2.3 -0.5
v 0.7 2.3 -0.5
v 0.8 2.3 -0.5
v 0.1 2.6 -0.1
v 0.2 2.6 -0.1
v 0.6 2.6 -0.1
v 0.7 2.6 -0.1
v 0.1 2.6 -0.2
v 0.2 2.6 -0.2
v 0.6 2.6 -0.2
v 0.7 2.6 -0.2
v 0 2.7 -0.1
v 0.1 2.7 -0.1
v 0.7 2.7 -0.1
v 0.8 2.7 -0.1
v 0.1 2.7 -0.2
v 0.7 2.7 -0.2
v 0 2.7 -0.3
v 0.1 2.7 -0.3
v 0.7 2.7 -0.3
v 0.8 2.7 -0.3
v 0 2.8 -0.5
v 0.1 2.8 -0.5
v 0.7 2.8 -0.5
v 0.8 2.8 -0.5
v 0 2.8 -0.6
v 0.1 2.8 -0.6
v 0.2 2.8 -0.6
v 0.6 2.8 -0.6
v 0.7 2.8 -0.6
v 0.8 2.8 -0.6
v 0.1 2.8 -0.7
v 0.7 2.8 -0.7
v 0 2.9 -0.6
v 0.1 2.9 -0.6
v 0.7 2.9 -0.6
v 0.8 2.9 -0.6
v 0 2.9 -0.7
v 0.1 2.9 -0.7
v 0.7 2.9 -0.7
v 0.8 2.9 -0.7
v 0.1 2.9 -0.8
v 0.7 2.9 -0.8
v 0.2 3 -0.1
v 0.6 3 -0.1
v 0.2 3 -0.2
v 0.6 3 -0.2
v 0.1 3 -0.8
v 0.7 3 -0.8
v 0.1 3 -0.9
v 0.7 3 -0.9
v 0.1 3.1 0
v 0.2 3.1 0
v 0.6 3.1 0
v 0.7 3.1 0
v 0.1 3.1 -0.1
v 0.2 3.1 -0.1
v 0.6 3.1 -0.1
v 0.7 3.1 -0.1
v 0 3.2 0
v 0.1 3.2 0
v 0.7 3.2 0
v 0.8 3.2 0
v 0 3.2 -0.1
v 0.1 3.2 -0.1
v 0.7 3.2 -0.1
v 0.8 3.2 -0.1
v 0.2 3.3 0
v 0.3 3.3 0
v 0.5 3.3 0
v 0.6 3.3 0
v 0.2 3.3 -0.1
v 0.3 3.3 -0.1
v 0.5 3.3 -0.1
v 0.6 3.3 -0.1
v 0.3 3.4 0
v 0.5 3.4 0
v 0.3 3.4 -0.1
v 0.5 3.4 -0.1
v 0 3.4 0
v 0.1 3.4 0
v 0.7 3.4 0
v 0.8 3.4 0
v 0 3.4 -0.1
v 0.1 3.4 -0.1
v 0.7 3.4 -0.1
v 0.8 3.4 -0.1
v 0.1 3.4 -0.8
v 0.7 3.4 -0.8
v 0.1 3.4 -0.9
v 0.7 3.4 -0.9
v 0.1 3.5 0
v 0.7 3.5 0
v 0 3.5 -0.1
v 0.1 3.5 -0.1
v 0.7 3.5 -0.1
v 0.8 3.5 -0.1
v 0 3.5 -0.7
v 0.1 3.5 -0.7
v 0.7 3.5 -0.7
v 0.8 3.5 -0.7
v 0.1 3.5 -0.8
v 0.7 3.5 -0.8
v 0.1 3.6 -0.1
v 0.7 3.6 -0.1
v 0.1 3.6 -0.7
v 0.7 3.6 -0.7

# faces
f 3/1/1 2/1/1 1/1/1
f 4/1/1 2/1/1 3/1/1
f 6/12/1 4/12/1 3/12/1
f 7/12/1 4/12/1 6/12/1
f 8/2/1 7/2/1 6/2/1
f 10/2/1 8/2/1 6/2/1
f 10/3/1 6/3/1 5/3/1
f 11/3/1 9/3/1 8/3/1
f 11/2/1 8/2/1 10/2/1
f 12/3/1 9/3/1 11/3/1
f 15/3/1 10/3/1 5/3/1
f 15/3/1 13/3/1 12/3/1
f 15/3/1 12/3/1 11/3/1
f 15/3/1 11/3/1 10/3/1
f 16/3/1 15/3/1 14/3/1
f 17/3/1 13/3/1 15/3/1
f 17/3/1 15/3/1 16/3/1
f 18/3/1 13/3/1 17/3/1
f 19/3/1 13/3/1 18/3/1
f 22/13/1 21/13/1 20/13/1
f 23/13/1 21/13/1 22/13/1
f 24/9/1 23/9/1 22/9/1
f 25/9/1 23/9/1 24/9/1
f 26/8/1 25/8/1 24/8/1
f 27/8/1 25/8/1 26/8/1
f 28/8/1 26/8/1 24/8/1
f 29/8/1 26/8/1 28/8/1
f 30/8/1 25/8/1 27/8/1
f 31/8/1 25/8/1 30/8/1
f 32/9/1 29/9/1 28/9/1
f 33/9/1 29/9/1 32/9/1
f 34/9/1 31/9/1 30/9/1
f 35/9/1 31/9/1 34/9/1
f 37/12/1 33/12/1 32/12/1
f 38/12/1 33/12/1 37/12/1
f 39/12/1 35/12/1 34/12/1
f 40/3/1 37/3/1 36/3/1
f 41/7/1 38/7/1 37/7/1
f 41/3/1 37/3/1 40/3/1
f 42/7/1 38/7/1 41/7/1
f 43/12/1 35/12/1 39/12/1
f 44/12/1 35/12/1 43/12/1
f 45/12/1 35/12/1 44/12/1
f 47/3/1 46/3/1 45/3/1
f 48/3/1 46/3/1 47/3/1
f 50/3/1 49/3/1 48/3/1
f 54/3/1 53/3/1 52/3/1
f 55/3/1 53/3/1 54/3/1
f 58/3/1 50/3/1 48/3/1
f 58/3/1 51/3/1 50/3/1
f 59/3/1 51/3/1 58/3/1
f 60/3/1 57/3/1 56/3/1
f 61/3/1 57/3/1 60/3/1
f 62/3/1 58/3/1 48/3/1
f 63/3/1 58/3/1 62/3/1
f 64/3/1 62/3/1 61/3/1
f 65/3/1 62/3/1 64/3/1
f 68/13/1 67/13/1 66/13/1
f 69/13/1 67/13/1 68/13/1
f 72/5/1 71/5/1 70/5/1
f 73/5/1 71/5/1 72/5/1
f 76/3/1 75/3/1 74/3/1
f 77/3/1 76/3/1 74/3/1
f 78/3/1 77/3/1 74/3/1
f 79/3/1 77/3/1 78/3/1
f 82/3/1 81/3/1 80/3/1
f 83/3/1 82/3/1 80/3/1
f 84/3/1 82/3/1 83/3/1
f 85/3/2 86/3/2 87/3/2
f 85/3/2 87/3/2 88/3/2
f 85/3/2 88/3/2 89/3/2
f 89/3/2 88/3/2 90/3/2
f 91/3/2 92/3/2 93/3/2
f 91/3/2 93/3/2 94/3/2
f 94/3/2 93/3/2 95/3/2
f 96/13/2 97/13/2 98/13/2
f 98/13/2 97/13/2 99/13/2
f 100/5/2 101/5/2 102/5/2
f 102/5/2 101/5/2 103/5/2
f 104/13/2 105/13/2 106/13/2
f 106/13/2 105/13/2 107/13/2
f 106/9/2 107/9/2 108/9/2
f 108/9/2 107/9/2 109/9/2
f 108/8/2 109/8/2 110/8/2
f 110/8/2 109/8/2 111/8/2
f 108/8/2 110/8/2 112/8/2
f 112/8/2 110/8/2 113/8/2
f 111/8/2 109/8/2 114/8/2
f 114/8/2 109/8/2 115/8/2
f 112/9/2 113/9/2 116/9/2
f 116/9/2 113/9/2 117/9/2
f 114/9/2 115/9/2 118/9/2
f 118/9/2 115/9/2 119/9/2
f 116/12/2 117/12/2 121/12/2
f 121/12/2 117/12/2 122/12/2
f 118/12/2 119/12/2 123/12/2
f 120/3/2 121/3/2 124/3/2
f 121/7/2 122/7/2 125/7/2
f 124/3/2 121/3/2 125/3/2
f 125/7/2 122/7/2 126/7/2
f 123/12/2 119/12/2 127/12/2
f 127/12/2 119/12/2 128/12/2
f 128/12/2 119/12/2 129/12/2
f 129/3/2 130/3/2 131/3/2
f 131/3/2 130/3/2 132/3/2
f 132/3/2 133/3/2 134/3/2
f 136/3/2 137/3/2 138/3/2
f 138/3/2 137/3/2 139/3/2
f 132/3/2 134/3/2 142/3/2
f 134/3/2 135/3/2 142/3/2
f 142/3/2 135/3/2 143/3/2
f 140/3/2 141/3/2 144/3/2
f 144/3/2 141/3/2 145/3/2
f 132/3/2 142/3/2 146/3/2
f 146/3/2 142/3/2 147/3/2
f 145/3/2 146/3/2 148/3/2
f 148/3/2 146/3/2 149/3/2
f 150/1/2 151/1/2 152/1/2
f 152/1/2 151/1/2 153/1/2
f 152/12/2 153/12/2 155/12/2
f 155/12/2 153/12/2 156/12/2
f 155/2/2 156/2/2 157/2/2
f 155/2/2 157/2/2 159/2/2
f 154/3/2 155/3/2 159/3/2
f 157/3/2 158/3/2 160/3/2
f 159/2/2 157/2/2 160/2/2
f 160/3/2 158/3/2 161/3/2
f 154/3/2 159/3/2 164/3/2
f 161/3/2 162/3/2 164/3/2
f 160/3/2 161/3/2 164/3/2
f 159/3/2 160/3/2 164/3/2
f 163/3/2 164/3/2 165/3/2
f 164/3/2 162/3/2 166/3/2
f 165/3/2 164/3/2 166/3/2
f 166/3/2 162/3/2 167/3/2
f 167/3/2 162/3/2 168/3/2
f 172/3/3 170/3/3 169/3/3
f 173/3/3 170/3/3 172/3/3
f 175/3/3 172/3/3 171/3/3
f 175/3/3 174/3/3 173/3/3
f 175/3/3 173/3/3 172/3/3
f 176/3/3 174/3/3 175/3/3
f 177/3/3 174/3/3 176/3/3
f 178/5/3 177/5/3 176/5/3
f 179/3/3 174/3/3 177/3/3
f 179/5/3 177/5/3 178/5/3
f 181/3/3 174/3/3 179/3/3
f 183/5/3 181/5/3 180/5/3
f 184/3/3 174/3/3 181/3/3
f 184/5/3 181/5/3 183/5/3
f 185/3/3 183/3/3 182/3/3
f 185/3/3 184/3/3 183/3/3
f 186/3/3 184/3/3 185/3/3
f 187/3/3 174/3/3 184/3/3
f 187/3/3 184/3/3 186/3/3
f 188/3/3 174/3/3 187/3/3
f 189/3/3 187/3/3 186/3/3
f 190/3/3 187/3/3 189/3/3
f 196/3/3 192/3/3 191/3/3
f 197/3/3 192/3/3 196/3/3
f 198/3/3 192/3/3 197/3/3
f 199/3/3 192/3/3 198/3/3
f 200/3/3 194/3/3 193/3/3
f 201/3/3 194/3/3 200/3/3
f 203/3/3 196/3/3 195/3/3
f 203/3/3 197/3/3 196/3/3
f 204/1/3 198/1/3 197/1/3
f 204/3/3 197/3/3 203/3/3
f 205/1/3 198/1/3 204/1/3
f 208/1/3 205/1/3 204/1/3
f 208/13/3 206/13/3 205/13/3
f 209/10/3 207/10/3 206/10/3
f 209/13/3 206/13/3 208/13/3
f 210/10/3 207/10/3 209/10/3
f 212/1/3 208/1/3 204/1/3
f 212/1/3 211/1/3 210/1/3
f 212/1/3 210/1/3 209/1/3
f 212/1/3 209/1/3 208/1/3
f 213/1/3 211/1/3 212/1/3
f 214/1/3 211/1/3 213/1/3
f 215/1/3 211/1/3 214/1/3
f 217/1/3 212/1/3 204/1/3
f 218/13/3 213/13/3 212/13/3
f 218/1/3 212/1/3 217/1/3
f 219/10/3 214/10/3 213/10/3
f 219/13/3 213/13/3 218/13/3
f 220/10/3 214/10/3 219/10/3
f 221/3/3 217/3/3 216/3/3
f 222/3/3 217/3/3 221/3/3
f 223/1/3 218/1/3 217/1/3
f 223/3/3 217/3/3 222/3/3
f 224/1/3 218/1/3 223/1/3
f 227/3/3 202/3/3 201/3/3
f 228/3/3 202/3/3 227/3/3
f 229/3/3 224/3/3 223/3/3
f 229/3/3 223/3/3 222/3/3
f 229/3/3 225/3/3 224/3/3
f 230/3/3 225/3/3 229/3/3
f 231/3/3 227/3/3 226/3/3
f 232/3/3 227/3/3 231/3/3
f 239/12/3 238/12/3 237/12/3
f 243/13/3 234/13/3 233/13/3
f 244/9/3 235/9/3 234/9/3
f 244/13/3 234/13/3 243/13/3
f 245/8/3 236/8/3 235/8/3
f 245/9/3 237/9/3 236/9/3
f 246/12/3 239/12/3 237/12/3
f 246/9/3 237/9/3 245/9/3
f 247/2/3 240/2/3 239/2/3
f 248/12/3 241/12/3 240/12/3
f 248/2/3 240/2/3 247/2/3
f 250/9/3 235/9/3 244/9/3
f 251/8/3 245/8/3 235/8/3
f 251/11/3 246/11/3 245/11/3
f 252/12/3 239/12/3 246/12/3
f 252/11/3 246/11/3 251/11/3
f 253/12/3 248/12/3 247/12/3
f 253/2/3 247/2/3 239/2/3
f 254/12/3 241/12/3 248/12/3
f 254/12/3 248/12/3 253/12/3
f 255/12/3 239/12/3 252/12/3
f 255/2/3 253/2/3 239/2/3
f 255/2/3 254/2/3 253/2/3
f 256/12/3 241/12/3 254/12/3
f 256/2/3 254/2/3 255/2/3
f 257/1/3 242/1/3 241/1/3
f 257/12/3 241/12/3 256/12/3
f 258/1/3 242/1/3 257/1/3
f 259/13/3 250/13/3 249/13/3
f 260/9/3 235/9/3 250/9/3
f 260/13/3 250/13/3 259/13/3
f 261/8/3 251/8/3 235/8/3
f 261/9/3 235/9/3 260/9/3
f 262/9/3 252/9/3 251/9/3
f 262/8/3 251/8/3 261/8/3
f 263/12/3 255/12/3 252/12/3
f 263/9/3 252/9/3 262/9/3
f 264/12/3 255/12/3 263/12/3
f 268/1/3 266/1/3 265/1/3
f 269/1/3 266/1/3 268/1/3
f 270/1/3 266/1/3 269/1/3
f 271/12/3 267/12/3 266/12/3
f 271/1/3 266/1/3 270/1/3
f 272/12/3 267/12/3 271/12/3
f 278/1/3 274/1/3 273/1/3
f 278/1/3 275/1/3 274/1/3
f 278/1/3 276/1/3 275/1/3
f 279/12/3 277/12/3 276/12/3
f 279/1/3 276/1/3 278/1/3
f 280/12/3 277/12/3 279/12/3
f 281/1/4 282/1/4 285/1/4
f 285/1/4 282/1/4 286/1/4
f 286/1/4 282/1/4 287/1/4
f 282/12/4 283/12/4 288/12/4
f 287/1/4 282/1/4 288/1/4
f 283/2/4 284/2/4 289/2/4
f 288/12/4 283/12/4 289/12/4
f 289/2/4 284/2/4 290/2/4
f 291/1/4 292/1/4 297/1/4
f 292/1/4 293/1/4 297/1/4
f 293/1/4 294/1/4 297/1/4
f 294/12/4 295/12/4 298/12/4
f 297/1/4 294/1/4 298/1/4
f 295/2/4 296/2/4 299/2/4
f 298/12/4 295/12/4 299/12/4
f 299/2/4 296/2/4 300/2/4
f 301/3/4 302/3/4 308/3/4
f 308/3/4 302/3/4 309/3/4
f 307/12/4 308/12/4 310/12/4
f 310/12/4 308/12/4 311/12/4
f 303/13/4 304/13/4 312/13/4
f 304/9/4 305/9/4 313/9/4
f 312/13/4 304/13/4 313/13/4
f 313/9/4 305/9/4 315/9/4
f 307/12/4 310/12/4 316/12/4
f 310/2/4 311/2/4 316/2/4
f 316/2/4 311/2/4 317/2/4
f 314/13/4 315/13/4 318/13/4
f 315/9/4 305/9/4 319/9/4
f 318/13/4 315/13/4 319/13/4
f 305/8/4 306/8/4 320/8/4
f 319/9/4 305/9/4 320/9/4
f 306/9/4 307/9/4 321/9/4
f 320/8/4 306/8/4 321/8/4
f 307/12/4 316/12/4 322/12/4
f 321/9/4 307/9/4 322/9/4
f 316/12/4 317/12/4 322/12/4
f 322/12/4 317/12/4 323/12/4
f 323/3/4 324/3/4 325/3/4
f 325/3/4 324/3/4 326/3/4
f 327/3/4 328/3/4 330/3/4
f 330/3/4 328/3/4 331/3/4
f 329/3/4 330/3/4 333/3/4
f 333/3/4 330/3/4 334/3/4
f 331/3/4 332/3/4 335/3/4
f 335/3/4 332/3/4 336/3/4
f 334/3/4 335/3/4 337/3/4
f 337/3/4 335/3/4 338/3/4
f 339/3/4 340/3/4 343/3/4
f 343/3/4 340/3/4 344/3/4
f 341/3/4 342/3/4 345/3/4
f 345/3/4 342/3/4 346/3/4
f 347/3/4 348/3/4 349/3/4
f 349/3/4 348/3/4 350/3/4
f 355/13/5 352/13/5 351/13/5
f 356/13/5 352/13/5 355/13/5
f 357/13/5 354/13/5 353/13/5
f 358/13/5 354/13/5 357/13/5
f 361/9/5 360/9/5 359/9/5
f 362/9/5 360/9/5 361/9/5
f 367/1/5 364/1/5 363/1/5
f 368/1/5 364/1/5 367/1/5
f 369/1/5 366/1/5 365/1/5
f 370/1/5 366/1/5 369/1/5
f 375/3/5 372/3/5 371/3/5
f 376/3/5 372/3/5 375/3/5
f 377/3/5 374/3/5 373/3/5
f 378/3/5 374/3/5 377/3/5
f 383/3/5 380/3/5 379/3/5
f 384/3/5 382/3/5 381/3/5
f 385/3/5 383/3/5 379/3/5
f 386/3/5 383/3/5 385/3/5
f 387/3/5 382/3/5 384/3/5
f 388/3/5 382/3/5 387/3/5
f 393/3/5 390/3/5 389/3/5
f 394/3/5 390/3/5 393/3/5
f 397/3/5 392/3/5 391/3/5
f 398/3/5 392/3/5 397/3/5
f 399/3/5 396/3/5 395/3/5
f 399/3/5 397/3/5 396/3/5
f 399/3/5 395/3/5 394/3/5
f 400/3/5 397/3/5 399/3/5
f 405/3/5 402/3/5 401/3/5
f 406/3/5 402/3/5 405/3/5
f 407/3/5 404/3/5 403/3/5
f 408/3/5 404/3/5 407/3/5
f 409/3/5 407/3/5 406/3/5
f 410/3/5 407/3/5 409/3/5
f 413/1/5 412/1/5 411/1/5
f 414/1/5 412/1/5 413/1/5
f 417/3/5 416/3/5 415/3/5
f 418/3/5 416/3/5 417/3/5
f 423/3/5 420/3/5 419/3/5
f 424/3/5 420/3/5 423/3/5
f 425/3/5 422/3/5 421/3/5
f 426/3/5 422/3/5 425/3/5
f 431/3/5 428/3/5 427/3/5
f 432/3/5 428/3/5 431/3/5
f 433/3/5 430/3/5 429/3/5
f 434/3/5 430/3/5 433/3/5
f 439/5/5 436/5/5 435/5/5
f 440/5/5 436/5/5 439/5/5
f 441/5/5 438/5/5 437/5/5
f 442/5/5 438/5/5 441/5/5
f 445/3/5 444/3/5 443/3/5
f 446/3/5 444/3/5 445/3/5
f 447/3/6 448/3/6 451/3/6
f 451/3/6 448/3/6 452/3/6
f 449/3/6 450/3/6 453/3/6
f 453/3/6 450/3/6 454/3/6
f 455/3/6 456/3/6 457/3/6
f 457/3/6 456/3/6 458/3/6
f 459/3/6 460/3/6 462/3/6
f 462/3/6 460/3/6 463/3/6
f 461/3/6 462/3/6 465/3/6
f 465/3/6 462/3/6 466/3/6
f 463/3/6 464/3/6 467/3/6
f 467/3/6 464/3/6 468/3/6
f 466/3/6 467/3/6 469/3/6
f 469/3/6 467/3/6 470/3/6
f 471/3/6 472/3/6 473/3/6
f 473/3/6 472/3/6 474/3/6
