# MagicaVoxel @ Ephtracy

# group
o 

# material
mtllib tree2.mtl
usemtl palette

# normals
vn -1 0 0
vn 1 0 0
vn 0 0 1
vn 0 0 -1
vn 0 -1 0
vn 0 1 0

# texcoords
vt 0.318359 0.5
vt 0.697266 0.5

# verts
v 0.1 2 -1.7
v 0.1 2 -1.8
v 0.1 2.1 -1.7
v 0.1 2.1 -1.8
v 1 2.1 -1.7
v 1 2.1 -1.8
v 1 2.2 -1.7
v 1 2.2 -1.8
v 1.1 2 -1.2
v 1.1 2 -1.7
v 1.1 2 -1.8
v 1.1 2 -2
v 1.1 2.1 -1.2
v 1.1 2.1 -1.7
v 1.1 2.1 -1.8
v 1.1 2.1 -2
v 1.3 2 -0.1
v 1.3 2 -0.5
v 1.3 2.1 -0.1
v 1.3 2.1 -0.5
v 1.3 2.1 -1.4
v 1.3 2.1 -1.7
v 1.3 2.2 -1.4
v 1.3 2.2 -1.7
v 1.3 2.2 -1.8
v 1.3 2.3 -1.7
v 1.3 2.3 -1.8
v 1.4 2 -0.5
v 1.4 2 -0.6
v 1.4 2.1 -0.5
v 1.4 2.1 -0.6
v 1.5 2 -0.6
v 1.5 2 -0.7
v 1.5 2.1 -0.6
v 1.5 2.1 -0.7
v 1.5 2.2 -1.5
v 1.5 2.2 -1.7
v 1.5 2.3 -1.7
v 1.5 3 -1.1
v 1.5 3 -1.5
v 1.5 3.1 -1.2
v 1.5 3.1 -1.5
v 1.5 3.2 -1.7
v 1.5 3.2 -2
v 1.5 3.3 -1.7
v 1.5 3.3 -1.9
v 1.5 4 -1.1
v 1.5 4 -1.2
v 1.5 4.2 -1.9
v 1.5 4.2 -2
v 1.5 4.4 -1.5
v 1.5 4.4 -1.7
v 1.6 2 -0.7
v 1.6 2 -1.2
v 1.6 2.1 -0.7
v 1.6 2.1 -1.2
v 1.6 2.1 -1.4
v 1.6 2.2 -1.2
v 1.6 2.2 -1.4
v 1.6 2.2 -1.5
v 1.6 2.3 -1.4
v 1.6 2.3 -1.5
v 1.8 2.2 -1.7
v 1.8 2.2 -1.8
v 1.8 2.3 -1.7
v 1.8 2.3 -1.8
v 2 2.1 -1.8
v 2 2.1 -1.9
v 2 2.2 -1.8
v 2 2.2 -1.9
v 2.1 2 -2
v 2.1 2 -2.2
v 2.1 2.1 -2
v 2.1 2.1 -2.2
v 2.2 2 -2.2
v 2.2 2 -2.3
v 2.2 2.1 -2.2
v 2.2 2.1 -2.3
v 2.4 2 -2.3
v 2.4 2 -2.4
v 2.4 2.1 -2.3
v 2.4 2.1 -2.4
v 1.4 2 -0.1
v 1.4 2 -0.5
v 1.4 2.1 -0.1
v 1.4 2.1 -0.5
v 1.5 2 -0.5
v 1.5 2 -0.6
v 1.5 2.1 -0.5
v 1.5 2.1 -0.6
v 1.5 2.2 -1.7
v 1.5 2.2 -1.8
v 1.5 2.3 -1.7
v 1.5 2.3 -1.8
v 1.6 2 -0.6
v 1.6 2 -0.7
v 1.6 2.1 -0.6
v 1.6 2.1 -0.7
v 1.7 2 -0.7
v 1.7 2 -1.2
v 1.7 2.1 -0.7
v 1.7 2.1 -1.2
v 1.7 2.1 -1.4
v 1.7 2.2 -1.2
v 1.7 2.2 -1.4
v 1.7 2.2 -1.5
v 1.7 2.2 -1.6
v 1.7 2.3 -1.4
v 1.7 2.3 -1.5
v 1.7 2.3 -1.6
v 1.7 2.3 -1.7
v 1.7 3 -1.1
v 1.7 3 -1.5
v 1.7 3.1 -1.2
v 1.7 3.1 -1.5
v 1.7 3.2 -1.7
v 1.7 3.2 -2
v 1.7 3.3 -1.7
v 1.7 3.3 -1.9
v 1.7 4 -1.1
v 1.7 4 -1.2
v 1.7 4.2 -1.9
v 1.7 4.2 -2
v 1.7 4.4 -1.5
v 1.7 4.4 -1.7
v 1.8 2.2 -1.6
v 1.8 2.2 -1.7
v 1.8 2.3 -1.6
v 1.8 2.3 -1.7
v 1.9 2.1 -1.4
v 1.9 2.1 -1.7
v 1.9 2.2 -1.4
v 1.9 2.2 -1.7
v 2 2.1 -1.7
v 2 2.1 -1.8
v 2 2.2 -1.8
v 2 2.3 -1.7
v 2 2.3 -1.8
v 2.1 2 -1.2
v 2.1 2 -1.9
v 2.1 2.1 -1.2
v 2.1 2.1 -1.8
v 2.1 2.1 -1.9
v 2.1 2.2 -1.8
v 2.1 2.2 -1.9
v 2.2 2 -1.9
v 2.2 2 -2.2
v 2.2 2.1 -1.9
v 2.2 2.1 -2.2
v 2.4 2 -2.2
v 2.4 2 -2.3
v 2.4 2.1 -2.2
v 2.4 2.1 -2.3
v 2.7 2 -2.3
v 2.7 2 -2.4
v 2.7 2.1 -2.3
v 2.7 2.1 -2.4
v 1.3 2 -0.1
v 1.3 2.1 -0.1
v 1.4 2 -0.1
v 1.4 2.1 -0.1
v 1.4 2 -0.5
v 1.4 2.1 -0.5
v 1.5 2 -0.5
v 1.5 2.1 -0.5
v 1.5 2 -0.6
v 1.5 2.1 -0.6
v 1.6 2 -0.6
v 1.6 2.1 -0.6
v 1.6 2 -0.7
v 1.6 2.1 -0.7
v 1.7 2 -0.7
v 1.7 2.1 -0.7
v 1.5 3 -1.1
v 1.5 4 -1.1
v 1.7 3 -1.1
v 1.7 4 -1.1
v 1.1 2 -1.2
v 1.1 2.1 -1.2
v 1.6 2 -1.2
v 1.6 2.1 -1.2
v 1.6 2.2 -1.2
v 1.7 2 -1.2
v 1.7 2.1 -1.2
v 1.7 2.2 -1.2
v 2.1 2 -1.2
v 2.1 2.1 -1.2
v 1.3 2.1 -1.4
v 1.3 2.2 -1.4
v 1.6 2.1 -1.4
v 1.6 2.2 -1.4
v 1.6 2.3 -1.4
v 1.7 2.1 -1.4
v 1.7 2.2 -1.4
v 1.7 2.3 -1.4
v 1.9 2.1 -1.4
v 1.9 2.2 -1.4
v 1.5 2.2 -1.5
v 1.5 3 -1.5
v 1.5 3.1 -1.5
v 1.5 4.4 -1.5
v 1.6 2.2 -1.5
v 1.6 2.3 -1.5
v 1.7 2.3 -1.5
v 1.7 3 -1.5
v 1.7 3.1 -1.5
v 1.7 4.4 -1.5
v 1.7 2.2 -1.6
v 1.7 2.3 -1.6
v 1.8 2.2 -1.6
v 1.8 2.3 -1.6
v 0.1 2 -1.7
v 0.1 2.1 -1.7
v 1 2.1 -1.7
v 1 2.2 -1.7
v 1.1 2 -1.7
v 1.1 2.1 -1.7
v 1.3 2.1 -1.7
v 1.3 2.2 -1.7
v 1.3 2.3 -1.7
v 1.5 2.2 -1.7
v 1.5 2.3 -1.7
v 1.8 2.2 -1.7
v 1.8 2.3 -1.7
v 1.9 2.1 -1.7
v 1.9 2.2 -1.7
v 2 2.1 -1.7
v 2 2.3 -1.7
v 2 2.1 -1.8
v 2 2.2 -1.8
v 2.1 2.1 -1.8
v 2.1 2.2 -1.8
v 1.5 3.3 -1.9
v 1.5 4.2 -1.9
v 1.7 3.3 -1.9
v 1.7 4.2 -1.9
v 2.1 2 -1.9
v 2.1 2.1 -1.9
v 2.2 2 -1.9
v 2.2 2.1 -1.9
v 2.2 2 -2.2
v 2.2 2.1 -2.2
v 2.4 2 -2.2
v 2.4 2.1 -2.2
v 2.4 2 -2.3
v 2.4 2.1 -2.3
v 2.7 2 -2.3
v 2.7 2.1 -2.3
v 1.3 2 -0.5
v 1.3 2.1 -0.5
v 1.4 2 -0.5
v 1.4 2.1 -0.5
v 1.4 2 -0.6
v 1.4 2.1 -0.6
v 1.5 2 -0.6
v 1.5 2.1 -0.6
v 1.5 2 -0.7
v 1.5 2.1 -0.7
v 1.6 2 -0.7
v 1.6 2.1 -0.7
v 1.5 3.1 -1.2
v 1.5 4 -1.2
v 1.7 3.1 -1.2
v 1.7 4 -1.2
v 1.5 2.2 -1.7
v 1.5 2.3 -1.7
v 1.5 3.2 -1.7
v 1.5 3.3 -1.7
v 1.5 4.4 -1.7
v 1.7 2.2 -1.7
v 1.7 2.3 -1.7
v 1.7 3.2 -1.7
v 1.7 3.3 -1.7
v 1.7 4.4 -1.7
v 1.8 2.2 -1.7
v 1.8 2.3 -1.7
v 0.1 2 -1.8
v 0.1 2.1 -1.8
v 1 2.1 -1.8
v 1 2.2 -1.8
v 1.1 2 -1.8
v 1.1 2.1 -1.8
v 1.3 2.1 -1.8
v 1.3 2.2 -1.8
v 1.3 2.3 -1.8
v 1.5 2.2 -1.8
v 1.5 2.3 -1.8
v 1.8 2.2 -1.8
v 1.8 2.3 -1.8
v 1.9 2.1 -1.8
v 1.9 2.2 -1.8
v 2 2.1 -1.8
v 2 2.2 -1.8
v 2 2.3 -1.8
v 2 2.1 -1.9
v 2 2.2 -1.9
v 2.1 2.1 -1.9
v 2.1 2.2 -1.9
v 1.1 2 -2
v 1.1 2.1 -2
v 1.5 3.2 -2
v 1.5 4.2 -2
v 1.7 3.2 -2
v 1.7 4.2 -2
v 2.1 2 -2
v 2.1 2.1 -2
v 2.1 2 -2.2
v 2.1 2.1 -2.2
v 2.2 2 -2.2
v 2.2 2.1 -2.2
v 2.2 2 -2.3
v 2.2 2.1 -2.3
v 2.4 2 -2.3
v 2.4 2.1 -2.3
v 2.4 2 -2.4
v 2.4 2.1 -2.4
v 2.7 2 -2.4
v 2.7 2.1 -2.4
v 1.3 2 -0.1
v 1.4 2 -0.1
v 1.3 2 -0.5
v 1.4 2 -0.5
v 1.5 2 -0.5
v 1.4 2 -0.6
v 1.5 2 -0.6
v 1.6 2 -0.6
v 1.5 2 -0.7
v 1.6 2 -0.7
v 1.7 2 -0.7
v 1.1 2 -1.2
v 1.6 2 -1.2
v 1.7 2 -1.2
v 2.1 2 -1.2
v 0.1 2 -1.7
v 1.1 2 -1.7
v 0.1 2 -1.8
v 1.1 2 -1.8
v 2.1 2 -1.9
v 2.2 2 -1.9
v 1.1 2 -2
v 2.1 2 -2
v 2.1 2 -2.2
v 2.2 2 -2.2
v 2.4 2 -2.2
v 2.2 2 -2.3
v 2.4 2 -2.3
v 2.7 2 -2.3
v 2.4 2 -2.4
v 2.7 2 -2.4
v 1.5 3 -1.1
v 1.7 3 -1.1
v 1.5 3 -1.5
v 1.7 3 -1.5
v 1.5 3.2 -1.7
v 1.7 3.2 -1.7
v 1.5 3.2 -2
v 1.7 3.2 -2
v 1.3 2.1 -0.1
v 1.4 2.1 -0.1
v 1.3 2.1 -0.5
v 1.4 2.1 -0.5
v 1.5 2.1 -0.5
v 1.4 2.1 -0.6
v 1.5 2.1 -0.6
v 1.6 2.1 -0.6
v 1.5 2.1 -0.7
v 1.6 2.1 -0.7
v 1.7 2.1 -0.7
v 1.1 2.1 -1.2
v 1.6 2.1 -1.2
v 1.7 2.1 -1.2
v 2.1 2.1 -1.2
v 1.3 2.1 -1.4
v 1.6 2.1 -1.4
v 1.7 2.1 -1.4
v 1.9 2.1 -1.4
v 0.1 2.1 -1.7
v 1 2.1 -1.7
v 1.1 2.1 -1.7
v 1.3 2.1 -1.7
v 1.9 2.1 -1.7
v 2 2.1 -1.7
v 0.1 2.1 -1.8
v 1 2.1 -1.8
v 1.1 2.1 -1.8
v 1.3 2.1 -1.8
v 1.9 2.1 -1.8
v 2 2.1 -1.8
v 2.1 2.1 -1.8
v 2 2.1 -1.9
v 2.1 2.1 -1.9
v 2.2 2.1 -1.9
v 1.1 2.1 -2
v 2.1 2.1 -2
v 2.1 2.1 -2.2
v 2.2 2.1 -2.2
v 2.4 2.1 -2.2
v 2.2 2.1 -2.3
v 2.4 2.1 -2.3
v 2.7 2.1 -2.3
v 2.4 2.1 -2.4
v 2.7 2.1 -2.4
v 1.6 2.2 -1.2
v 1.7 2.2 -1.2
v 1.3 2.2 -1.4
v 1.6 2.2 -1.4
v 1.7 2.2 -1.4
v 1.9 2.2 -1.4
v 1.5 2.2 -1.5
v 1.6 2.2 -1.5
v 1.7 2.2 -1.5
v 1.7 2.2 -1.6
v 1.8 2.2 -1.6
v 1 2.2 -1.7
v 1.3 2.2 -1.7
v 1.5 2.2 -1.7
v 1.7 2.2 -1.7
v 1.8 2.2 -1.7
v 1.9 2.2 -1.7
v 1 2.2 -1.8
v 1.3 2.2 -1.8
v 1.5 2.2 -1.8
v 1.8 2.2 -1.8
v 2 2.2 -1.8
v 2.1 2.2 -1.8
v 2 2.2 -1.9
v 2.1 2.2 -1.9
v 1.6 2.3 -1.4
v 1.7 2.3 -1.4
v 1.6 2.3 -1.5
v 1.7 2.3 -1.5
v 1.7 2.3 -1.6
v 1.8 2.3 -1.6
v 1.3 2.3 -1.7
v 1.5 2.3 -1.7
v 1.7 2.3 -1.7
v 1.8 2.3 -1.7
v 2 2.3 -1.7
v 1.3 2.3 -1.8
v 1.5 2.3 -1.8
v 1.8 2.3 -1.8
v 2 2.3 -1.8
v 1.5 3.1 -1.2
v 1.7 3.1 -1.2
v 1.5 3.1 -1.5
v 1.7 3.1 -1.5
v 1.5 3.3 -1.7
v 1.7 3.3 -1.7
v 1.5 3.3 -1.9
v 1.7 3.3 -1.9
v 1.5 4 -1.1
v 1.7 4 -1.1
v 1.5 4 -1.2
v 1.7 4 -1.2
v 1.5 4.2 -1.9
v 1.7 4.2 -1.9
v 1.5 4.2 -2
v 1.7 4.2 -2
v 1.5 4.4 -1.5
v 1.7 4.4 -1.5
v 1.5 4.4 -1.7
v 1.7 4.4 -1.7

# faces
f 3/1/1 2/1/1 1/1/1
f 4/1/1 2/1/1 3/1/1
f 7/1/1 6/1/1 5/1/1
f 8/1/1 6/1/1 7/1/1
f 13/2/1 10/2/1 9/2/1
f 14/2/1 10/2/1 13/2/1
f 15/2/1 12/2/1 11/2/1
f 16/2/1 12/2/1 15/2/1
f 19/1/1 18/1/1 17/1/1
f 20/1/1 18/1/1 19/1/1
f 23/2/1 22/2/1 21/2/1
f 24/2/1 22/2/1 23/2/1
f 26/1/1 25/1/1 24/1/1
f 27/1/1 25/1/1 26/1/1
f 30/1/1 29/1/1 28/1/1
f 31/1/1 29/1/1 30/1/1
f 34/1/1 33/1/1 32/1/1
f 35/1/1 33/1/1 34/1/1
f 38/2/1 37/2/1 36/2/1
f 40/2/1 38/2/1 36/2/1
f 41/2/1 40/2/1 39/2/1
f 42/2/1 38/2/1 40/2/1
f 42/2/1 40/2/1 41/2/1
f 43/2/1 38/2/1 42/2/1
f 45/2/1 43/2/1 42/2/1
f 45/2/1 44/2/1 43/2/1
f 46/2/1 44/2/1 45/2/1
f 47/2/1 41/2/1 39/2/1
f 48/2/1 41/2/1 47/2/1
f 49/2/1 44/2/1 46/2/1
f 50/2/1 44/2/1 49/2/1
f 51/2/1 45/2/1 42/2/1
f 52/2/1 45/2/1 51/2/1
f 55/1/1 54/1/1 53/1/1
f 56/1/1 54/1/1 55/1/1
f 58/1/1 57/1/1 56/1/1
f 59/1/1 57/1/1 58/1/1
f 61/1/1 60/1/1 59/1/1
f 62/1/1 60/1/1 61/1/1
f 65/1/1 64/1/1 63/1/1
f 66/1/1 64/1/1 65/1/1
f 69/1/1 68/1/1 67/1/1
f 70/1/1 68/1/1 69/1/1
f 73/1/1 72/1/1 71/1/1
f 74/1/1 72/1/1 73/1/1
f 77/1/1 76/1/1 75/1/1
f 78/1/1 76/1/1 77/1/1
f 81/1/1 80/1/1 79/1/1
f 82/1/1 80/1/1 81/1/1
f 83/1/2 84/1/2 85/1/2
f 85/1/2 84/1/2 86/1/2
f 87/1/2 88/1/2 89/1/2
f 89/1/2 88/1/2 90/1/2
f 91/1/2 92/1/2 93/1/2
f 93/1/2 92/1/2 94/1/2
f 95/1/2 96/1/2 97/1/2
f 97/1/2 96/1/2 98/1/2
f 99/1/2 100/1/2 101/1/2
f 101/1/2 100/1/2 102/1/2
f 102/1/2 103/1/2 104/1/2
f 104/1/2 103/1/2 105/1/2
f 105/1/2 106/1/2 108/1/2
f 106/2/2 107/2/2 109/2/2
f 108/1/2 106/1/2 109/1/2
f 109/2/2 107/2/2 110/2/2
f 110/2/2 111/2/2 113/2/2
f 109/2/2 110/2/2 113/2/2
f 112/2/2 113/2/2 114/2/2
f 113/2/2 111/2/2 115/2/2
f 114/2/2 113/2/2 115/2/2
f 115/2/2 111/2/2 116/2/2
f 115/2/2 116/2/2 118/2/2
f 116/2/2 117/2/2 118/2/2
f 118/2/2 117/2/2 119/2/2
f 112/2/2 114/2/2 120/2/2
f 120/2/2 114/2/2 121/2/2
f 119/2/2 117/2/2 122/2/2
f 122/2/2 117/2/2 123/2/2
f 115/2/2 118/2/2 124/2/2
f 124/2/2 118/2/2 125/2/2
f 126/1/2 127/1/2 128/1/2
f 128/1/2 127/1/2 129/1/2
f 130/2/2 131/2/2 132/2/2
f 132/2/2 131/2/2 133/2/2
f 134/1/2 135/1/2 136/1/2
f 134/1/2 136/1/2 137/1/2
f 137/1/2 136/1/2 138/1/2
f 139/2/2 140/2/2 141/2/2
f 141/2/2 140/2/2 142/2/2
f 142/2/2 140/2/2 143/2/2
f 142/1/2 143/1/2 144/1/2
f 144/1/2 143/1/2 145/1/2
f 146/1/2 147/1/2 148/1/2
f 148/1/2 147/1/2 149/1/2
f 150/1/2 151/1/2 152/1/2
f 152/1/2 151/1/2 153/1/2
f 154/1/2 155/1/2 156/1/2
f 156/1/2 155/1/2 157/1/2
f 160/1/3 159/1/3 158/1/3
f 161/1/3 159/1/3 160/1/3
f 164/1/3 163/1/3 162/1/3
f 165/1/3 163/1/3 164/1/3
f 168/1/3 167/1/3 166/1/3
f 169/1/3 167/1/3 168/1/3
f 172/1/3 171/1/3 170/1/3
f 173/1/3 171/1/3 172/1/3
f 176/2/3 175/2/3 174/2/3
f 177/2/3 175/2/3 176/2/3
f 180/2/3 179/2/3 178/2/3
f 181/2/3 179/2/3 180/2/3
f 184/1/3 182/1/3 181/1/3
f 185/1/3 182/1/3 184/1/3
f 186/2/3 184/2/3 183/2/3
f 187/2/3 184/2/3 186/2/3
f 190/2/3 189/2/3 188/2/3
f 191/2/3 189/2/3 190/2/3
f 194/1/3 192/1/3 191/1/3
f 195/1/3 192/1/3 194/1/3
f 196/2/3 194/2/3 193/2/3
f 197/2/3 194/2/3 196/2/3
f 202/2/3 199/2/3 198/2/3
f 203/2/3 199/2/3 202/2/3
f 204/2/3 199/2/3 203/2/3
f 205/2/3 199/2/3 204/2/3
f 206/2/3 201/2/3 200/2/3
f 207/2/3 201/2/3 206/2/3
f 210/1/3 209/1/3 208/1/3
f 211/1/3 209/1/3 210/1/3
f 214/1/3 213/1/3 212/1/3
f 216/1/3 214/1/3 212/1/3
f 216/1/3 215/1/3 214/1/3
f 217/1/3 215/1/3 216/1/3
f 218/1/3 215/1/3 217/1/3
f 219/1/3 215/1/3 218/1/3
f 221/1/3 220/1/3 219/1/3
f 222/1/3 220/1/3 221/1/3
f 226/1/3 224/1/3 223/1/3
f 227/1/3 226/1/3 225/1/3
f 228/1/3 224/1/3 226/1/3
f 228/1/3 226/1/3 227/1/3
f 231/1/3 230/1/3 229/1/3
f 232/1/3 230/1/3 231/1/3
f 235/2/3 234/2/3 233/2/3
f 236/2/3 234/2/3 235/2/3
f 239/1/3 238/1/3 237/1/3
f 240/1/3 238/1/3 239/1/3
f 243/1/3 242/1/3 241/1/3
f 244/1/3 242/1/3 243/1/3
f 247/1/3 246/1/3 245/1/3
f 248/1/3 246/1/3 247/1/3
f 249/1/4 250/1/4 251/1/4
f 251/1/4 250/1/4 252/1/4
f 253/1/4 254/1/4 255/1/4
f 255/1/4 254/1/4 256/1/4
f 257/1/4 258/1/4 259/1/4
f 259/1/4 258/1/4 260/1/4
f 261/2/4 262/2/4 263/2/4
f 263/2/4 262/2/4 264/2/4
f 265/2/4 266/2/4 270/2/4
f 266/2/4 267/2/4 270/2/4
f 270/2/4 267/2/4 271/2/4
f 271/2/4 267/2/4 272/2/4
f 268/2/4 269/2/4 273/2/4
f 273/2/4 269/2/4 274/2/4
f 270/1/4 271/1/4 275/1/4
f 275/1/4 271/1/4 276/1/4
f 277/1/4 278/1/4 279/1/4
f 277/1/4 279/1/4 281/1/4
f 279/1/4 280/1/4 281/1/4
f 281/1/4 280/1/4 282/1/4
f 282/1/4 280/1/4 283/1/4
f 283/1/4 280/1/4 284/1/4
f 283/2/4 284/2/4 286/2/4
f 284/1/4 285/1/4 286/1/4
f 286/1/4 285/1/4 287/1/4
f 283/2/4 286/2/4 288/2/4
f 283/2/4 288/2/4 290/2/4
f 288/1/4 289/1/4 291/1/4
f 290/2/4 288/2/4 291/2/4
f 290/1/4 291/1/4 292/1/4
f 291/1/4 289/1/4 293/1/4
f 292/1/4 291/1/4 293/1/4
f 293/1/4 289/1/4 294/1/4
f 295/1/4 296/1/4 297/1/4
f 297/1/4 296/1/4 298/1/4
f 301/2/4 302/2/4 303/2/4
f 303/2/4 302/2/4 304/2/4
f 299/2/4 300/2/4 305/2/4
f 305/2/4 300/2/4 306/2/4
f 307/1/4 308/1/4 309/1/4
f 309/1/4 308/1/4 310/1/4
f 311/1/4 312/1/4 313/1/4
f 313/1/4 312/1/4 314/1/4
f 315/1/4 316/1/4 317/1/4
f 317/1/4 316/1/4 318/1/4
f 321/1/5 320/1/5 319/1/5
f 322/1/5 320/1/5 321/1/5
f 324/1/5 323/1/5 322/1/5
f 325/1/5 323/1/5 324/1/5
f 327/1/5 326/1/5 325/1/5
f 328/1/5 326/1/5 327/1/5
f 331/1/5 329/1/5 328/1/5
f 332/1/5 329/1/5 331/1/5
f 335/2/5 331/2/5 330/2/5
f 335/2/5 333/2/5 332/2/5
f 335/2/5 332/2/5 331/2/5
f 336/1/5 335/1/5 334/1/5
f 337/2/5 333/2/5 335/2/5
f 337/1/5 335/1/5 336/1/5
f 338/2/5 333/2/5 337/2/5
f 340/2/5 338/2/5 337/2/5
f 341/1/5 339/1/5 338/1/5
f 341/2/5 338/2/5 340/2/5
f 342/1/5 339/1/5 341/1/5
f 343/1/5 339/1/5 342/1/5
f 345/1/5 344/1/5 343/1/5
f 346/1/5 344/1/5 345/1/5
f 348/1/5 347/1/5 346/1/5
f 349/1/5 347/1/5 348/1/5
f 352/2/5 351/2/5 350/2/5
f 353/2/5 351/2/5 352/2/5
f 356/2/5 355/2/5 354/2/5
f 357/2/5 355/2/5 356/2/5
f 358/1/6 359/1/6 360/1/6
f 360/1/6 359/1/6 361/1/6
f 361/1/6 362/1/6 363/1/6
f 363/1/6 362/1/6 364/1/6
f 364/1/6 365/1/6 366/1/6
f 366/1/6 365/1/6 367/1/6
f 367/1/6 368/1/6 370/1/6
f 370/1/6 368/1/6 371/1/6
f 369/2/6 370/2/6 373/2/6
f 373/2/6 370/2/6 374/2/6
f 371/2/6 372/2/6 375/2/6
f 375/2/6 372/2/6 376/2/6
f 369/2/6 373/2/6 379/2/6
f 379/2/6 373/2/6 380/2/6
f 376/2/6 372/2/6 381/2/6
f 381/2/6 372/2/6 382/2/6
f 377/1/6 378/1/6 383/1/6
f 383/1/6 378/1/6 384/1/6
f 382/2/6 372/2/6 388/2/6
f 388/2/6 372/2/6 389/2/6
f 386/2/6 387/2/6 390/2/6
f 387/2/6 388/2/6 390/2/6
f 385/2/6 386/2/6 390/2/6
f 390/2/6 391/2/6 393/2/6
f 385/2/6 390/2/6 393/2/6
f 391/1/6 392/1/6 394/1/6
f 393/2/6 391/2/6 394/2/6
f 394/1/6 392/1/6 395/1/6
f 395/1/6 392/1/6 396/1/6
f 396/1/6 397/1/6 398/1/6
f 398/1/6 397/1/6 399/1/6
f 399/1/6 400/1/6 401/1/6
f 401/1/6 400/1/6 402/1/6
f 403/1/6 404/1/6 406/1/6
f 406/1/6 404/1/6 407/1/6
f 405/2/6 406/2/6 409/2/6
f 409/2/6 406/2/6 410/2/6
f 407/2/6 408/2/6 411/2/6
f 411/2/6 408/2/6 412/2/6
f 412/2/6 408/2/6 413/2/6
f 405/2/6 409/2/6 415/2/6
f 415/2/6 409/2/6 416/2/6
f 413/2/6 408/2/6 418/2/6
f 418/2/6 408/2/6 419/2/6
f 414/1/6 415/1/6 420/1/6
f 420/1/6 415/1/6 421/1/6
f 416/2/6 417/2/6 422/2/6
f 417/2/6 418/2/6 422/2/6
f 422/2/6 418/2/6 423/2/6
f 424/1/6 425/1/6 426/1/6
f 426/1/6 425/1/6 427/1/6
f 428/1/6 429/1/6 430/1/6
f 430/1/6 429/1/6 431/1/6
f 432/1/6 433/1/6 436/1/6
f 436/1/6 433/1/6 437/1/6
f 434/1/6 435/1/6 439/1/6
f 439/1/6 435/1/6 440/1/6
f 437/1/6 438/1/6 441/1/6
f 441/1/6 438/1/6 442/1/6
f 443/2/6 444/2/6 445/2/6
f 445/2/6 444/2/6 446/2/6
f 447/2/6 448/2/6 449/2/6
f 449/2/6 448/2/6 450/2/6
f 451/2/6 452/2/6 453/2/6
f 453/2/6 452/2/6 454/2/6
f 455/2/6 456/2/6 457/2/6
f 457/2/6 456/2/6 458/2/6
f 459/2/6 460/2/6 461/2/6
f 461/2/6 460/2/6 462/2/6
